<svg width="272" height="210" viewBox="0 0 272 210" fill="none" xmlns="http://www.w3.org/2000/svg">
  <defs>
    <linearGradient id="paint0_linear_645_10" x1="28" y1="75.3706" x2="28" y2="210" gradientUnits="userSpaceOnUse">
      <stop stop-color="#88B2FF"/>
      <stop offset="0.798077" stop-color="#88B2FF" stop-opacity="0"/>
    </linearGradient>
    <linearGradient id="paint1_linear_645_10" x1="100" y1="50" x2="100" y2="210" gradientUnits="userSpaceOnUse">
      <stop stop-color="#88B2FF"/>
      <stop offset="0.798077" stop-color="#88B2FF" stop-opacity="0"/>
    </linearGradient>
    <linearGradient id="paint2_linear_645_10" x1="172" y1="-8.73451e-08" x2="172" y2="210" gradientUnits="userSpaceOnUse">
      <stop stop-color="#88B2FF"/>
      <stop offset="0.798077" stop-color="#88B2FF" stop-opacity="0"/>
    </linearGradient>
    <linearGradient id="paint3_linear_645_10" x1="244" y1="75.3706" x2="244" y2="210" gradientUnits="userSpaceOnUse">
      <stop stop-color="#88B2FF"/>
      <stop offset="0.798077" stop-color="#88B2FF" stop-opacity="0"/>
    </linearGradient>

    <!-- Clip paths to animate the height of each bar while preserving the original curved top -->
    <clipPath id="clip0">
      <rect x="0" y="75.3706" width="56" height="134.6294">
        <animate attributeName="y" from="210" to="75.3706" dur="0.5s" begin="0.05s" fill="freeze" calcMode="spline" keySplines="0.25 0.1 0.25 1"/>
        <animate attributeName="height" from="0" to="134.6294" dur="0.5s" begin="0.05s" fill="freeze" calcMode="spline" keySplines="0.25 0.1 0.25 1"/>
      </rect>
    </clipPath>
    <clipPath id="clip1">
      <rect x="72" y="50" width="56" height="160">
        <animate attributeName="y" from="210" to="50" dur="0.5s" begin="0.15s" fill="freeze" calcMode="spline" keySplines="0.25 0.1 0.25 1"/>
        <animate attributeName="height" from="0" to="160" dur="0.5s" begin="0.15s" fill="freeze" calcMode="spline" keySplines="0.25 0.1 0.25 1"/>
      </rect>
    </clipPath>
    <clipPath id="clip2">
      <rect x="144" y="0" width="56" height="210">
        <animate attributeName="y" from="210" to="0" dur="0.5s" begin="0.25s" fill="freeze" calcMode="spline" keySplines="0.25 0.1 0.25 1"/>
        <animate attributeName="height" from="0" to="210" dur="0.5s" begin="0.25s" fill="freeze" calcMode="spline" keySplines="0.25 0.1 0.25 1"/>
      </rect>
    </clipPath>
    <clipPath id="clip3">
      <rect x="216" y="75.3706" width="56" height="134.6294">
        <animate attributeName="y" from="210" to="75.3706" dur="0.5s" begin="0.35s" fill="freeze" calcMode="spline" keySplines="0.25 0.1 0.25 1"/>
        <animate attributeName="height" from="0" to="134.6294" dur="0.5s" begin="0.35s" fill="freeze" calcMode="spline" keySplines="0.25 0.1 0.25 1"/>
      </rect>
    </clipPath>
  </defs>

  <!-- Bar 1 -->
  <g clip-path="url(#clip0)">
    <path d="M8.7345e-08 103.371C5.22957e-08 92.1349 3.4771e-08 86.5171 2.69649 82.4815C3.86382 80.7344 5.36383 79.2344 7.11088 78.0671C11.1465 75.3706 16.7643 75.3706 28 75.3706C39.2357 75.3706 44.8535 75.3706 48.8891 78.0671C50.6362 79.2344 52.1362 80.7344 53.3035 82.4815C56 86.5171 56 92.1349 56 103.371L56 210L4.19972e-07 210L8.7345e-08 103.371Z" fill="url(#paint0_linear_645_10)">
      <animate attributeName="opacity" from="0" to="1" dur="0.2s" begin="0.05s" fill="freeze"/>
    </path>
  </g>

  <!-- Bar 2 -->
  <g clip-path="url(#clip1)">
    <path d="M72 78C72 66.7643 72 61.1465 74.6965 57.1109C75.8638 55.3638 77.3638 53.8638 79.1109 52.6965C83.1465 50 88.7643 50 100 50C111.236 50 116.854 50 120.889 52.6965C122.636 53.8638 124.136 55.3638 125.304 57.1109C128 61.1465 128 66.7643 128 78L128 210L72 210L72 78Z" fill="url(#paint1_linear_645_10)">
      <animate attributeName="opacity" from="0" to="1" dur="0.2s" begin="0.15s" fill="freeze"/>
    </path>
  </g>

  <!-- Bar 3 -->
  <g clip-path="url(#clip2)">
    <path d="M144 28C144 16.7643 144 11.1465 146.696 7.11087C147.864 5.36383 149.364 3.86382 151.111 2.69649C155.146 -3.4771e-08 160.764 -5.22957e-08 172 -8.7345e-08C183.236 -1.22394e-07 188.854 -1.39919e-07 192.889 2.69649C194.636 3.86382 196.136 5.36383 197.304 7.11087C200 11.1465 200 16.7643 200 28L200 210L144 210L144 28Z" fill="url(#paint2_linear_645_10)">
      <animate attributeName="opacity" from="0" to="1" dur="0.2s" begin="0.25s" fill="freeze"/>
    </path>
  </g>

  <!-- Bar 4 -->
  <g clip-path="url(#clip3)">
    <path d="M216 103.371C216 92.1349 216 86.5171 218.696 82.4815C219.864 80.7344 221.364 79.2344 223.111 78.0671C227.146 75.3706 232.764 75.3706 244 75.3706C255.236 75.3706 260.854 75.3706 264.889 78.0671C266.636 79.2344 268.136 80.7344 269.304 82.4815C272 86.5171 272 92.1349 272 103.371L272 210L216 210L216 103.371Z" fill="url(#paint3_linear_645_10)">
      <animate attributeName="opacity" from="0" to="1" dur="0.2s" begin="0.35s" fill="freeze"/>
    </path>
  </g>

  <!-- Subtle baseline pulse -->
  <line x1="0" y1="210" x2="272" y2="210" stroke="#88B2FF" stroke-opacity="0.12" stroke-width="1.5">
    <animate attributeName="stroke-opacity" values="0.06;0.2;0.06" dur="2.5s" repeatCount="indefinite"/>
  </line>
</svg>