<svg width="1440" height="523" viewBox="0 0 1440 523" fill="none" xmlns="http://www.w3.org/2000/svg">
<g filter="url(#filter0_f_384_6761)">
<g filter="url(#filter1_f_384_6761)">
<path d="M-73 80C652.6 302.034 1298 172.514 1530 80V443C926.8 155.109 210 323.045 -73 443V80Z" fill="#B0C9F7"/>
</g>
<g filter="url(#filter2_f_384_6761)">
<path d="M-73 189C652.6 270.963 1298 223.151 1530 189V323C926.8 216.726 210 278.719 -73 323V189Z" fill="#B0C9F7"/>
</g>
<g filter="url(#filter3_f_384_6761)">
<path d="M-73 217C652.6 262.263 1298 235.86 1530 217V291C926.8 232.311 210 266.546 -73 291V217Z" fill="#F4F8FE"/>
</g>
</g>
<defs>
<filter id="filter0_f_384_6761" x="-153" y="0" width="1763" height="523" filterUnits="userSpaceOnUse" color-interpolation-filters="sRGB">
<feFlood flood-opacity="0" result="BackgroundImageFix"/>
<feBlend mode="normal" in="SourceGraphic" in2="BackgroundImageFix" result="shape"/>
<feGaussianBlur stdDeviation="40" result="effect1_foregroundBlur_384_6761"/>
</filter>
<filter id="filter1_f_384_6761" x="-101" y="52" width="1659" height="419" filterUnits="userSpaceOnUse" color-interpolation-filters="sRGB">
<feFlood flood-opacity="0" result="BackgroundImageFix"/>
<feBlend mode="normal" in="SourceGraphic" in2="BackgroundImageFix" result="shape"/>
<feGaussianBlur stdDeviation="14" result="effect1_foregroundBlur_384_6761"/>
</filter>
<filter id="filter2_f_384_6761" x="-101" y="161" width="1659" height="190" filterUnits="userSpaceOnUse" color-interpolation-filters="sRGB">
<feFlood flood-opacity="0" result="BackgroundImageFix"/>
<feBlend mode="normal" in="SourceGraphic" in2="BackgroundImageFix" result="shape"/>
<feGaussianBlur stdDeviation="14" result="effect1_foregroundBlur_384_6761"/>
</filter>
<filter id="filter3_f_384_6761" x="-101" y="189" width="1659" height="130" filterUnits="userSpaceOnUse" color-interpolation-filters="sRGB">
<feFlood flood-opacity="0" result="BackgroundImageFix"/>
<feBlend mode="normal" in="SourceGraphic" in2="BackgroundImageFix" result="shape"/>
<feGaussianBlur stdDeviation="14" result="effect1_foregroundBlur_384_6761"/>
</filter>
</defs>
</svg>
