<svg width="704" height="524" viewBox="0 0 704 524" fill="none" xmlns="http://www.w3.org/2000/svg">
<g opacity="0.7" filter="url(#filter0_f_999_18735)">
<path d="M257.202 179.223C176.321 144.674 119.367 250.112 101 307.149L101 356.852L596.904 366.63L602.97 101C492.17 279.596 359.292 222.833 258.327 179.703L257.202 179.223Z" fill="#FDE5DD"/>
</g>
<g opacity="0.1" filter="url(#filter1_f_999_18735)">
<path d="M257.202 244.854C176.321 217.005 119.367 301.997 101 347.973L101 388.039L596.904 395.92L602.97 181.8C492.17 325.763 359.292 280.008 258.327 245.242L257.202 244.854Z" fill="#F4F8FE"/>
</g>
<g opacity="0.2" filter="url(#filter2_f_999_18735)">
<path d="M257.045 306.03C176.245 284.618 119.348 349.965 101 385.315L101 416.12L596.405 422.18L602.465 257.55C491.776 368.239 359.032 333.059 258.169 306.328L257.045 306.03Z" fill="#F4F8FE"/>
</g>
<defs>
<filter id="filter0_f_999_18735" x="0" y="0" width="703.97" height="467.63" filterUnits="userSpaceOnUse" color-interpolation-filters="sRGB">
<feFlood flood-opacity="0" result="BackgroundImageFix"/>
<feBlend mode="normal" in="SourceGraphic" in2="BackgroundImageFix" result="shape"/>
<feGaussianBlur stdDeviation="50.5" result="effect1_foregroundBlur_999_18735"/>
</filter>
<filter id="filter1_f_999_18735" x="0" y="80.8003" width="703.97" height="416.12" filterUnits="userSpaceOnUse" color-interpolation-filters="sRGB">
<feFlood flood-opacity="0" result="BackgroundImageFix"/>
<feBlend mode="normal" in="SourceGraphic" in2="BackgroundImageFix" result="shape"/>
<feGaussianBlur stdDeviation="50.5" result="effect1_foregroundBlur_999_18735"/>
</filter>
<filter id="filter2_f_999_18735" x="0" y="156.55" width="703.465" height="366.63" filterUnits="userSpaceOnUse" color-interpolation-filters="sRGB">
<feFlood flood-opacity="0" result="BackgroundImageFix"/>
<feBlend mode="normal" in="SourceGraphic" in2="BackgroundImageFix" result="shape"/>
<feGaussianBlur stdDeviation="50.5" result="effect1_foregroundBlur_999_18735"/>
</filter>
</defs>
</svg>
