<svg width="409" height="378" viewBox="0 0 409 378" fill="none" xmlns="http://www.w3.org/2000/svg">
<g opacity="0.7" filter="url(#filter0_f_645_60)">
<path d="M134.664 158.012C53.7827 123.464 -3.17127 228.901 -21.5381 285.938L-21.5381 335.642L474.366 345.42L480.432 79.7898C369.632 258.385 236.754 201.623 135.789 158.493L134.664 158.012Z" fill="#D1E0FB"/>
</g>
<g opacity="0.1" filter="url(#filter1_f_645_60)">
<path d="M134.664 223.644C53.7827 195.795 -3.17127 280.786 -21.5381 326.763L-21.5381 366.828L474.366 374.71L480.432 160.59C369.632 304.553 236.754 258.798 135.789 224.031L134.664 223.644Z" fill="#F4F8FE"/>
</g>
<g opacity="0.2" filter="url(#filter2_f_645_60)">
<path d="M134.507 284.82C53.7069 263.408 -3.18975 328.755 -21.5381 364.105L-21.5381 394.91L473.867 400.97L479.927 236.34C369.238 347.028 236.494 311.849 135.63 285.118L134.507 284.82Z" fill="#F4F8FE"/>
</g>
<defs>
<filter id="filter0_f_645_60" x="-122.538" y="-21.2102" width="703.97" height="467.63" filterUnits="userSpaceOnUse" color-interpolation-filters="sRGB">
<feFlood flood-opacity="0" result="BackgroundImageFix"/>
<feBlend mode="normal" in="SourceGraphic" in2="BackgroundImageFix" result="shape"/>
<feGaussianBlur stdDeviation="50.5" result="effect1_foregroundBlur_645_60"/>
</filter>
<filter id="filter1_f_645_60" x="-122.538" y="59.5898" width="703.97" height="416.12" filterUnits="userSpaceOnUse" color-interpolation-filters="sRGB">
<feFlood flood-opacity="0" result="BackgroundImageFix"/>
<feBlend mode="normal" in="SourceGraphic" in2="BackgroundImageFix" result="shape"/>
<feGaussianBlur stdDeviation="50.5" result="effect1_foregroundBlur_645_60"/>
</filter>
<filter id="filter2_f_645_60" x="-122.538" y="135.34" width="703.465" height="366.63" filterUnits="userSpaceOnUse" color-interpolation-filters="sRGB">
<feFlood flood-opacity="0" result="BackgroundImageFix"/>
<feBlend mode="normal" in="SourceGraphic" in2="BackgroundImageFix" result="shape"/>
<feGaussianBlur stdDeviation="50.5" result="effect1_foregroundBlur_645_60"/>
</filter>
</defs>
</svg>
