<svg width="136" height="64" viewBox="0 0 136 64" fill="none" xmlns="http://www.w3.org/2000/svg">
<path d="M10.6196 13.9747C10.8585 13.8329 11.0974 13.6934 11.3577 13.6333C11.8164 13.7535 12.2154 14.054 12.6334 14.2752C15.825 16.1433 19.0357 18.009 22.2272 19.8771C22.4876 20.019 22.7456 20.2594 22.705 20.5792C22.705 24.3346 22.705 28.0684 22.7241 31.8238C22.705 32.1436 22.7647 32.586 22.4446 32.7663C22.0648 33.0476 21.6467 32.7254 21.2884 32.5643C20.6099 32.1821 19.8933 31.8623 19.2148 31.4391C18.9544 31.3189 18.8971 31.0376 18.8971 30.7972C18.878 28.0059 18.9162 25.2146 18.878 22.4256C18.6582 22.1251 18.2593 22.0049 17.9607 21.8029C15.7462 20.5383 13.5723 19.2136 11.3577 17.9489C8.98319 19.3145 6.61102 20.7186 4.23646 22.1035C4.07641 22.2237 3.7969 22.3247 3.83752 22.5843C3.83752 25.2554 3.83751 27.9241 3.85662 30.6169C5.29235 31.48 6.74957 32.3023 8.1853 33.1462C8.44569 33.3072 8.80402 33.4876 8.76341 33.8482C8.78253 34.8315 8.78253 35.8149 8.76341 36.8006C8.80402 37.3416 8.10408 37.6445 7.70752 37.3031C5.31385 35.9183 2.92018 34.5118 0.526509 33.1077C0.227897 32.9466 -0.0516033 32.687 0.0081191 32.3047V21.2235C0.0272302 20.7811 -0.111326 20.1584 0.387952 19.918C3.78018 17.9105 7.21063 15.9414 10.6005 13.9338L10.6196 13.9747ZM24.5827 27.025C24.6424 26.5633 25.2611 26.383 25.6194 26.6643C28.0131 28.0492 30.4068 29.4556 32.8005 30.8597C33.0991 31.0208 33.3786 31.2805 33.3189 31.6627C33.3189 35.5769 33.3595 39.4934 33.3189 43.4075C33.3786 43.7681 33.0585 44.011 32.7814 44.1696C29.37 46.1579 25.9611 48.1463 22.5688 50.1538C22.2702 50.3341 21.9095 50.4736 21.6109 50.2548C18.2593 48.3073 14.9291 46.3407 11.5775 44.4125C11.2192 44.172 10.6196 43.9917 10.6602 43.4484V31.8623C10.5814 31.3406 11.1977 30.9391 11.6373 31.2396C12.4949 31.682 13.3334 32.1027 14.1695 32.586C14.5875 32.8072 14.4299 33.3289 14.4681 33.7112V41.662C16.9812 43.1286 19.4752 44.6144 22.0074 46.0594C24.5014 44.5928 26.974 43.1286 29.4871 41.7029C29.5277 38.9524 29.4871 36.1803 29.4871 33.4299C27.951 32.5066 26.3767 31.6435 24.8407 30.6986C24.4823 30.5183 24.5612 30.0567 24.5421 29.7153C24.5612 28.8329 24.5014 27.9482 24.5827 27.0851V27.025ZM19.4155 34.091C19.7738 34.0309 20.0939 34.293 20.4117 34.4324C21.0901 34.8147 21.8068 35.1345 22.4661 35.5576C22.7456 35.7187 22.6668 36.0793 22.705 36.3414C22.705 37.2839 22.7241 38.248 22.6859 39.1928C22.6859 39.6352 22.1269 39.8949 21.7494 39.6737C20.8918 39.2529 20.0533 38.8106 19.2172 38.3273C18.8589 38.147 18.8995 37.7046 18.8995 37.3632C18.8995 36.4809 18.8804 35.5769 18.8995 34.6921C18.8995 34.3916 19.1193 34.1295 19.4179 34.0694V34.0886L19.4155 34.091Z" fill="url(#paint0_radial_745_5762)"/>
<path d="M66.5899 0.060112C68.4435 -0.0601003 70.2946 0.0408822 72.1458 0.019244C70.3328 2.34896 68.422 4.61616 66.5685 6.92664C66.0508 7.56857 65.4926 8.19128 65.0346 8.89332C67.1267 8.95342 69.1973 8.89331 71.287 8.91255C72.5823 8.93178 73.8753 8.81157 75.1515 9.09287C77.5609 9.57372 79.7913 11.1196 80.9674 13.3291C81.8428 14.9352 82.1029 16.8442 81.8047 18.6497C81.6854 19.3518 81.4254 20.0154 81.2465 20.6982H85.4282C86.4039 20.6982 87.4607 20.5563 88.2574 19.8951C89.1926 19.1522 89.5313 17.8876 89.5719 16.7239C89.6315 14.1129 89.5528 11.5043 89.6124 8.89332H94.851V17.0437C94.8701 18.2675 94.7722 19.4936 94.3333 20.6381C93.7345 22.184 92.5609 23.4895 91.1057 24.2709C89.3739 25.2133 87.382 25.5163 85.4497 25.4946H48.5842C46.6925 27.7234 44.8986 30.0314 43.0284 32.2818C42.828 32.5439 42.4916 32.4429 42.2125 32.4621H37.0145C38.8275 30.0916 40.8194 27.8652 42.5918 25.4754C40.1419 25.235 37.7516 24.23 36.0198 22.4436C34.2259 20.6357 33.2311 18.0872 33.3122 15.5363C33.3122 13.0262 34.4072 10.5378 36.2201 8.80917C38.2526 6.86173 41.1009 5.83752 43.8871 5.95773C46.6352 6.03707 49.3642 7.244 51.2178 9.29002C53.0713 11.2976 53.9062 14.1081 53.589 16.8177C53.4888 18.1833 52.952 19.448 52.3533 20.6717H73.1668C73.923 20.6717 74.6792 20.4914 75.2779 20.0081C77.0504 18.6834 77.0313 15.5699 75.1992 14.3053C74.6625 13.9038 74.0041 13.7018 73.3266 13.7018H58.6486C58.6486 12.4155 58.589 11.1317 58.6677 9.8478C59.0064 9.28521 59.4645 8.82359 59.8628 8.32111C62.1147 5.57065 64.3237 2.76009 66.6162 0.028863L66.5971 0.0480937L66.5899 0.060112ZM42.2698 10.8023C40.8552 11.1629 39.6219 12.228 39.1042 13.6129C38.2884 15.7214 38.7249 18.4526 40.5784 19.8567C42.3318 21.2608 45.0799 21.143 46.6925 19.5754C48.9229 17.4885 48.744 13.2907 46.1939 11.5043C45.0775 10.6797 43.6056 10.4392 42.2698 10.8023Z" fill="#0E1730" fill-opacity="0.7"/>
<path d="M123.771 4.37541C125.145 3.9739 126.698 4.93801 126.998 6.34209C127.356 7.74617 126.381 9.2945 124.966 9.55416C123.592 9.87393 122.099 8.89059 121.839 7.48651C121.54 6.14013 122.437 4.69518 123.771 4.39464V4.37541Z" fill="#0E1730" fill-opacity="0.7"/>
<path d="M101.942 8.85468C103.994 6.86637 106.902 5.82292 109.75 5.98401C112.617 6.08499 115.428 7.40972 117.279 9.63846C119.848 12.651 120.127 17.308 118.116 20.7004H126.561C127.517 20.7004 128.512 20.5802 129.29 19.9984C130.306 19.2555 130.683 17.9499 130.723 16.7262C130.764 14.1152 130.723 11.5258 130.743 8.91479H135.981C136.022 11.5258 135.981 14.1152 135.981 16.7262C136.06 18.6736 135.762 20.722 134.547 22.2872C132.894 24.5352 130.027 25.4199 127.357 25.4993C123.016 25.5402 118.653 25.4993 114.311 25.5401C112.419 27.8482 110.566 30.1587 108.693 32.4668C106.723 32.5269 104.729 32.4668 102.758 32.4668C104.631 30.1178 106.542 27.829 108.395 25.48C105.726 25.2589 103.118 24.0543 101.365 21.9867C99.8312 20.2195 99.0154 17.8898 99.0941 15.5409C99.0941 13.0309 100.17 10.5809 101.961 8.85468H101.94H101.942ZM108.295 10.7204C106.88 11.0017 105.626 11.9658 105.008 13.2905C104.013 15.4591 104.409 18.4308 106.422 19.8757C108.195 21.2606 110.943 21.0995 112.517 19.4935C114.707 17.3657 114.488 13.1895 111.94 11.4609C110.905 10.6987 109.55 10.4583 108.295 10.718V10.7204Z" fill="#0E1730" fill-opacity="0.7"/>
<path d="M82.6826 28.5308C84.0757 28.1894 85.6096 29.1944 85.8291 30.6177C86.1272 32.0026 85.1325 33.4884 83.737 33.7288C82.3629 34.0293 80.8696 33.0051 80.6501 31.601C80.371 30.2354 81.3276 28.7905 82.6826 28.5284V28.5308Z" fill="#0E1730" fill-opacity="0.7"/>
<path d="M35.4779 40.1963C37.3696 38.4291 40.039 38.1286 42.5294 38.1695C44.9006 38.2103 47.4292 38.5517 49.1826 40.2564C50.5757 41.5811 51.2747 43.5285 51.2938 45.4567V57.062C49.581 57.1221 47.8467 57.0813 46.1339 57.062C46.0934 53.5879 46.1339 50.0945 46.1339 46.6228C46.1339 45.3173 45.6759 43.8315 44.4808 43.1487C43.226 42.4466 41.6134 42.4466 40.299 43.0477C38.9846 43.6896 38.4669 45.2572 38.4669 46.6228V57.0236C36.7541 57.1245 35.0199 57.0644 33.3071 57.0644C33.2665 53.2489 33.3071 49.4358 33.3071 45.6202C33.288 43.6127 34.0037 41.5643 35.4779 40.1794V40.1986V40.1963Z" fill="#0E1730" fill-opacity="0.7"/>
<path d="M81.766 38.6691C84.5141 37.8444 87.601 37.9454 90.1725 39.2725C92.5437 40.4362 94.2756 42.4654 94.8338 45.0547C95.3515 47.5047 95.1916 50.1758 93.9965 52.4045C92.7227 54.8953 90.2918 56.7202 87.6034 57.3429C85.2537 57.9055 82.7632 57.564 80.6115 56.499C80.5709 58.9898 80.6115 61.4782 80.6115 63.969C78.8987 64.0098 77.1859 64.0098 75.4922 63.969V48.3077C75.4922 46.6416 75.6711 44.9538 76.2484 43.3886C77.1239 40.9194 79.3352 39.3927 81.7851 38.6715H81.766V38.6691ZM84.6525 42.6457C83.2379 42.8068 81.9641 43.7108 81.2675 44.9538C80.0318 47.2426 80.4302 50.5749 82.6606 52.1016C84.3925 53.3662 86.9831 53.1042 88.455 51.539C90.2489 49.6709 90.3276 46.4588 88.8128 44.3912C87.8562 43.1265 86.2031 42.4245 84.6501 42.6433L84.6525 42.6457Z" fill="#0E1730" fill-opacity="0.7"/>
<path d="M100.987 40.4968C103.198 38.6287 106.185 37.9267 109.073 38.2272C111.106 38.4484 113.155 38.7297 114.889 39.8741C114.152 41.1796 113.415 42.4635 112.678 43.769C111.244 43.1054 109.689 42.5236 108.098 42.6846C106.404 42.8457 104.87 44.031 104.255 45.6154C103.737 46.9618 103.737 48.4861 104.236 49.8325C104.853 51.4986 106.488 52.7248 108.239 52.8234C109.772 52.9243 111.266 52.4218 112.621 51.7198C113.458 52.9844 114.155 54.3308 114.892 55.6556C113.16 56.7591 111.127 57.3409 109.076 57.5429C105.512 57.8627 101.805 56.3576 99.5744 53.5062C98.1598 51.7198 97.4823 49.3901 97.6421 47.1229C97.7614 44.5744 99.0567 42.1245 100.989 40.4968H100.987Z" fill="#0E1730" fill-opacity="0.7"/>
<path d="M123.949 38.2872C126.399 37.905 128.987 38.066 131.12 39.3307C133.391 40.6169 135.123 43.1246 135.719 45.6755C136.277 48.0653 135.979 50.6955 134.744 52.8233C133.389 55.2324 130.979 56.6581 128.331 57.3C125.583 57.9636 122.575 57.5621 120.166 56.0763C117.876 54.7106 116.141 52.3617 115.645 49.7122C115.247 47.5844 115.485 45.3148 116.483 43.3866C117.916 40.516 120.824 38.7873 123.952 38.3065V38.2872H123.949ZM124.608 42.7255C123.193 43.0669 121.938 44.0911 121.361 45.4351C120.445 47.6229 120.884 50.5345 122.895 51.9794C124.689 53.3643 127.475 53.1647 129.068 51.537C131.22 49.4093 131.02 45.2716 128.491 43.4852C127.375 42.6822 125.941 42.4009 124.608 42.7231V42.7255Z" fill="#0E1730" fill-opacity="0.7"/>
<path d="M54.3809 38.6887C56.0936 38.6694 57.8279 38.6887 59.5407 38.6887C59.5813 42.2037 59.5407 45.4759 59.5598 48.9885C59.5789 50.294 60.0583 51.7389 61.2726 52.3808C62.5679 53.0637 64.2211 53.0637 65.5355 52.3808C66.7712 51.698 67.2292 50.1713 67.2292 48.8274V38.7079C68.961 38.667 70.6953 38.667 72.4272 38.7079C72.4081 42.5619 72.4272 46.1562 72.4272 50.0127C72.4272 52.0803 71.6113 54.1888 70.0178 55.5352C67.8661 57.3432 64.8985 57.764 62.191 57.562C59.722 57.36 57.1123 56.3767 55.6786 54.2297C54.6027 52.7247 54.3642 50.7965 54.4238 48.9885V38.7079L54.3832 38.6887H54.3809Z" fill="#0E1730" fill-opacity="0.7"/>
<defs>
<radialGradient id="paint0_radial_745_5762" cx="0" cy="0" r="1" gradientUnits="userSpaceOnUse" gradientTransform="translate(16.6683 31.9993) scale(17.4771 17.5895)">
<stop stop-color="#E06E0C"/>
<stop offset="1" stop-color="#E22419"/>
</radialGradient>
</defs>
</svg>
