<svg width="64" height="656" viewBox="0 0 64 656" fill="none" xmlns="http://www.w3.org/2000/svg">
<line x1="33" y1="-4.37114e-08" x2="33" y2="80" stroke="#FEEEE9" stroke-width="2"/>
<rect x="16" y="80" width="32" height="32" rx="16" fill="#F15722"/>
<path d="M33.9207 104H32.0807V92.14H32.0007C31.4207 93.08 30.3607 93.88 29.1007 93.88V92.28C30.3807 92.28 31.7007 90.94 32.1607 90H33.9207V104Z" fill="white"/>
<line x1="33" y1="112" x2="33" y2="224" stroke="url(#paint0_linear_564_13466)" stroke-width="2"/>
<rect x="16.6667" y="224.667" width="30.6667" height="30.6667" rx="15.3333" stroke="#F4794E" stroke-width="1.33333"/>
<path d="M36.6313 248H27.2513V246.24C27.2513 241.96 34.6513 241.28 34.6513 237.66C34.6513 236.38 33.7513 235.38 31.9313 235.38C30.2513 235.38 28.9113 236.28 28.1513 237.04L27.0913 235.72C27.9713 234.78 29.5713 233.76 31.9113 233.76C34.9713 233.76 36.5513 235.46 36.5513 237.58C36.5513 242.18 29.0313 243 29.0513 246.2V246.4H36.6313V248Z" fill="#F15722"/>
<line x1="33" y1="256" x2="33" y2="368" stroke="url(#paint1_linear_564_13466)" stroke-width="2"/>
<rect x="16.6667" y="368.667" width="30.6667" height="30.6667" rx="15.3333" stroke="#F4794E" stroke-width="1.33333"/>
<path d="M32.3048 392.24C30.0248 392.24 28.5248 391.28 27.5248 389.74L28.7848 388.74C29.5648 389.96 30.6848 390.68 32.3248 390.68C34.0448 390.68 35.2848 389.92 35.2848 388.16C35.2848 386.4 34.0448 385.52 32.3648 385.52H30.3848V384.04H32.3648C34.0248 384.04 35.0848 383.2 35.0848 381.58C35.0848 379.88 33.9448 379.32 32.5248 379.32C30.9848 379.32 29.8648 380.02 29.1048 381.18L27.8248 380.22C28.8048 378.72 30.3448 377.76 32.5648 377.76C35.1048 377.76 37.0048 378.86 37.0048 381.32C37.0048 382.96 36.0048 384.26 34.2648 384.28V384.38C35.9448 384.66 37.2648 386.16 37.2648 388.16C37.2648 390.8 35.1848 392.24 32.3048 392.24Z" fill="#F15722"/>
<line x1="33" y1="400" x2="33" y2="512" stroke="url(#paint2_linear_564_13466)" stroke-width="2"/>
<rect x="16.6667" y="512.667" width="30.6667" height="30.6667" rx="15.3333" stroke="#F4794E" stroke-width="1.33333"/>
<path d="M33.857 532.68H27.117V531.3L32.677 522H35.677V531.12H37.637V532.68H35.677V536H33.857V532.68ZM33.857 523.18L29.117 531.12H33.857V523.18Z" fill="#F15722"/>
<line x1="33" y1="544" x2="33" y2="656" stroke="#FEEEE9" stroke-width="2"/>
<defs>
<linearGradient id="paint0_linear_564_13466" x1="31.5" y1="112" x2="31.5" y2="224" gradientUnits="userSpaceOnUse">
<stop offset="0.257011" stop-color="#FEEEE9"/>
<stop offset="1" stop-color="#F9BCA7"/>
</linearGradient>
<linearGradient id="paint1_linear_564_13466" x1="31.5" y1="256" x2="31.5" y2="368" gradientUnits="userSpaceOnUse">
<stop offset="0.257011" stop-color="#FEEEE9"/>
<stop offset="1" stop-color="#F9BCA7"/>
</linearGradient>
<linearGradient id="paint2_linear_564_13466" x1="31.5" y1="400" x2="31.5" y2="512" gradientUnits="userSpaceOnUse">
<stop offset="0.257011" stop-color="#FEEEE9"/>
<stop offset="1" stop-color="#F9BCA7"/>
</linearGradient>
</defs>
</svg>
