<svg width="20" height="20" viewBox="0 0 20 20" fill="none" xmlns="http://www.w3.org/2000/svg">
<path d="M1.66797 7.9173C1.668 6.01893 2.83834 4.31705 4.61098 3.63764C6.38361 2.95823 8.39163 3.44192 9.66047 4.85397C9.74871 4.94832 9.87212 5.00187 10.0013 5.00187C10.1305 5.00187 10.2539 4.94832 10.3421 4.85397C11.6072 3.43247 13.6201 2.9425 15.397 3.62354C17.1739 4.30458 18.3437 6.0144 18.3346 7.9173C18.3346 9.82564 17.0846 11.2506 15.8346 12.5006L11.258 16.9281C10.9439 17.2889 10.4899 17.4973 10.0115 17.5003C9.5332 17.5034 9.07662 17.3007 8.75797 16.944L4.16797 12.5006C2.91797 11.2506 1.66797 9.83397 1.66797 7.9173" stroke="#F15722" stroke-width="1.66667" stroke-linecap="round" stroke-linejoin="round"/>
<path d="M2.68359 10.8307H7.91693L8.33359 9.9974L10.0003 13.7474L11.6669 7.91406L12.9169 10.8307H17.3086" stroke="#F15722" stroke-width="1.66667" stroke-linecap="round" stroke-linejoin="round"/>
</svg>
