<svg width="238" height="55" viewBox="0 0 238 55" fill="none" xmlns="http://www.w3.org/2000/svg">
<path d="M0.182734 27.25C0.525412 28.8991 1.14861 30.478 2.02555 31.9192C4.02451 35.07 7.10225 37.3979 10.6923 38.4743C13.5679 39.4189 16.6048 39.7822 19.624 39.5428C22.3395 39.3817 25.059 39.187 27.7755 39.2023C30.6177 39.1493 33.438 39.7056 36.0439 40.8334C37.6796 41.4661 39.0199 42.6801 39.8045 44.2394C40.2006 45.115 40.3588 46.0783 40.2633 47.0335C40.1679 47.9886 39.8221 48.9023 39.2604 49.6834C38.5644 50.7625 37.6478 51.6842 36.57 52.3888C35.4922 53.0935 34.2773 53.5652 33.0041 53.7736C29.4579 54.5572 25.7889 54.6218 22.2169 53.9636C18.645 53.3054 15.2436 51.9379 12.2166 49.943C9.18967 47.9481 6.59942 45.3669 4.60111 42.3541C2.60281 39.3413 1.23758 35.9588 0.587239 32.4095C0.26077 30.7294 0.189927 29.0004 0 27.2948L0.182734 27.25Z" fill="#05387A"/>
<path d="M45.5378 47.0852C46.8936 45.3239 48.051 43.4204 48.9893 41.4088C50.1306 39.0525 50.7987 36.4981 50.9564 33.8881C51.0485 30.6399 50.0403 27.455 48.0931 24.8434C46.1547 22.1552 43.682 19.8903 40.8276 18.1883C35.6945 14.9729 30.0911 12.7443 24.5247 10.4321C22.6193 9.64104 20.7262 8.81018 18.8783 7.88858C18.0556 7.45854 17.3088 6.89869 16.6669 6.23091C16.4612 6.05039 16.2983 5.82684 16.1899 5.57633C16.0815 5.32583 16.0304 5.05458 16.0403 4.78211C16.0501 4.50965 16.1206 4.24273 16.2467 4.00055C16.3728 3.75838 16.5514 3.54695 16.7696 3.38149C17.312 2.85003 17.9642 2.44199 18.6812 2.18565C28.7011 -0.781008 37.7067 1.08769 45.4896 8.05781C50.0678 12.1066 53.0116 17.6672 53.7745 23.7077C54.409 27.723 54.0986 31.8297 52.8676 35.7059C51.6367 39.5822 49.5187 43.1228 46.6794 46.0504L45.6364 47.1718L45.5378 47.0852Z" fill="#05387A"/>
<path d="M192.774 27.8828H183.403C183.403 27.2762 183.386 26.6737 183.418 26.0732C183.423 25.9713 183.623 25.8439 183.763 25.8031C184.296 25.64 184.835 25.4973 185.379 25.3678C185.531 25.338 185.671 25.2658 185.784 25.1596C185.896 25.0534 185.975 24.9177 186.012 24.7683C188.347 18.3158 190.689 11.8656 193.039 5.41776C193.594 3.88856 194.168 2.36547 194.696 0.830145C194.729 0.661175 194.828 0.511842 194.97 0.413963C195.113 0.316084 195.288 0.277405 195.459 0.306145C196.653 0.328573 197.847 0.328573 199.041 0.306145C199.204 0.283715 199.369 0.325036 199.501 0.421352C199.633 0.517668 199.722 0.661392 199.75 0.821994C202.511 8.78949 205.279 16.7546 208.053 24.7174C208.094 24.9028 208.194 25.0703 208.338 25.1956C208.481 25.321 208.661 25.3977 208.852 25.4147C209.475 25.5252 210.092 25.6678 210.7 25.8418C210.822 25.8745 210.994 26.0304 211 26.1365C211.029 26.7053 211.014 27.2762 211.014 27.8849H199.988C199.988 27.2803 199.971 26.6758 200.004 26.0753C200.009 25.9815 200.219 25.8551 200.354 25.8174C201.103 25.6135 201.858 25.4289 202.668 25.224C202.258 23.9038 201.873 22.6336 201.456 21.3725C201.41 21.3029 201.347 21.2451 201.274 21.2038C201.201 21.1626 201.119 21.139 201.035 21.1349C197.92 21.1213 194.805 21.1213 191.693 21.1349C191.539 21.1349 191.282 21.2369 191.245 21.347C190.816 22.602 190.424 23.8681 189.997 25.1924C190.833 25.4065 191.597 25.6196 192.371 25.7908C192.688 25.8612 192.801 25.9947 192.782 26.3138C192.754 26.8052 192.774 27.3037 192.774 27.8828ZM196.511 5.16188H196.382L192.166 18.3395H200.482L196.511 5.16188Z" fill="#05387A"/>
<path d="M68.667 2.6617V0.304688H88.1206C88.289 2.0959 88.4584 3.90647 88.6339 5.78127C87.71 5.78127 86.8178 5.79555 85.9278 5.76598C85.8025 5.76598 85.6382 5.56209 85.5695 5.41834C85.244 4.73224 84.9627 4.02576 84.626 3.34577C84.5766 3.25659 84.508 3.17929 84.4252 3.11938C84.3423 3.05948 84.2472 3.01842 84.1465 2.99914C81.7083 2.87272 79.268 2.77485 76.8277 2.67189C76.725 2.67189 76.6131 2.68413 76.4715 2.69228V12.4241C77.0197 12.4241 77.536 12.4354 78.0514 12.4241C79.1879 12.3936 80.3244 12.3314 81.4609 12.3222C81.8664 12.3222 82.006 12.1509 82.0943 11.7992C82.2514 11.1722 82.4321 10.5493 82.6436 9.93868C82.6788 9.85683 82.7329 9.78436 82.8016 9.72715C82.8703 9.66994 82.9515 9.62961 83.0388 9.60939C83.7574 9.57575 84.4874 9.5941 85.2594 9.5941V17.7682C84.4781 17.7682 83.7195 17.7835 82.9608 17.7519C82.8448 17.7519 82.6825 17.548 82.6363 17.4073C82.4209 16.8166 82.246 16.212 82.1128 15.5977C82.0204 15.1074 81.7247 15.0248 81.3274 15.0207C80.2453 15.0085 79.1633 14.9986 78.0812 14.9912C77.5628 14.9912 77.0433 14.9912 76.4807 14.9912V25.3643C77.4745 25.3643 78.4549 25.3979 79.4322 25.3571C81.2945 25.2797 83.1559 25.175 85.0161 25.0432C85.1434 25.0252 85.2658 24.982 85.3759 24.9159C85.486 24.8499 85.5815 24.7624 85.6567 24.6588C86.2193 23.7861 86.7449 22.89 87.2552 21.9857C87.3096 21.8392 87.4199 21.7199 87.5623 21.6535C87.7046 21.5871 87.8676 21.579 88.0159 21.631C88.6473 21.7859 89.2858 21.9195 89.9254 22.0388C90.216 22.0918 90.3361 22.1733 90.2765 22.5098C90.011 24.1518 89.766 25.7972 89.5415 27.446C89.4778 27.9211 89.1965 27.9201 88.8382 27.9201C82.4944 27.9153 76.1505 27.9153 69.8066 27.9201H68.5428C68.5428 27.2819 68.5274 26.6794 68.5592 26.0789C68.5592 25.9862 68.7707 25.8577 68.9042 25.8251C69.553 25.662 70.2059 25.5101 70.864 25.3836C71.2202 25.3164 71.3444 25.1584 71.3434 24.7883C71.3325 17.6921 71.3325 10.5959 71.3434 3.49971C71.3434 3.11945 71.2141 2.97876 70.8507 2.94104C70.133 2.86152 69.4175 2.75753 68.667 2.6617Z" fill="#05387A"/>
<path d="M137.402 20.2963C138.154 20.2912 138.941 20.0639 139.418 20.3473C139.852 20.6032 139.961 21.4126 140.199 21.9835C140.391 22.4046 140.555 22.8374 140.691 23.2792C140.836 23.8093 141.115 24.2936 141.502 24.6862C141.889 25.0788 142.371 25.3665 142.901 25.5221C144.567 26.1568 146.389 26.2636 148.118 25.8279C148.827 25.6776 149.478 25.3296 149.994 24.8249C150.511 24.3202 150.871 23.6797 151.034 22.9785C151.255 22.2614 151.25 21.4941 151.017 20.7804C150.785 20.0667 150.338 19.4411 149.735 18.9883C148.411 17.9464 146.987 17.0248 145.567 16.1114C144.083 15.1561 142.507 14.3354 141.05 13.3404C139.409 12.3382 138.196 10.7723 137.642 8.94041C137.233 7.43921 137.374 5.8424 138.042 4.4356C138.71 3.0288 139.86 1.90378 141.286 1.26176C143.377 0.201223 145.739 -0.213167 148.069 0.072033C149.823 0.247382 151.56 0.618468 153.298 0.909017C153.481 0.939601 153.653 1.02014 153.833 1.06703C153.923 1.08235 154.008 1.11531 154.085 1.16399C154.162 1.21267 154.228 1.2761 154.28 1.35054C154.332 1.42498 154.368 1.50894 154.387 1.5975C154.406 1.68607 154.406 1.77744 154.389 1.86629C154.354 3.474 154.376 5.08171 154.376 6.75975C153.641 6.75975 152.956 6.77709 152.273 6.74446C152.147 6.73835 151.985 6.54873 151.919 6.40702C151.483 5.46707 151.079 4.51081 150.639 3.5729C150.547 3.33516 150.38 3.13341 150.163 2.99791C149.229 2.50531 148.193 2.23549 147.136 2.20983C146.079 2.18417 145.03 2.40339 144.074 2.8501C143.645 3.0601 143.265 3.35728 142.959 3.72238C142.654 4.08747 142.429 4.51233 142.299 4.96935C142.17 5.42637 142.138 5.90535 142.207 6.3752C142.276 6.84505 142.444 7.29528 142.699 7.69665C143.035 8.33614 143.509 8.89335 144.089 9.3278C145.705 10.4492 147.413 11.4361 149.065 12.5055C150.639 13.525 152.248 14.5016 153.735 15.6393C157.364 18.4194 156.758 24.154 153.071 26.5783C151.5 27.5929 149.693 28.1896 147.823 28.3114C144.619 28.5591 141.396 28.1926 138.332 27.2317C137.391 26.9422 137.398 26.9259 137.398 25.9319V20.2952L137.402 20.2963Z" fill="#05387A"/>
<path d="M93.3749 20.2702C94.0515 20.2702 94.6295 20.2437 95.2023 20.2876C95.2997 20.3112 95.3905 20.3564 95.4678 20.4198C95.5451 20.4832 95.607 20.5631 95.6489 20.6536C96.0195 21.5609 96.3984 22.4702 96.6827 23.4061C96.8166 23.8516 97.0514 24.2608 97.369 24.6024C97.6866 24.9439 98.0787 25.2088 98.5153 25.3768C100.281 26.1779 102.275 26.3318 104.143 25.8111C104.845 25.6486 105.488 25.296 106 24.7924C106.511 24.2888 106.873 23.6541 107.043 22.9589C107.213 22.2636 107.186 21.535 106.964 20.8543C106.742 20.1735 106.334 19.5673 105.786 19.103C104.452 17.9796 103.017 16.9794 101.5 16.1149C99.4718 15.0527 97.5564 13.7911 95.7824 12.349C94.7285 11.4876 93.9682 10.324 93.6054 9.01727C93.2427 7.71056 93.2952 6.32449 93.7558 5.04853C94.0929 4.15037 94.6153 3.33204 95.2894 2.64597C95.9635 1.9599 96.7745 1.42122 97.6704 1.06444C99.5716 0.171911 101.687 -0.17383 103.776 0.0663872C105.64 0.25397 107.492 0.592424 109.334 0.948219C110.338 1.14192 110.323 1.2194 110.323 2.25314C110.323 3.56826 110.312 4.88439 110.328 6.19951C110.333 6.6073 110.238 6.81832 109.768 6.77449C109.197 6.72249 108.502 6.91925 108.081 6.65827C107.685 6.41258 107.568 5.71424 107.34 5.21062C107.094 4.67234 106.885 4.11368 106.606 3.59273C106.475 3.31508 106.259 3.08491 105.99 2.93414C104.413 2.17861 102.613 2.01811 100.926 2.48253C100.329 2.61288 99.7756 2.89381 99.3197 3.29823C98.8639 3.70265 98.5206 4.21692 98.3231 4.79141C98.1256 5.3659 98.0806 5.98123 98.1923 6.57805C98.304 7.17487 98.5687 7.73302 98.9608 8.19869C99.4215 8.82774 99.9892 9.37214 100.638 9.80742C102.123 10.7932 103.659 11.7077 105.205 12.5967C106.932 13.5502 108.559 14.6721 110.063 15.9456C113.015 18.5331 112.655 23.713 109.63 26.1352C108.174 27.2795 106.426 27.9979 104.582 28.2099C101.111 28.6265 97.5913 28.2912 94.264 27.2271C93.3688 26.958 93.377 26.9294 93.377 26.0037V20.2702H93.3749Z" fill="#05387A"/>
<path d="M181.22 21.0319V26.7532C179.279 27.2283 177.37 27.8155 175.419 28.1468C171.435 28.8227 167.562 28.523 164.081 26.2241C162.581 25.2389 161.319 23.9355 160.388 22.4077C159.457 20.8799 158.878 19.1659 158.695 17.3894C158.193 14.3515 158.628 11.2339 159.944 8.44656C160.949 6.28235 162.481 4.40026 164.4 2.96966C166.32 1.53905 168.567 0.604825 170.941 0.251049C173.864 -0.179986 176.846 0.0245406 179.682 0.850494C179.773 0.872923 179.862 0.899422 179.953 0.919811C181.185 1.19915 181.193 1.19914 181.13 2.42862C181.058 3.83345 180.957 5.23829 180.914 6.64312C180.897 7.19669 180.709 7.3853 180.147 7.33229C179.589 7.29061 179.028 7.29061 178.47 7.33229C178.399 7.34617 178.325 7.34586 178.254 7.3314C178.183 7.31694 178.115 7.28861 178.055 7.24804C177.995 7.20747 177.943 7.15546 177.904 7.09503C177.864 7.0346 177.836 6.96693 177.823 6.89595C177.552 6.08954 177.267 5.28621 176.931 4.50631C176.796 4.1917 176.577 3.91984 176.298 3.72031C175.345 3.19418 174.291 2.87367 173.205 2.77977C172.119 2.68586 171.025 2.82067 169.995 3.17537C168.965 3.53006 168.022 4.09666 167.228 4.8381C166.433 5.57955 165.806 6.47914 165.386 7.47806C164.307 9.87435 163.846 12.4997 164.045 15.117C164.245 17.7344 165.097 20.2612 166.526 22.4694C168.696 25.9499 172.087 26.4851 175.642 25.4819C176.152 25.3559 176.621 25.1024 177.004 24.7455C177.388 24.3886 177.673 23.9402 177.832 23.443C178.073 22.7436 178.379 22.0657 178.687 21.3938C178.726 21.3103 178.785 21.2366 178.857 21.1781C178.929 21.1196 179.013 21.0776 179.103 21.0554C179.787 21.0115 180.476 21.0319 181.22 21.0319Z" fill="#05387A"/>
<path d="M114.255 2.96313V0.289062H125.115V2.96211C124.256 3.04876 123.409 3.14357 122.56 3.21494C122.192 3.24552 122.003 3.34543 122.003 3.77769C122.016 10.8175 122.019 17.8573 122.013 24.897C122.013 25.0245 122.034 25.1509 122.051 25.3701C122.539 25.3374 123.01 25.3079 123.482 25.2732C125.433 25.1335 127.383 25.0061 129.334 24.8359C129.611 24.7897 129.857 24.6364 130.02 24.4097C130.751 23.3148 131.448 22.1975 132.133 21.072C132.332 20.7457 132.511 20.6326 132.888 20.813C133.439 21.076 134.018 21.284 134.623 21.5318C134.357 22.959 134.098 24.3516 133.836 25.7463C133.733 26.2733 133.614 26.7963 133.544 27.3264C133.486 27.7689 133.311 27.9269 132.826 27.9249C127.487 27.9045 122.155 27.9126 116.818 27.9126H114.112C114.112 27.2673 114.1 26.6638 114.127 26.0613C114.127 25.9766 114.31 25.8574 114.428 25.8258C115.078 25.6627 115.73 25.5107 116.387 25.3792C116.726 25.3119 116.889 25.1754 116.888 24.7971C116.878 17.7968 116.878 10.794 116.888 3.7889C116.888 3.38111 116.733 3.24044 116.341 3.20781C115.664 3.15276 114.983 3.05081 114.255 2.96313Z" fill="#05387A"/>
<path d="M47.0539 39.7553C47.1258 39.1885 47.2285 38.6247 47.2593 38.0558C47.3597 36.3748 47.0539 34.6943 46.3674 33.1544C45.6809 31.6146 44.6337 30.2601 43.3129 29.2038C40.6276 26.9155 37.4538 25.2631 34.0311 24.3715C30.5098 23.3785 26.9125 22.6527 23.3542 21.7749C19.0296 20.8019 14.8413 19.3067 10.8827 17.3229C9.60989 16.6929 8.47441 15.8203 7.54099 14.7548C7.15307 14.3613 6.8511 13.8924 6.65396 13.3777C6.45681 12.8629 6.36873 12.3133 6.39523 11.7632C6.42173 11.2131 6.56223 10.6744 6.80796 10.1807C7.05368 9.68697 7.39935 9.24891 7.82333 8.8939C9.13331 7.64811 10.5418 6.50222 11.9073 5.3125L12.0284 5.44605C11.7204 5.80796 11.396 6.15254 11.1209 6.53586C10.6191 7.17755 10.3375 7.96189 10.3172 8.77403C10.2969 9.58616 10.5389 10.3834 11.0079 11.0491C11.6824 12.0539 12.5505 12.9163 13.5622 13.5865C16.042 15.2695 18.7394 16.612 21.5812 17.5777C24.9906 18.8011 28.4596 19.8726 31.8793 21.0643C35.7018 22.2884 39.2741 24.1788 42.429 26.6469C44.7028 28.3639 46.3878 30.7356 47.2541 33.4387C47.8804 35.5099 47.8102 37.7273 47.0539 39.7553Z" fill="#05387A"/>
<path d="M4.33685 13.4155C3.91181 14.9398 3.91961 16.5512 4.35943 18.0714C4.68896 19.1673 5.2619 20.1759 6.03603 21.0228C6.81017 21.8697 7.76578 22.5333 8.83246 22.9648C13.1725 24.7883 17.7169 26.0889 22.3686 26.8388C25.5111 27.422 28.6598 28.0296 31.7396 28.8676C35.2629 29.731 38.5489 31.361 41.3602 33.6397C42.5447 34.564 43.4784 35.7669 44.077 37.1396C44.6755 38.5124 44.9199 40.0117 44.7881 41.5019C44.7296 40.9921 44.6926 40.4824 44.6095 39.9727C44.1971 37.7423 42.9174 35.7626 41.0471 34.4614C38.5431 32.6758 35.6917 31.4283 32.6749 30.7984C30.1042 30.187 27.491 29.7678 24.8571 29.5445C19.9122 29.2325 15.0087 28.4521 10.2133 27.214C8.47479 26.7928 6.80912 26.117 5.27107 25.2087C1.88319 23.0066 1.24155 19.5833 2.685 16.2211C3.11207 15.225 3.69519 14.2953 4.20646 13.3359L4.33685 13.4155Z" fill="#05387A"/>
<path d="M1.10753 20.3203C0.928096 22.5464 1.43207 24.7743 2.55303 26.7104C3.75327 28.555 5.42224 30.0527 7.39153 31.0523C9.72328 32.3037 12.275 33.0997 14.9085 33.3971C17.6169 33.6597 20.3378 33.7751 23.0589 33.7427C27.2946 33.7177 31.5054 34.3876 35.5212 35.7255C37.3103 36.3293 38.9444 37.3152 40.3084 38.6137C41.1286 39.3892 41.7527 40.3462 42.1297 41.4067C42.5067 42.4673 42.6259 43.6012 42.4776 44.7162C42.5592 43.4166 42.2748 42.12 41.6563 40.9717C40.7195 39.3528 39.2834 38.0759 37.5601 37.3291C35.2844 36.3014 32.8482 35.6683 30.3572 35.4574C26.5855 35.155 22.7958 35.1431 19.0222 35.4217C14.8238 35.7517 10.607 35.0759 6.72628 33.4511C5.16896 32.813 3.76706 31.8515 2.61462 30.6312C1.66601 29.6283 0.979896 28.4093 0.616521 27.0815C0.253147 25.7537 0.22363 24.3576 0.530567 23.0158C0.714334 22.1136 0.911443 21.2174 1.10753 20.3203Z" fill="#05387A"/>
<path d="M77.4609 45.9608C78.028 46.0965 78.5871 46.2636 79.1354 46.4613C82.0017 47.6724 81.7861 51.4567 79.9423 53.0797C78.8822 54.0061 77.5268 54.5311 76.115 54.562C74.5936 54.6252 73.0659 54.5314 71.5414 54.5151C70.6328 54.5049 69.7243 54.5151 68.788 54.5151L68.75 53.8902L70.5353 53.6007V39.4678C70.1384 39.4052 69.7379 39.3677 69.3362 39.3556C68.8075 39.3689 68.6689 39.1517 68.8167 38.6328C68.9605 38.6216 69.1247 38.6012 69.2849 38.5951C71.2211 38.5319 73.1573 38.4238 75.0935 38.4299C76.0036 38.4334 76.909 38.5586 77.7854 38.802C78.4567 38.9484 79.0612 39.3094 79.5062 39.8296C79.9513 40.3497 80.2123 41.0005 80.2493 41.682C80.3619 42.4958 80.2102 43.324 79.8162 44.0462C79.4221 44.7684 78.8064 45.347 78.0584 45.6977L77.4609 45.9608ZM72.0383 46.5806C72.0383 48.9111 72.0301 51.055 72.0568 53.198C72.0568 53.3376 72.298 53.564 72.4592 53.5966C73.0079 53.6968 73.5618 53.7669 74.1183 53.8066C75.3814 53.9545 76.6616 53.7743 77.8336 53.2836C79.3407 52.6098 79.9516 51.3731 79.7339 49.4769C79.6767 48.7945 79.3783 48.1541 78.8915 47.6691C78.4047 47.184 77.7609 46.8855 77.0739 46.8263C75.4364 46.6336 73.7774 46.6591 72.0362 46.5806H72.0383ZM72.0383 39.3791C72.0383 41.418 72.0383 43.4121 72.0516 45.4082C72.0715 45.4788 72.1093 45.5432 72.1615 45.5952C72.2136 45.6471 72.2783 45.6849 72.3493 45.7049C73.6698 45.7531 74.992 45.7129 76.307 45.5846C77.0482 45.4767 77.7212 45.0954 78.1918 44.5166C78.6623 43.9378 78.8959 43.2041 78.8459 42.4619C78.928 41.7419 78.7208 41.0187 78.2693 40.4494C77.8178 39.88 77.1585 39.5105 76.4343 39.4208C74.9834 39.152 73.4962 39.1379 72.0403 39.3791H72.0383Z" fill="#05387A"/>
<path d="M204.435 53.891L204.405 54.4873H201.258C200.867 54.5018 200.475 54.4964 200.085 54.471C199.954 54.4578 199.84 54.2835 199.718 54.1815C199.826 54.0684 199.917 53.891 200.047 53.8553C200.335 53.778 200.632 53.7399 200.931 53.7421C201.328 53.7421 201.444 53.5627 201.432 53.1936C201.391 51.065 201.37 48.9363 201.329 46.8077C201.315 46.475 201.266 46.1446 201.183 45.8218C201.135 45.4876 201.013 45.1678 200.827 44.885C200.641 44.6022 200.396 44.3631 200.107 44.1845C199.818 44.0058 199.494 43.8919 199.156 43.8507C198.819 43.8095 198.476 43.8421 198.153 43.946C197.234 44.1678 196.334 44.4599 195.461 44.8197C195.319 44.8673 195.199 44.9627 195.12 45.0894C195.042 45.216 195.011 45.3659 195.033 45.5129C195.046 48.0691 195.046 50.6252 195.033 53.1814C195.033 53.5892 195.18 53.7401 195.584 53.7472C195.946 53.7722 196.306 53.8175 196.663 53.8828V54.4527H192.086L192.042 53.893C192.435 53.839 192.799 53.7656 193.165 53.7452C193.485 53.7278 193.623 53.6289 193.622 53.2833C193.612 48.6903 193.612 44.0969 193.622 39.5032C193.632 39.4448 193.629 39.3849 193.613 39.3278C193.597 39.2708 193.568 39.218 193.529 39.1736C193.489 39.1291 193.44 39.094 193.385 39.071C193.33 39.0479 193.271 39.0374 193.211 39.0403C192.877 39.0184 192.545 38.9686 192.22 38.8915C192.14 38.8566 192.07 38.8039 192.014 38.7376C191.959 38.6713 191.919 38.5931 191.899 38.5092C191.884 38.4123 192.077 38.1982 192.2 38.1778C192.971 38.0524 193.748 37.9546 194.525 37.872C194.956 37.8272 195.046 38.1004 195.039 38.4704C195.03 40.2117 195.039 41.953 195.039 43.6942V44.3885C195.319 44.2284 195.489 44.1336 195.655 44.0357C196.745 43.3144 198.01 42.8955 199.319 42.8225C201.524 42.8032 202.604 43.7085 202.723 45.9014C202.848 48.1727 202.826 50.4523 202.853 52.7318C202.866 53.6422 202.853 53.6422 203.765 53.791C203.965 53.8186 204.165 53.8492 204.435 53.891Z" fill="#05387A"/>
<path d="M117.869 44.4046C118.583 44.0068 119.325 43.6591 120.088 43.3637C120.948 43.0774 121.842 42.904 122.747 42.8479C123.084 42.8056 123.426 42.8314 123.752 42.9237C124.079 43.0161 124.383 43.1731 124.647 43.3853C124.911 43.5975 125.128 43.8605 125.287 44.1585C125.446 44.4564 125.543 44.7833 125.571 45.1192C125.712 45.827 125.789 46.5459 125.801 47.2673C125.832 49.2308 125.825 51.1953 125.801 53.1588C125.796 53.5982 125.935 53.7501 126.366 53.7521C126.732 53.7744 127.098 53.8186 127.459 53.8846L127.494 54.4963H124.953C124.356 54.4963 123.758 54.5116 123.162 54.481C123.034 54.4749 122.915 54.2955 122.792 54.1956C122.895 54.0804 123.002 53.9631 123.114 53.853C123.135 53.8326 123.186 53.8429 123.223 53.8378C124.389 53.6481 124.4 53.6471 124.386 52.4808C124.366 50.5367 124.331 48.5926 124.3 46.6484C124.3 46.5189 124.291 46.3895 124.274 46.261C123.991 44.3404 122.94 43.5737 121.025 44.0182C120.149 44.2553 119.297 44.5727 118.48 44.9663C118.372 45.036 118.282 45.1295 118.216 45.2395C118.151 45.3495 118.112 45.473 118.102 45.6004C118.076 48.1379 118.092 50.6774 118.079 53.2148C118.079 53.5829 118.168 53.7684 118.569 53.7582C118.792 53.7709 119.014 53.7981 119.234 53.8398C119.474 53.8653 119.795 53.852 119.685 54.2058C119.642 54.3454 119.344 54.4841 119.159 54.4892C118.19 54.5177 117.219 54.5024 116.248 54.5024H115.153L115.125 53.9091C115.422 53.8336 115.726 53.7871 116.032 53.7705C116.563 53.7929 116.627 53.5156 116.625 53.0813C116.613 50.4307 116.608 47.78 116.625 45.1294C116.625 44.6809 116.493 44.4413 116.049 44.3465C115.794 44.2905 115.548 44.1988 115.319 44.0743C115.264 44.0351 115.219 43.9847 115.186 43.9264C115.153 43.8681 115.133 43.8035 115.128 43.7368C115.14 43.6802 115.166 43.6274 115.203 43.5831C115.241 43.5388 115.289 43.5044 115.343 43.483C116.004 43.2954 116.669 43.119 117.339 42.9651C117.668 42.8897 117.885 43.0089 117.868 43.3984C117.862 43.7134 117.869 44.0447 117.869 44.4046Z" fill="#05387A"/>
<path d="M168.633 50.8657H169.352C169.45 51.4103 169.581 51.9488 169.742 52.4785C169.838 52.806 170.047 53.0898 170.332 53.2808C171.152 53.7286 172.066 53.9793 173.002 54.0128C173.937 54.0462 174.867 53.8615 175.718 53.4735C176.154 53.2741 176.53 52.9653 176.809 52.5776C177.088 52.1899 177.261 51.7366 177.31 51.2624C177.359 50.7883 177.283 50.3096 177.089 49.8736C176.895 49.4375 176.59 49.0591 176.204 48.7758C175.35 48.1537 174.447 47.6001 173.504 47.1202C172.445 46.5034 171.329 45.9722 170.322 45.2851C169.852 44.992 169.463 44.5887 169.187 44.1108C168.912 43.633 168.759 43.0951 168.743 42.5448C168.69 41.8732 168.84 41.2013 169.172 40.614C169.504 40.0268 170.004 39.5506 170.609 39.2458C171.657 38.7114 172.813 38.4197 173.991 38.3927C175.168 38.3657 176.337 38.604 177.409 39.0898C177.49 39.1382 177.559 39.2046 177.61 39.2838C177.661 39.363 177.694 39.4529 177.704 39.5465C177.737 40.1942 177.737 40.843 177.704 41.4906C177.697 41.6385 177.517 41.7771 177.418 41.9198C177.26 41.8056 177.047 41.7231 176.958 41.5702C176.831 41.3428 176.752 41.0919 176.727 40.8331C176.624 39.8136 175.942 39.4456 175.042 39.2927C174.053 39.0825 173.026 39.1371 172.065 39.4507C171.591 39.5861 171.164 39.8476 170.829 40.2069C170.494 40.5662 170.265 41.0095 170.165 41.489C170.066 41.9685 170.1 42.4658 170.265 42.9272C170.43 43.3885 170.719 43.7964 171.1 44.1066C172.099 44.779 173.139 45.3891 174.215 45.9335C175.15 46.4687 176.134 46.9316 177.016 47.5422C177.649 47.934 178.141 48.5128 178.425 49.1971C178.708 49.8815 178.769 50.6369 178.597 51.3571C178.449 52.1957 178.029 52.9633 177.401 53.5432C176.774 54.123 175.972 54.4834 175.119 54.5694C173.09 54.9072 171.007 54.7344 169.062 54.0668C168.926 54.0469 168.803 53.974 168.72 53.8641C168.638 53.7541 168.603 53.6162 168.623 53.4806C168.651 52.6304 168.633 51.7802 168.633 50.8657Z" fill="#05387A"/>
<path d="M91.8904 44.1371C91.6027 44.1103 91.3181 44.0567 91.0404 43.977C90.9597 43.9384 90.8885 43.8825 90.8321 43.8135C90.7757 43.7444 90.7353 43.6637 90.7139 43.5774C90.6975 43.4825 90.8925 43.2715 91.0219 43.242C91.6535 43.0851 92.2934 42.9632 92.9386 42.877C93.0762 42.8597 93.2908 43.0615 93.3842 43.2134C93.4591 43.3368 93.4088 43.5376 93.4088 43.7048C93.4088 46.7992 93.4088 49.8937 93.4088 52.9881V53.821H94.5936C94.8379 54.4673 94.6736 54.503 93.7373 54.6753C92.4109 54.919 92.2867 54.7895 92.0855 53.1257C91.8915 53.247 91.7272 53.3378 91.5722 53.4458C90.4027 54.3255 88.96 54.7709 87.4944 54.7049C87.1233 54.7322 86.7506 54.6811 86.4008 54.555C86.051 54.4289 85.7322 54.2306 85.4651 53.9732C85.1981 53.7159 84.989 53.4052 84.8516 53.0618C84.7142 52.7184 84.6517 52.35 84.6681 51.9809C84.5747 49.5576 84.5562 47.1302 84.5583 44.7049C84.5583 44.1554 84.3888 43.9474 83.8704 43.8893C83.7297 43.873 83.6127 43.661 83.4844 43.5396C83.6168 43.4173 83.7297 43.2256 83.8837 43.1859C84.3498 43.0625 84.8313 42.9993 85.3066 42.9106C85.8785 42.8026 85.9709 42.8668 85.9719 43.4428C85.9719 45.759 85.9719 48.0753 85.9791 50.3905C85.9801 50.8721 86.0175 51.3529 86.091 51.829C86.1041 52.0907 86.1694 52.3472 86.2832 52.5836C86.397 52.82 86.557 53.0316 86.7539 53.206C86.9508 53.3805 87.1806 53.5143 87.43 53.5998C87.6795 53.6852 87.9436 53.7206 88.2069 53.7038C89.5071 53.7407 90.774 53.2917 91.757 52.4457C91.8705 52.3314 91.9336 52.1771 91.9325 52.0165C91.9418 49.4597 91.9325 46.9029 91.9325 44.346C91.925 44.2752 91.911 44.2053 91.8904 44.1371Z" fill="#05387A"/>
<path d="M138.358 53.0873C138.68 53.6643 138.685 53.7194 138.068 54.0049C136.405 54.7924 134.519 54.9837 132.73 54.5462C131.688 54.2715 130.796 53.602 130.246 52.6816C128.944 50.6885 128.755 46.6392 130.891 44.431C131.511 43.7576 132.294 43.2526 133.166 42.9636C134.038 42.6746 134.969 42.6112 135.872 42.7795C136.548 42.8634 137.18 43.1556 137.68 43.615C138.18 44.0744 138.522 44.6778 138.659 45.3404C138.818 46.229 138.896 47.1302 138.893 48.0328C138.917 48.4589 138.702 48.618 138.241 48.6129C135.947 48.5874 133.652 48.6129 131.362 48.5915C130.857 48.5864 130.664 48.7556 130.761 49.2317C130.862 49.9433 131.022 50.6456 131.237 51.3318C131.579 52.2285 132.244 52.9671 133.104 53.404C133.963 53.8409 134.955 53.9449 135.888 53.6959C136.701 53.5481 137.501 53.2994 138.358 53.0873ZM130.854 47.7269C132.961 47.7269 135.028 47.7321 137.093 47.7117C137.196 47.7117 137.391 47.4823 137.387 47.366C137.391 46.7576 137.333 46.1503 137.213 45.5534C137.148 45.2101 137.012 44.8837 136.815 44.5942C136.617 44.3048 136.363 44.0584 136.066 43.8702C135.77 43.6821 135.437 43.5561 135.09 43.5C134.743 43.4439 134.387 43.4589 134.046 43.5441C133.093 43.7364 132.243 44.2673 131.655 45.0373C131.068 45.8073 130.783 46.7636 130.854 47.7269Z" fill="#05387A"/>
<path d="M206.309 48.7359C206.273 47.7567 206.477 46.7835 206.905 45.9004C207.332 45.0173 207.97 44.2508 208.762 43.6671C209.488 43.1105 210.353 42.7614 211.264 42.6576C212.175 42.5538 213.097 42.6991 213.93 43.0779C214.764 43.4567 215.478 44.0545 215.994 44.8068C216.511 45.5591 216.81 46.4373 216.86 47.3463C217.131 49.0589 216.798 50.8116 215.919 52.3091C215.372 53.2373 214.541 53.9673 213.546 54.392C212.551 54.8167 211.445 54.9139 210.391 54.6692C209.439 54.4903 208.566 54.0236 207.891 53.333C207.217 52.6425 206.774 51.7618 206.623 50.8115C206.455 50.1356 206.41 49.4281 206.309 48.7359ZM207.89 48.4687C207.871 49.7535 208.165 51.0237 208.747 52.1715C209.037 52.7375 209.489 53.2059 210.046 53.5182C210.603 53.8304 211.24 53.9727 211.878 53.927C212.53 53.9474 213.171 53.7566 213.705 53.3835C214.238 53.0104 214.635 52.4751 214.835 51.8585C215.141 50.9691 215.328 50.0437 215.391 49.1059C215.529 47.7698 215.269 46.4228 214.644 45.2319C214.368 44.7317 213.97 44.3085 213.486 44.0015C213.002 43.6944 212.448 43.5134 211.875 43.4751C211.303 43.4368 210.729 43.5425 210.208 43.7824C209.687 44.0222 209.235 44.3886 208.895 44.8476C208.187 45.9209 207.836 47.1871 207.89 48.4687Z" fill="#05387A"/>
<path d="M224.713 42.7106C225.748 42.6509 226.771 42.9506 227.608 43.5583C228.445 44.166 229.042 45.0438 229.299 46.0412C229.683 47.0884 229.82 48.2095 229.697 49.3175C229.575 50.4255 229.197 51.4906 228.594 52.4302C228.053 53.3203 227.242 54.017 226.277 54.4201C225.313 54.8231 224.244 54.9117 223.225 54.6731C222.296 54.5255 221.436 54.0973 220.76 53.4469C220.085 52.7964 219.628 51.9552 219.451 51.0376C219.002 49.5588 219.006 47.9808 219.462 46.504C219.792 45.3843 220.486 44.4047 221.436 43.7183C222.386 43.032 223.538 42.6776 224.713 42.7106ZM228.214 49.224C228.24 47.9499 228.012 46.6832 227.543 45.4968C227.267 44.8942 226.821 44.3842 226.259 44.0284C225.697 43.6726 225.043 43.4863 224.376 43.4923C223.71 43.4982 223.059 43.696 222.503 44.0618C221.948 44.4275 221.511 44.9455 221.246 45.5529C220.792 46.6121 220.582 47.7588 220.633 48.9089C220.684 50.059 220.994 51.1832 221.54 52.1988C221.825 52.769 222.277 53.2395 222.838 53.5478C223.399 53.8561 224.041 53.9876 224.679 53.9248C225.331 53.9378 225.97 53.7398 226.499 53.3606C227.029 52.9814 227.419 52.4416 227.612 51.8226C227.869 50.9706 228.069 50.1025 228.21 49.224H228.214Z" fill="#05387A"/>
<path d="M97.4264 51.7922C97.9849 51.5791 98.2261 51.8105 98.2384 52.2591C98.26 53.1022 98.8133 53.4458 99.5043 53.667C100.546 54.0491 101.691 54.0459 102.731 53.6578C103.077 53.5387 103.382 53.322 103.606 53.0341C103.831 52.7463 103.966 52.3998 103.996 52.0369C104.043 51.693 103.986 51.3429 103.83 51.0319C103.675 50.7209 103.43 50.4633 103.125 50.2925C102.529 49.9215 101.861 49.6656 101.238 49.3353C100.349 48.9146 99.4886 48.4354 98.6634 47.9009C98.3028 47.6561 98.0095 47.3256 97.8105 46.9394C97.6116 46.5532 97.5131 46.1237 97.5242 45.69C97.5354 45.2563 97.6557 44.8323 97.8742 44.4567C98.0928 44.0811 98.4026 43.7658 98.7754 43.5396C99.6363 43.0117 100.619 42.712 101.63 42.6694C102.641 42.6267 103.646 42.8424 104.549 43.2959C104.61 43.3298 104.662 43.3772 104.701 43.4343C104.741 43.4914 104.766 43.5567 104.776 43.6252C104.799 44.2145 104.786 44.8047 104.786 45.3838C104.288 45.5877 104.078 45.394 104.025 44.9638C103.994 44.5795 103.818 44.2211 103.53 43.962C103.243 43.7029 102.867 43.5628 102.478 43.5702C101.782 43.503 101.079 43.5373 100.392 43.6721C100.022 43.7483 99.6845 43.9385 99.4288 44.2157C99.1732 44.493 99.0121 44.8432 98.9684 45.2166C98.9108 45.5782 98.969 45.9487 99.1348 46.2758C99.3005 46.6028 99.5655 46.8699 99.8923 47.0394C100.385 47.3367 100.895 47.6052 101.42 47.8438C102.188 48.222 102.974 48.5625 103.73 48.9652C104.241 49.1819 104.673 49.5477 104.97 50.0139C105.266 50.4802 105.413 51.025 105.391 51.5761C105.404 52.176 105.224 52.7643 104.877 53.2557C104.53 53.7472 104.035 54.1162 103.463 54.3093C102.538 54.6626 101.55 54.8214 100.56 54.7754C99.5704 54.7294 98.6012 54.4797 97.7138 54.0422C97.6408 53.9987 97.5785 53.9395 97.5316 53.8689C97.4847 53.7983 97.4543 53.7181 97.4428 53.6344C97.4089 53.0227 97.4264 52.4131 97.4264 51.7922Z" fill="#05387A"/>
<path d="M149.129 45.3994C148.63 45.5717 148.418 45.3995 148.37 44.9805C148.267 44.0752 147.658 43.7143 146.837 43.5532C146.033 43.3609 145.188 43.4406 144.436 43.7795C144.137 43.8922 143.874 44.0826 143.674 44.3309C143.475 44.5792 143.346 44.8762 143.302 45.1908C143.258 45.5053 143.3 45.8258 143.424 46.1187C143.548 46.4115 143.749 46.666 144.005 46.8553C144.548 47.244 145.13 47.5751 145.742 47.8431C146.505 48.2305 147.296 48.5629 148.053 48.9594C148.573 49.1784 149.013 49.5509 149.312 50.0263C149.611 50.5018 149.756 51.0572 149.727 51.6172C149.731 52.2171 149.543 52.8028 149.191 53.2897C148.838 53.7766 148.338 54.1395 147.764 54.3259C146.845 54.6691 145.866 54.8219 144.885 54.7747C143.905 54.7276 142.945 54.4815 142.064 54.0517C141.994 54.0182 141.933 53.9697 141.884 53.9098C141.835 53.8498 141.801 53.7799 141.783 53.7051C141.755 53.0628 141.769 52.4185 141.769 51.8007C142.301 51.5968 142.564 51.7742 142.573 52.2493C142.59 53.1219 143.177 53.4635 143.884 53.6877C144.859 54.0297 145.92 54.0444 146.905 53.7296C147.287 53.6284 147.629 53.4135 147.885 53.1137C148.141 52.814 148.298 52.4436 148.336 52.0525C148.386 51.68 148.317 51.3013 148.138 50.97C147.959 50.6388 147.68 50.3719 147.34 50.2073C146.547 49.7638 145.687 49.4417 144.876 49.0227C144.208 48.6958 143.568 48.3149 142.963 47.8839C142.615 47.6378 142.333 47.311 142.142 46.9319C141.95 46.5527 141.855 46.1329 141.864 45.7088C141.873 45.2847 141.987 44.8693 142.195 44.4988C142.403 44.1282 142.698 43.8137 143.057 43.5828C143.917 43.0363 144.906 42.7222 145.925 42.6714C146.945 42.6206 147.961 42.835 148.872 43.2932C148.938 43.3334 148.994 43.3878 149.036 43.4527C149.078 43.5175 149.105 43.5909 149.114 43.6674C149.144 44.2383 149.129 44.8102 149.129 45.3994Z" fill="#05387A"/>
<path d="M160.001 45.3997C159.525 45.5649 159.293 45.414 159.258 45.0195C159.161 43.9368 158.369 43.582 157.486 43.5229C156.749 43.4578 156.008 43.5567 155.315 43.8124C155.008 43.9202 154.738 44.1108 154.534 44.363C154.331 44.6151 154.203 44.9185 154.164 45.2392C154.125 45.5599 154.177 45.8849 154.314 46.1777C154.452 46.4705 154.669 46.7194 154.941 46.8963C155.626 47.3412 156.347 47.7295 157.097 48.0575C157.759 48.396 158.447 48.6865 159.096 49.0484C159.564 49.2685 159.957 49.6186 160.229 50.0563C160.501 50.494 160.639 51.0005 160.626 51.5145C160.65 52.076 160.502 52.6314 160.202 53.1078C159.902 53.5842 159.464 53.9592 158.945 54.1835C157.987 54.6022 156.947 54.8053 155.901 54.7782C154.855 54.751 153.827 54.4943 152.893 54.0265C152.83 53.9957 152.776 53.9513 152.733 53.8966C152.691 53.8418 152.661 53.7782 152.647 53.7104C152.624 53.0672 152.636 52.4229 152.636 51.749H153.324C153.392 51.9175 153.439 52.0934 153.466 52.273C153.474 52.5992 153.596 52.9125 153.809 53.1607C154.022 53.4089 154.315 53.577 154.638 53.6371C155.725 54.0657 156.936 54.0632 158.021 53.6299C158.349 53.5127 158.638 53.3064 158.854 53.0345C159.07 52.7625 159.205 52.4358 159.243 52.0915C159.281 51.7472 159.222 51.3991 159.071 51.0868C158.92 50.7745 158.684 50.5105 158.389 50.3248C157.782 49.9667 157.155 49.6427 156.512 49.3543C155.575 48.9046 154.669 48.3938 153.8 47.8251C153.481 47.588 153.221 47.2814 153.041 46.9288C152.86 46.5762 152.763 46.1871 152.758 45.7915C152.752 45.3959 152.839 45.0044 153.01 44.6471C153.181 44.2898 153.432 43.9763 153.745 43.7309C154.412 43.2351 155.185 42.8985 156.003 42.7472C156.822 42.5958 157.665 42.6338 158.467 42.8582C160.045 43.164 160.05 43.2038 160.036 44.8033C160.034 45.0052 160.015 45.204 160.001 45.3997Z" fill="#05387A"/>
<path d="M237.211 53.8912V54.456H232.283C232.27 54.2745 232.258 54.1012 232.242 53.8943C232.614 53.8168 232.992 53.7698 233.371 53.7536C233.89 53.7709 233.993 53.5323 233.98 53.0807C233.955 52.1928 233.973 51.3038 233.973 50.4148C233.973 46.8599 233.963 43.305 233.984 39.7491C233.984 39.2261 233.819 39.0059 233.303 39.0069C233.098 39.017 232.893 38.9822 232.703 38.905C232.544 38.8285 232.434 38.6512 232.302 38.5176C232.428 38.3993 232.539 38.1995 232.682 38.175C233.415 38.0517 234.155 37.964 234.895 37.8814C235.248 37.8417 235.452 37.9834 235.444 38.384C235.43 39.0875 235.444 39.7909 235.444 40.4944C235.444 44.6976 235.451 48.8999 235.435 53.1031C235.435 53.5609 235.516 53.7852 236.037 53.7617C236.431 53.7733 236.824 53.8167 237.211 53.8912Z" fill="#05387A"/>
<path d="M189.507 53.045C189.853 53.6312 189.853 53.6781 189.272 53.985C187.683 54.827 184.337 55.2257 182.672 53.6078C181.784 52.7498 181.206 51.6238 181.03 50.4056C180.737 48.9629 180.884 47.4665 181.449 46.1065C181.971 44.9346 182.872 43.9696 184.01 43.3655C185.148 42.7613 186.456 42.5527 187.727 42.7728C189.931 43.1215 189.412 42.9706 189.46 44.9076C189.46 45.0564 189.269 45.345 189.201 45.3348C188.991 45.3103 188.798 45.208 188.659 45.0483C188.419 44.6956 188.335 44.0808 188.031 43.9605C187.38 43.6996 186.678 43.5891 185.978 43.6373C185.187 43.6927 184.435 43.9958 183.829 44.5029C183.223 45.01 182.794 45.695 182.605 46.4592C182.136 47.9388 182.175 49.5315 182.716 50.9867C183.026 51.9749 183.716 52.8018 184.636 53.2873C185.557 53.7729 186.633 53.8778 187.631 53.5792C188.263 53.4477 188.875 53.2275 189.507 53.045Z" fill="#05387A"/>
<path d="M112.917 53.8938V54.4555H108.111C108.098 54.2771 108.086 54.1038 108.07 53.8948C108.522 53.8418 108.943 53.7684 109.365 53.7511C109.673 53.7378 109.796 53.6287 109.795 53.3229C109.795 50.5081 109.795 47.6934 109.778 44.8786C109.758 44.7808 109.717 44.6883 109.658 44.6075C109.599 44.5267 109.523 44.4596 109.436 44.4107C109.165 44.2567 108.84 44.2007 108.555 44.0691C108.496 44.0405 108.444 43.9989 108.403 43.9475C108.362 43.8962 108.333 43.8364 108.319 43.7725C108.33 43.7096 108.358 43.6505 108.398 43.6007C108.438 43.5509 108.49 43.5118 108.55 43.487C109.229 43.2944 109.913 43.1149 110.603 42.961C111.116 42.8468 111.183 43.1649 111.182 43.5727C111.173 46.6311 111.182 49.6834 111.182 52.7397C111.182 53.6399 111.182 53.6399 112.059 53.7674L112.917 53.8938Z" fill="#05387A"/>
<path d="M111.329 38.7926C111.329 38.9444 111.298 39.0947 111.238 39.2343C111.178 39.374 111.09 39.5 110.979 39.6049C110.869 39.7097 110.738 39.7912 110.595 39.8443C110.451 39.8975 110.299 39.9212 110.146 39.914C110.012 39.9263 109.876 39.9084 109.75 39.8616C109.623 39.8148 109.509 39.7403 109.415 39.6437C109.322 39.547 109.251 39.4307 109.209 39.3033C109.167 39.1759 109.154 39.0407 109.172 38.9078C109.174 38.7559 109.208 38.6062 109.271 38.4679C109.334 38.3296 109.425 38.2058 109.539 38.1041C109.653 38.0025 109.786 37.9252 109.931 37.8772C110.076 37.8292 110.23 37.8115 110.382 37.8251C110.512 37.8114 110.644 37.8273 110.767 37.8715C110.89 37.9157 111.001 37.9871 111.092 38.0803C111.184 38.1734 111.252 38.286 111.293 38.4094C111.334 38.5328 111.346 38.6638 111.329 38.7926Z" fill="#05387A"/>
</svg>
