<svg width="161" height="56" viewBox="0 0 161 56" fill="none" xmlns="http://www.w3.org/2000/svg">
<g clip-path="url(#clip0_356_3967)">
<path d="M67.8641 33.4189H0.0195312V56.0204H67.8641V33.4189Z" fill="white"/>
<path d="M67.8641 2.57861H0.0195312V25.2002H67.8641V2.57861Z" fill="white"/>
<path d="M135.709 51.4276L135.407 51.488C134.359 51.6894 133.977 51.77 133.211 51.77C131.438 51.77 129.343 50.8635 129.343 46.593C129.343 44.3973 129.706 41.4765 133.01 41.4765H133.03C133.594 41.5168 134.238 41.5772 135.447 41.9398L135.709 42.0204V51.4276ZM136.253 30.1355L135.709 30.2362V38.1326L135.226 37.9916L135.084 37.9513C134.541 37.7902 133.292 37.4276 132.083 37.4276C125.476 37.4276 124.086 42.4232 124.086 46.6132C124.086 52.3542 127.309 55.6578 132.929 55.6578C135.306 55.6578 137.059 55.416 138.831 54.8319C140.463 54.3081 141.047 53.5628 141.047 51.9714V29.3096C139.476 29.5916 137.844 29.8736 136.253 30.1355Z" fill="white"/>
<path d="M155.349 51.5689L155.067 51.6495L154.06 51.9113C153.113 52.1531 152.267 52.2941 151.622 52.2941C150.071 52.2941 149.145 51.5286 149.145 50.2192C149.145 49.3732 149.527 47.943 152.066 47.943H155.349V51.5689ZM153.033 37.3271C150.998 37.3271 148.903 37.6897 146.304 38.4955L144.612 38.9991L145.176 42.8264L146.828 42.2826C148.561 41.7185 150.716 41.3559 152.327 41.3559C153.053 41.3559 155.268 41.3559 155.268 43.7531V44.8005H152.186C146.566 44.8005 143.968 46.5933 143.968 50.4408C143.968 53.7243 146.365 55.6984 150.394 55.6984C151.643 55.6984 153.375 55.4566 154.866 55.0941L154.946 55.0739L155.027 55.0941L155.53 55.1746C157.102 55.4567 158.733 55.7387 160.325 56.0408V43.471C160.325 39.402 157.867 37.3271 153.033 37.3271Z" fill="white"/>
<path d="M116.209 51.5689L115.927 51.6495L114.92 51.9113C113.973 52.1531 113.148 52.2941 112.483 52.2941C110.932 52.2941 110.005 51.5286 110.005 50.2192C110.005 49.3732 110.388 47.943 112.906 47.943H116.189V51.5689H116.209ZM113.913 37.3271C111.858 37.3271 109.784 37.6897 107.185 38.4955L105.493 38.9991L106.057 42.8264L107.709 42.2826C109.441 41.7185 111.596 41.3559 113.208 41.3559C113.933 41.3559 116.149 41.3559 116.149 43.7531V44.8005H113.067C107.447 44.8005 104.828 46.5933 104.828 50.4408C104.828 53.7243 107.225 55.6984 111.274 55.6984C112.523 55.6984 114.255 55.4566 115.746 55.0941L115.827 55.0739L115.907 55.0941L116.391 55.1746C117.982 55.4567 119.594 55.7387 121.185 56.061V43.4912C121.205 39.3818 118.748 37.3271 113.913 37.3271Z" fill="white"/>
<path d="M94.998 37.3668C92.4397 37.3668 90.3246 38.2129 89.539 38.5755L89.3376 38.6762L89.1563 38.5352C88.0685 37.7496 86.4771 37.3467 84.2613 37.3467C82.3073 37.3467 80.4743 37.6287 78.48 38.2129C76.7678 38.7366 76.103 39.5625 76.103 41.1136V55.4762H81.4613V42.2014L81.7232 42.1208C82.8109 41.7582 83.4556 41.6978 84.08 41.6978C85.6311 41.6978 86.4167 42.5236 86.4167 44.1352V55.4963H91.6944V43.9136C91.6944 43.2287 91.5534 42.8258 91.5332 42.7452L91.352 42.4028L91.7145 42.2416C92.5203 41.8791 93.4066 41.6978 94.3332 41.6978C95.4009 41.6978 96.6699 42.1208 96.6699 44.1352V55.4963H101.927V43.6114C101.927 39.4014 99.6714 37.3668 94.998 37.3668Z" fill="white"/>
<path d="M151.402 17.3239C150.616 17.3239 149.307 17.2434 148.279 17.0419L147.977 16.9815V9.2261C147.977 8.58149 147.856 8.17861 147.836 8.11818L147.675 7.79588L148.017 7.65487C148.098 7.61459 148.179 7.59444 148.279 7.55416L148.34 7.51387C148.461 7.47358 148.581 7.43329 148.702 7.39301C148.763 7.37286 148.803 7.35272 148.843 7.35272C150.032 7.03041 151.12 7.0707 151.603 7.03041H151.623C154.907 7.03041 155.289 9.95128 155.289 12.147C155.269 16.4175 153.154 17.3239 151.402 17.3239ZM151.381 2.57861C151.341 2.57861 151.281 2.57861 151.24 2.57861C148.158 2.57861 144.996 3.42466 143.868 5.07646C143.263 5.88222 142.921 6.88941 142.901 8.0779V16.075C142.901 16.7599 142.76 17.0218 142.74 17.0822L142.558 17.4247H132.829V11.8649H132.809C132.688 6.00308 129.223 2.78005 124.207 2.78005H123.623H119.312C119.111 4.21027 118.95 5.21746 118.748 6.64768H123.623C126.181 6.64768 127.531 8.82322 127.531 12.1671V17.7671L127.189 17.5858C127.128 17.5657 126.705 17.4247 126.04 17.4247H117.62C117.459 18.4923 117.258 19.8822 117.036 21.2721H142.921C143.807 21.0908 144.835 20.9297 145.721 20.7887C147.03 21.4333 149.468 21.7757 151.14 21.7757C156.76 21.7757 160.406 18.0088 160.406 12.2074C160.386 6.46639 156.861 2.69948 151.381 2.57861Z" fill="white"/>
<path d="M105.997 23.6291H106.238C111.858 23.6291 114.477 21.7758 114.477 17.2032C114.477 13.9197 112.08 11.301 108.051 11.301H102.874C101.323 11.301 100.397 10.4147 100.397 8.92403C100.397 7.91684 100.779 6.66792 103.317 6.66792H114.638C114.88 5.19742 115.001 4.2708 115.222 2.80029H103.458C97.9793 2.80029 95.2196 5.09669 95.2196 8.92403C95.2196 12.7111 97.6167 14.6852 101.645 14.6852H106.822C108.374 14.6852 109.3 15.914 109.3 17.2032C109.3 18.0492 108.917 19.8017 106.399 19.8017H105.533L88.9548 19.7614H85.9332C83.375 19.7614 81.5822 18.3111 81.5822 14.9471V12.6305C81.5822 9.12548 82.9721 6.94993 85.9332 6.94993H90.8484C91.0699 5.45929 91.2109 4.51252 91.4124 3.10245H85.2886H84.7045C79.6886 3.10245 76.2239 6.46648 76.103 12.3284V12.5499V14.9471C76.2239 20.8089 79.6886 23.6089 84.7045 23.6089H85.2886H89.5994L98.5836 23.6291H103.942H105.997Z" fill="white"/>
</g>
<defs>
<clipPath id="clip0_356_3967">
<rect width="160.345" height="56" fill="white"/>
</clipPath>
</defs>
</svg>
