<svg width="133" height="56" viewBox="0 0 133 56" fill="none" xmlns="http://www.w3.org/2000/svg">
<path d="M51.6761 2.70459V37.7355C51.6761 38.3572 51.6761 38.9789 51.6761 39.5632C51.7934 43.0621 53.5112 44.8126 57.0643 44.8501C60.5376 44.8898 63.9734 44.8501 67.4091 44.8501C68.9321 44.8501 70.4153 44.8501 71.9384 44.8501C72.9921 44.8501 73.1095 44.6561 72.5627 43.7235C71.002 41.0029 69.9859 38.086 69.946 34.898C69.9062 28.4447 71.9362 22.9241 77.714 19.3855C80.7579 17.5203 84.156 17.2866 87.6293 17.5203C92.9002 17.8709 96.6083 20.5915 99.2625 24.9084C100.511 26.9301 101.02 29.223 101.37 31.5181C102.034 35.6013 101.213 39.4485 99.34 43.104C99.1053 43.5714 98.833 44.0366 98.4811 44.6583C98.8707 44.7355 99.3002 44.8148 99.692 44.8148C104.533 44.8148 109.373 44.8545 114.214 44.8148C115.15 44.7752 116.127 44.6208 117.026 44.2703C118.743 43.686 119.328 42.2089 119.642 40.6545C119.799 39.7219 119.877 38.7496 119.837 37.817C119.837 33.6567 119.877 29.5361 119.837 25.3758C119.837 24.3263 120.149 23.7421 121.165 23.2769C123.665 22.0709 126.084 20.7106 128.544 19.4274C128.816 19.2709 129.13 19.1562 129.557 18.96C129.597 19.3877 129.597 19.6986 129.597 19.9698C129.597 26.6567 129.675 33.3437 129.557 40.0306C129.48 44.1512 128.152 47.8463 124.951 50.6838C122.726 52.6284 120.149 53.8718 117.183 53.949C109.804 54.1055 102.466 54.143 95.0874 54.143C92.0812 54.143 89.0749 53.7153 86.0686 53.6756C84.3109 53.6359 82.5953 53.9468 80.8376 54.0636C80.4081 54.1033 79.9787 54.1408 79.5492 54.1408C71.9362 54.1408 64.3253 54.1805 56.7123 54.1408C53.6286 54.1408 50.6622 53.5962 48.0079 51.8082C44.5722 49.5153 42.737 46.3273 42.2301 42.2838C42.0729 40.9235 41.9954 39.5235 42.0352 38.1632C42.0352 28.3654 42.0352 18.5676 42.0352 8.80947C42.0352 8.34207 42.2301 7.68286 42.5422 7.48664C45.4688 5.9301 48.475 4.41325 51.6761 2.70459ZM79.3146 33.2621C79.6267 38.161 81.3047 41.5827 85.1699 43.6816C85.5219 43.8381 85.9115 43.8381 86.2236 43.6816C87.3947 42.8262 88.7229 42.0104 89.6195 40.9213C92.2361 37.6936 93.0928 34.0778 91.4547 30.1137C90.7131 28.0523 88.838 26.6545 86.6531 26.4583C83.959 26.1871 81.5393 26.8088 80.3284 29.5295C79.744 30.8898 79.5492 32.4066 79.3146 33.2621Z" fill="white"/>
<path d="M2.87891 54.1812C3.58066 52.7812 4.24478 51.498 4.86906 50.2546C5.61066 48.8546 6.35226 47.4545 7.05622 46.0171C7.32851 45.2785 8.07011 44.8508 8.85156 44.9279C12.5596 44.9676 16.3074 44.9676 20.0553 44.9279C23.0992 44.9279 24.6222 43.4508 24.7395 40.4568C24.9742 35.0133 22.787 30.7361 18.4547 27.5106C17.7906 27.0057 17.0889 26.578 16.3074 25.9938L19.5085 20.5128C19.8981 19.8139 20.3276 19.1525 20.7194 18.4514C20.9917 17.984 21.306 17.984 21.6957 18.2574C24.4274 20.0454 27.0042 22.0297 29.1139 24.5563C32.0803 28.0949 33.8756 32.4095 34.3051 36.9975C34.6172 39.8747 34.4999 42.7519 33.9155 45.5894C33.0964 49.322 31.0266 52.1594 27.2787 53.4051C25.7556 53.8725 24.1551 54.1437 22.5546 54.1437C16.1923 54.2209 9.79019 54.1834 3.4257 54.1834C3.30837 54.2186 3.19104 54.2186 2.87891 54.1812Z" fill="white"/>
<path d="M124.951 0.0214844C128.112 0.0214844 129.947 1.92637 129.947 5.1144C129.947 8.45897 128.229 10.2073 124.951 10.2073C121.827 10.2073 119.72 8.22527 119.837 4.99755C119.955 1.8492 121.75 0.0214844 124.951 0.0214844Z" fill="white"/>
<path d="M16.0733 4.99755C16.0733 1.92637 18.0258 0.0214844 21.187 0.0214844C24.3482 0.0214844 26.1458 1.88668 26.1458 5.1144C26.1458 8.57361 24.4279 10.1301 21.187 10.1676C17.9483 10.2073 16.0357 8.26275 16.0733 4.99755Z" fill="white"/>
<path d="M90.8309 6.28132C90.7535 6.94273 90.6738 7.60416 90.5188 8.26337C90.0894 9.66337 89.1906 10.7128 87.6697 10.984C85.5999 11.372 83.4924 11.4889 81.9317 9.74053C80.371 7.98998 80.3312 5.81392 81.1503 3.79219C81.852 2.00416 83.4526 1.07156 85.4051 1.1862C86.5363 1.1862 87.6299 1.45738 88.646 1.92479C90.3638 2.78242 90.8708 4.41392 90.8309 6.28132Z" fill="white"/>
</svg>
