<svg width="181" height="59" viewBox="0 0 181 59" fill="none" xmlns="http://www.w3.org/2000/svg">
<g clip-path="url(#clip0_7634_42166)">
<path d="M139.456 24.7654H138.988C138.521 24.7959 138.052 24.7959 137.584 24.7654C137.126 24.6558 136.692 24.4601 136.306 24.1885C135.806 23.8419 135.402 23.3741 135.131 22.8287C134.861 22.2834 134.732 21.6782 134.758 21.0697C134.752 20.5663 134.852 20.0671 135.05 19.6045C135.249 19.1419 135.542 18.726 135.91 18.3836C136.767 17.6743 137.861 17.3196 138.97 17.3921H141.184V19.0687H139.51C138.963 19.0576 138.415 19.0878 137.872 19.1588C137.557 19.2529 137.272 19.4267 137.044 19.6636C136.844 19.8441 136.686 20.0674 136.583 20.317C136.481 20.5666 136.435 20.8362 136.45 21.1058C136.417 21.4355 136.474 21.7682 136.617 22.0671C136.76 22.3661 136.983 22.6198 137.26 22.8004C137.52 22.9848 137.825 23.0968 138.142 23.1249H141.184V24.3868C141.216 25.4744 140.942 26.5491 140.392 27.4876C139.959 28.1899 139.335 28.753 138.592 29.1101C137.835 29.519 136.987 29.7298 136.126 29.723C135.454 29.7381 134.785 29.611 134.165 29.3501C133.545 29.0891 132.987 28.7002 132.526 28.2087C132.069 27.7331 131.724 27.1599 131.518 26.5321C131.352 25.7443 131.31 24.9354 131.393 24.1344V21.917H133.048V23.9722C133.005 24.9272 133.242 25.8739 133.732 26.6943C133.991 27.1429 134.364 27.5145 134.813 27.7711C135.262 28.0276 135.771 28.16 136.288 28.1546C136.82 28.1592 137.344 28.0274 137.81 27.7718C138.276 27.5162 138.669 27.1452 138.952 26.6943C139.285 26.1064 139.459 25.4414 139.456 24.7654ZM138.16 31.1832C137.547 31.4166 136.885 31.4895 136.236 31.3948C135.587 31.3002 134.973 31.0412 134.452 30.6424L134.2 30.4261C134.032 30.3215 133.905 30.1624 133.84 29.9754C133.84 29.9754 134.164 29.9754 134.65 30.1917C135.524 30.4697 136.457 30.507 137.35 30.2999C138.322 29.7771 138.898 29.5968 139.15 29.759C139.187 29.8748 139.195 29.9979 139.173 30.1174C139.151 30.2369 139.1 30.3491 139.024 30.4441L138.934 30.5523C138.731 30.8227 138.466 31.0393 138.16 31.1832Z" fill="#49B4AC"/>
<path d="M148.542 17.2891H146.364H145.626H145.41H145.104H144.978C144.164 17.4603 143.439 17.9184 142.934 18.58C142.428 19.2417 142.177 20.0629 142.225 20.8946C142.197 21.5014 142.322 22.1055 142.59 22.6508C142.857 23.196 143.258 23.6647 143.754 24.0134C144.013 24.1998 144.298 24.3457 144.6 24.446C144.75 24.5161 144.907 24.5704 145.068 24.6083C145.554 24.6402 146.041 24.6402 146.526 24.6083H146.94C146.999 24.8994 147.036 25.1948 147.048 25.4916C147.046 26.2193 146.884 26.9376 146.573 27.5952C146.262 28.2528 145.81 28.8334 145.248 29.2955H145.428C146.388 29.0177 147.225 28.419 147.798 27.599C148.371 26.779 148.646 25.7872 148.578 24.7886V17.2891H148.542ZM145.932 22.9678C144.636 22.8596 143.988 22.2286 143.988 21.0749V20.9667C143.994 20.7213 144.036 20.4782 144.114 20.2456C144.251 19.879 144.512 19.5725 144.852 19.3803L145.032 19.2721C145.201 19.1926 145.375 19.1263 145.554 19.0738C145.811 19.0446 146.071 19.0446 146.328 19.0738H146.958V23.0399L145.932 22.9678Z" fill="#49B4AC"/>
<path d="M149.719 13.7344H151.375V24.7673H149.719V13.7344Z" fill="#49B4AC"/>
<path d="M152.453 23.0719H155.459C155.986 23.1093 156.511 22.9902 156.971 22.7294C157.236 22.5358 157.45 22.2803 157.595 21.9849C157.739 21.6896 157.809 21.3635 157.799 21.0348C157.814 20.7608 157.767 20.4869 157.661 20.2338C157.555 19.9807 157.393 19.7553 157.187 19.5746C156.751 19.1872 156.185 18.9809 155.603 18.9977H153.551V17.3211H155.351C156.454 17.2514 157.542 17.6061 158.393 18.3126C158.758 18.6566 159.048 19.0732 159.243 19.5357C159.438 19.9983 159.535 20.4966 159.527 20.9988C159.557 21.604 159.434 22.207 159.17 22.7521C158.905 23.2972 158.508 23.7668 158.015 24.1175C157.62 24.4082 157.165 24.6055 156.683 24.6944C156.209 24.7261 155.734 24.7261 155.261 24.6944H152.453V23.0719Z" fill="#49B4AC"/>
<path d="M166.651 17.2891H164.473H163.735H163.519H163.213C163.213 17.2891 163.213 17.2891 163.105 17.2891C162.426 17.474 161.813 17.8466 161.336 18.3644C160.859 18.8821 160.537 19.5239 160.408 20.2163C160.278 20.9087 160.346 21.6236 160.603 22.2793C160.861 22.9349 161.297 23.5046 161.863 23.9232C162.121 24.1097 162.406 24.2556 162.709 24.3559C162.859 24.4259 163.016 24.4803 163.177 24.5181C163.662 24.5494 164.149 24.5494 164.635 24.5181H165.049C165.108 24.8093 165.144 25.1047 165.157 25.4015C165.155 26.1292 164.993 26.8475 164.681 27.5051C164.37 28.1626 163.918 28.7432 163.357 29.2053H163.537C164.497 28.9276 165.333 28.3288 165.906 27.5089C166.479 26.6889 166.755 25.697 166.687 24.6984V17.2891H166.651ZM164.041 22.9678C162.745 22.8596 162.097 22.2286 162.097 21.0749V20.9667C162.102 20.7213 162.145 20.4782 162.223 20.2456C162.359 19.879 162.621 19.5725 162.961 19.3803L163.141 19.2721C163.309 19.1926 163.484 19.1263 163.663 19.0738C163.92 19.0446 164.18 19.0446 164.437 19.0738H165.067V23.0399L164.041 22.9678Z" fill="#49B4AC"/>
<path d="M167.82 13.7344H169.476V24.7673H167.82V13.7344Z" fill="#49B4AC"/>
<path d="M99.391 19.0551C97.7108 19.0157 96.065 19.5356 94.7113 20.5333C94.0574 20.9309 93.4886 21.4542 93.0375 22.073C92.5865 22.6918 92.2623 23.3939 92.0835 24.1389C92.0835 24.4634 92.2275 24.6436 92.4975 24.6436C92.8184 24.605 93.1231 24.4804 93.3794 24.2831C94.175 23.8312 95.0746 23.595 95.9892 23.598C97.8791 23.598 99.589 24.6977 99.589 28.3393C99.589 35.0997 96.2052 42.8696 91.7055 42.8696C89.3117 42.8696 87.4758 40.4719 87.4758 34.9554C87.4758 23.7783 92.5335 17.5227 98.4551 17.5227C99.589 17.5227 100.255 17.6129 100.651 17.6129C101.047 17.6129 101.245 17.4326 101.245 17.1622C101.245 16.4591 99.967 15.8281 97.0692 15.8281C89.8697 15.8281 79.4844 21.6691 79.4844 35.6585C79.4844 43.14 84.0381 46.8717 89.9956 46.8717C98.4551 46.8717 105.421 36.4337 105.421 26.4103C105.349 21.3987 102.829 19.0551 99.391 19.0551Z" fill="#3E5399"/>
<path d="M165.692 31.8908C165.337 31.8657 164.979 31.9151 164.644 32.0357C164.308 32.1562 164.001 32.3454 163.742 32.5912C163.483 32.837 163.278 33.1341 163.139 33.4635C163.001 33.7929 162.933 34.1475 162.939 34.5048C162.939 36.1273 164.307 36.3075 164.307 37.6416C164.307 40.1294 162.705 43.0499 160.707 43.0499C160.482 43.0647 160.257 43.0299 160.048 42.9477C159.839 42.8656 159.65 42.7383 159.495 42.5747C159.34 42.4112 159.224 42.2155 159.153 42.0016C159.083 41.7877 159.06 41.5609 159.087 41.3372C159.087 38.543 160.563 35.1898 160.563 33.1527C160.563 32.3775 160.005 31.9629 158.997 31.9629C156.333 31.9629 153.903 32.6479 153.903 33.6575C153.903 34.2704 154.227 34.3605 154.227 35.1357C154.199 37.1047 153.777 39.048 152.985 40.8505C152.776 41.4207 152.413 41.9214 151.936 42.297C151.459 42.6726 150.888 42.9083 150.286 42.9778C149.404 42.9778 148.954 42.1845 148.954 41.2651C148.954 38.3266 150.52 35.1177 150.52 33.0806C150.52 32.3054 149.962 31.8908 148.954 31.8908C146.29 31.8908 143.86 32.5758 143.86 33.5854C143.86 34.1983 144.13 34.2884 144.13 35.0636C144.13 36.8664 142.96 39.1198 142.672 41.6978L142.582 41.7879C141.988 42.3828 141.61 42.7434 140.782 42.7434C140.552 42.7305 140.327 42.6702 140.122 42.5662C139.916 42.4622 139.734 42.3168 139.587 42.1391C139.44 41.9614 139.331 41.7553 139.267 41.5335C139.204 41.3118 139.186 41.0793 139.216 40.8505C139.216 37.245 140.836 33.6394 140.836 32.5758C140.849 32.4813 140.839 32.3853 140.808 32.2952C140.776 32.2052 140.725 32.1237 140.656 32.0572C140.588 31.9907 140.506 31.9411 140.415 31.9122C140.324 31.8833 140.228 31.8759 140.134 31.8908C139.09 31.8908 137.11 32.7741 136.337 32.7741C135.101 32.2767 133.795 31.9786 132.467 31.8908C131.233 31.8044 129.996 31.982 128.836 32.4117C127.677 32.8414 126.622 33.5135 125.741 34.3832C124.861 35.2529 124.176 36.3003 123.731 37.4558C123.286 38.6113 123.092 39.8484 123.161 41.0849C123.161 41.3012 123.161 41.4995 123.161 41.6978V41.7879C122.567 42.3828 122.207 42.7434 121.362 42.7434C121.133 42.7281 120.91 42.6661 120.707 42.561C120.503 42.456 120.323 42.3103 120.178 42.1329C120.033 41.9555 119.926 41.7501 119.863 41.5295C119.8 41.309 119.784 41.0778 119.814 40.8505C119.814 35.298 123.665 27.3478 123.665 23.2555C123.694 22.7476 123.61 22.2397 123.42 21.7682C123.229 21.2967 122.936 20.8733 122.563 20.5285C122.19 20.1838 121.744 19.9262 121.26 19.7743C120.775 19.6224 120.263 19.5799 119.76 19.65C117.15 19.65 114.72 21.1643 114.72 22.1198C114.72 22.4984 114.954 22.6786 115.404 22.6786C116.358 22.6786 117.204 23.4178 117.204 24.9321C117.076 27.5488 116.629 30.14 115.872 32.6479C114.835 32.1227 113.686 31.8567 112.524 31.8727C111.335 31.8733 110.158 32.1168 109.066 32.5884C107.974 33.0599 106.989 33.7495 106.172 34.6151C105.355 35.4807 104.723 36.504 104.314 37.6226C103.905 38.7412 103.729 39.9316 103.795 41.1209C103.795 44.5281 105.595 46.5292 108.762 46.5292C110.87 46.4512 112.883 45.6345 114.45 44.2217C114.725 44.941 115.223 45.5532 115.871 45.9684C116.519 46.3837 117.282 46.5802 118.05 46.5292C119.146 46.5002 120.222 46.23 121.201 45.7377C122.181 45.2455 123.041 44.5432 123.719 43.6808C124.077 44.5531 124.693 45.2942 125.485 45.8037C126.277 46.3132 127.206 46.5665 128.147 46.5292C130.304 46.4327 132.355 45.5625 133.925 44.0774C134.188 44.8156 134.678 45.451 135.325 45.8917C135.972 46.3324 136.742 46.5557 137.524 46.5292C138.549 46.5121 139.559 46.2802 140.489 45.8487C141.419 45.4171 142.248 44.7953 142.924 44.0234C143.223 44.8186 143.774 45.4939 144.492 45.9463C145.21 46.3988 146.057 46.6035 146.902 46.5292C148.204 46.5087 149.49 46.2251 150.68 45.6954C151.871 45.1657 152.943 44.4008 153.831 43.4465C154.358 44.411 155.141 45.2101 156.095 45.7544C157.048 46.2988 158.134 46.567 159.231 46.5292C165.207 46.5292 168.644 39.6787 168.644 35.298C168.536 33.0806 167.528 31.8908 165.692 31.8908ZM113.64 41.2651C113.046 42.7073 112.128 43.4825 111.264 43.4825C110.4 43.4825 109.788 42.7434 109.788 41.5896C109.788 39.0658 110.85 33.9099 113.388 33.9099C114.342 33.9099 114.846 34.4146 114.846 35.2439C114.768 37.3026 114.361 39.3354 113.64 41.2651ZM133.115 41.2651C132.503 42.6533 131.585 43.4284 130.721 43.4284C129.857 43.4284 129.155 42.473 129.155 41.2651C129.155 38.7413 130.307 33.9099 132.917 33.9099C133.101 33.8807 133.289 33.8947 133.466 33.9506C133.644 34.0065 133.806 34.1028 133.941 34.232C134.075 34.3612 134.177 34.5198 134.24 34.6954C134.303 34.871 134.324 35.0587 134.303 35.2439C134.252 37.2975 133.875 39.33 133.187 41.2651H133.115Z" fill="#3E5399"/>
<path d="M179.449 41.3191C179.179 41.3191 178.999 41.4633 178.675 41.7878C178.081 42.3827 177.721 42.7433 176.875 42.7433C176.029 42.7433 175.363 42.0582 175.363 40.8504C175.363 37.8217 176.839 34.9193 176.839 33.0804C176.839 32.3053 176.281 31.8906 175.273 31.8906C172.609 31.8906 170.179 32.5757 170.179 33.5852C170.179 34.1982 170.449 34.2883 170.449 35.0635C170.449 36.722 168.938 39.7146 168.938 42.6531C168.938 44.7624 170.449 46.475 173.473 46.475C174.613 46.4466 175.731 46.1572 176.742 45.6291C177.753 45.1011 178.629 44.3482 179.305 43.4283C179.773 42.8334 180.043 42.4728 180.043 41.9681C180.043 41.8049 179.982 41.6475 179.872 41.5273C179.762 41.407 179.611 41.3327 179.449 41.3191Z" fill="#3E5399"/>
<path d="M174.267 29.4531C175.196 29.3284 176.05 28.8743 176.674 28.1732C177.298 27.4721 177.651 26.5704 177.669 25.6313C177.68 25.2961 177.62 24.9622 177.493 24.652C177.366 24.3417 177.174 24.0621 176.931 23.8319C176.687 23.6016 176.398 23.4259 176.081 23.3166C175.764 23.2072 175.428 23.1666 175.095 23.1976C174.159 23.3122 173.298 23.7663 172.675 24.474C172.051 25.1816 171.708 26.0936 171.711 27.0374C171.734 27.6958 172.016 28.3183 172.494 28.7704C172.972 29.2225 173.609 29.4678 174.267 29.4531Z" fill="#3E5399"/>
<path fill-rule="evenodd" clip-rule="evenodd" d="M34.4531 18.438C39.0788 15.3012 46.3683 17.807 49.4641 20.0604C50.3489 20.3544 51.1278 20.9025 51.7038 21.6366C52.2799 22.3707 52.6277 23.2582 52.7039 24.1888C52.9018 13.1559 41.1307 7.4411 34.4531 18.438Z" fill="url(#paint0_linear_7634_42166)"/>
<path fill-rule="evenodd" clip-rule="evenodd" d="M51.8174 29.688C50.4526 32.7066 48.5077 35.4264 46.0938 37.6923C52.3933 34.5014 58.9269 26.6594 60.1328 20.0072C60.3711 18.3202 60.2263 16.601 59.7089 14.9779C59.1916 13.3547 58.3152 11.8695 57.145 10.6328C57.6552 12.1384 57.8389 13.7357 57.6837 15.3181C57.5285 16.9005 57.038 18.4315 56.245 19.8089C54.9851 22.6933 53.3832 26.8757 51.8174 29.688Z" fill="url(#paint1_linear_7634_42166)"/>
<path fill-rule="evenodd" clip-rule="evenodd" d="M22.4062 40.5078C28.6698 48.5842 39.811 56.1738 48.1265 46.6012C44.7967 47.827 42.7268 48.8366 38.9111 47.7549C35.9106 47.0445 32.9777 46.0734 30.1457 44.8525C27.1639 44.2828 24.4477 42.758 22.4062 40.5078Z" fill="url(#paint2_linear_7634_42166)"/>
<path fill-rule="evenodd" clip-rule="evenodd" d="M5.29769 36.1836C4.03778 29.5314 5.92765 21.1305 11.4713 17.543C14.102 16.2989 17.0685 15.9568 19.9127 16.5695C20.4296 16.5014 20.9548 16.5367 21.458 16.6733C21.9612 16.8099 22.4324 17.0452 22.8442 17.3654C23.256 17.6857 23.6002 18.0846 23.8571 18.539C24.1139 18.9934 24.2782 19.4944 24.3404 20.0128C25.3303 10.999 14.567 11.4677 9.77938 13.8834C2.68787 17.489 0.887998 28.612 5.29769 36.1836Z" fill="url(#paint3_linear_7634_42166)"/>
<path fill-rule="evenodd" clip-rule="evenodd" d="M24.3543 20.1536C24.4846 21.0027 24.3866 21.8713 24.0702 22.6699C23.7538 23.4684 23.2306 24.168 22.5544 24.6966C31.6978 22.5333 33.2637 10.9956 27.72 4.50563C22.6804 -1.29927 13.753 -1.08294 7.72343 2.81103C0.595928 7.39005 -1.14995 16.3498 0.667924 24.8408C1.61423 28.8377 3.17473 32.6631 5.2936 36.1802C1.29788 29.0593 3.60172 18.6573 10.6932 15.0878C15.5349 12.6181 23.4003 13.862 24.3543 20.1536Z" fill="url(#paint4_linear_7634_42166)"/>
<path fill-rule="evenodd" clip-rule="evenodd" d="M48.126 46.5991C40.4225 55.4868 29.0473 47.1039 22.4058 40.5058C17.7441 35.8547 12.7584 26.2099 15.9442 19.5938C10.1486 28.4273 19.058 55.3786 29.0653 58.0647C31.7966 58.5624 34.6147 58.0018 36.9488 56.4963C41.1964 53.8405 44.9736 50.4958 48.126 46.5991Z" fill="url(#paint5_linear_7634_42166)"/>
<path fill-rule="evenodd" clip-rule="evenodd" d="M57.1425 10.6328C58.1682 11.7388 58.9092 13.0787 59.3012 14.5363C59.6933 15.9939 59.7245 17.5252 59.3924 18.9976C57.8265 27.5247 47.7832 36.9171 41.9156 41.0635C37.8838 43.9479 34.0321 45.4442 30.2344 44.8493C32.5618 46.8248 35.2181 48.3747 38.0818 49.4283C39.8649 49.969 41.7648 49.99 43.5593 49.4888C45.3538 48.9875 46.9688 47.9848 48.2151 46.5979C54.4967 39.2787 60.0943 29.7782 61.1382 22.6212C61.512 20.4478 61.3427 18.2156 60.6454 16.1238C59.9482 14.0319 58.7448 12.1455 57.1425 10.6328Z" fill="url(#paint6_linear_7634_42166)"/>
<path fill-rule="evenodd" clip-rule="evenodd" d="M29.0748 58.063C19.3195 55.1605 11.4 27.7044 16.2057 19.2314C16.5704 18.5488 17.083 17.9566 17.7059 17.4981C18.3287 17.0395 19.0461 16.7263 19.8054 16.5814C18.2389 16.4048 16.6602 16.7845 15.3445 17.6542C14.0289 18.5239 13.0597 19.8286 12.6059 21.3407C10.806 26.154 11.22 33.0947 12.6059 37.854C15.3777 47.3005 23.1532 56.8731 29.0928 58.1351L29.0748 58.063Z" fill="url(#paint7_linear_7634_42166)"/>
<path fill-rule="evenodd" clip-rule="evenodd" d="M29.0693 58.0648C23.1297 56.8028 17.1721 47.086 14.4183 37.6215C13.0504 32.9343 12.0245 26.8049 13.9864 21.9915C14.4106 20.6476 15.1816 19.4398 16.2214 18.4902C17.2612 17.5405 18.5329 16.8827 19.908 16.5832C18.5929 15.9424 17.1497 15.6094 15.6872 15.6094C14.2248 15.6094 12.7816 15.9424 11.4665 16.5832C4.62702 20.0085 2.46717 29.3107 5.27497 36.1252C10.3146 44.8866 18.3421 53.1613 26.0635 56.929C27.0163 57.4143 28.0261 57.7777 29.0693 58.0107V58.0648Z" fill="url(#paint8_linear_7634_42166)"/>
<path fill-rule="evenodd" clip-rule="evenodd" d="M49.4592 20.0417C46.3094 15.2644 37.868 12.8306 34.4482 18.4372C33.7107 19.7034 32.8741 20.909 31.9464 22.0428C29.2826 25.1976 25.5928 27.1446 21.4531 25.8826C24.3329 32.9314 32.2524 33.2379 37.544 28.7851C39.8804 26.6304 42.0975 24.3495 44.1855 21.9526C44.8076 21.1842 45.6283 20.6013 46.5581 20.2676C47.4879 19.9338 48.4914 19.8619 49.4592 20.0597V20.0417Z" fill="url(#paint9_linear_7634_42166)"/>
<path fill-rule="evenodd" clip-rule="evenodd" d="M51.8219 29.6928C54.1039 27.143 56.0073 24.2772 57.4735 21.1838C58.9314 17.8487 59.6694 13.6482 57.1495 10.6376C51.7499 5.53582 42.0306 5.62595 36.127 15.6133C35.587 16.5327 35.0291 17.416 34.4531 18.4436C39.7088 9.84442 51.8039 14.8381 52.7039 24.1944C52.8117 24.8812 52.8117 25.5808 52.7039 26.2676C52.5634 27.4436 52.2668 28.5955 51.8219 29.6928Z" fill="url(#paint10_linear_7634_42166)"/>
</g>
<defs>
<linearGradient id="paint0_linear_7634_42166" x1="12.749" y1="19.2615" x2="51.8453" y2="19.2615" gradientUnits="userSpaceOnUse">
<stop stop-color="#8490BE"/>
<stop offset="0.27" stop-color="#3E5399"/>
<stop offset="1" stop-color="#293780"/>
</linearGradient>
<linearGradient id="paint1_linear_7634_42166" x1="51.4023" y1="-10.2017" x2="51.4023" y2="30.0194" gradientUnits="userSpaceOnUse">
<stop stop-color="#8490BE"/>
<stop offset="0.49" stop-color="#3E5399"/>
<stop offset="1" stop-color="#293780"/>
</linearGradient>
<linearGradient id="paint2_linear_7634_42166" x1="50.3705" y1="48.2752" x2="-14.8123" y2="48.2752" gradientUnits="userSpaceOnUse">
<stop stop-color="#49B4AC"/>
<stop offset="0.18" stop-color="#52B8B2"/>
<stop offset="0.51" stop-color="#74C5BF"/>
<stop offset="0.94" stop-color="#A7DBD7"/>
<stop offset="1" stop-color="#AFDEDA"/>
</linearGradient>
<linearGradient id="paint3_linear_7634_42166" x1="-37.8372" y1="26.0413" x2="12.8879" y2="26.0413" gradientUnits="userSpaceOnUse">
<stop stop-color="#C4CCE8"/>
<stop offset="0.31" stop-color="#7081BF"/>
<stop offset="1" stop-color="#4E66AF"/>
</linearGradient>
<linearGradient id="paint4_linear_7634_42166" x1="37.0709" y1="16.1992" x2="-18.1793" y2="16.1992" gradientUnits="userSpaceOnUse">
<stop stop-color="#C4CCE8"/>
<stop offset="0.49" stop-color="#7081BF"/>
<stop offset="1" stop-color="#4E66AF"/>
</linearGradient>
<linearGradient id="paint5_linear_7634_42166" x1="34.0657" y1="63.0414" x2="34.0657" y2="24.1735" gradientUnits="userSpaceOnUse">
<stop stop-color="#49B4AC"/>
<stop offset="1" stop-color="#AFDEDA"/>
</linearGradient>
<linearGradient id="paint6_linear_7634_42166" x1="73.0419" y1="31.5899" x2="18.7289" y2="31.5899" gradientUnits="userSpaceOnUse">
<stop stop-color="#49B4AC"/>
<stop offset="1" stop-color="#AFDEDA"/>
</linearGradient>
<linearGradient id="paint7_linear_7634_42166" x1="21.3256" y1="43.1786" x2="21.3256" y2="-11.2125" gradientUnits="userSpaceOnUse">
<stop stop-color="#49B4AC"/>
<stop offset="1" stop-color="#AFDEDA"/>
</linearGradient>
<linearGradient id="paint8_linear_7634_42166" x1="13.6735" y1="-4.06834" x2="13.6735" y2="51.5559" gradientUnits="userSpaceOnUse">
<stop stop-color="#C4CCE8"/>
<stop offset="0.49" stop-color="#7081BF"/>
<stop offset="1" stop-color="#4E66AF"/>
</linearGradient>
<linearGradient id="paint9_linear_7634_42166" x1="23.6605" y1="21.552" x2="64.0259" y2="21.552" gradientUnits="userSpaceOnUse">
<stop stop-color="#8490BE"/>
<stop offset="0.49" stop-color="#3E5399"/>
<stop offset="1" stop-color="#293780"/>
</linearGradient>
<linearGradient id="paint10_linear_7634_42166" x1="75.7066" y1="20.2197" x2="16.1077" y2="20.2197" gradientUnits="userSpaceOnUse">
<stop stop-color="#8490BE"/>
<stop offset="0.49" stop-color="#3E5399"/>
<stop offset="1" stop-color="#293780"/>
</linearGradient>
<clipPath id="clip0_7634_42166">
<rect width="180.095" height="58.2833" fill="white"/>
</clipPath>
</defs>
</svg>
