<svg xmlns="http://www.w3.org/2000/svg" viewBox="0 0 980 420" role="img" aria-label="">
  <rect width="980" height="420" rx="32" fill="#f9fcff"/>
  <path d="M64 318c128-120 240-54 342-130 124-92 280-92 510 28" fill="none" stroke="#d8e6ff" stroke-width="3"/>
  <path d="M64 260c142-66 250-22 360-84 126-70 280-58 492 92" fill="none" stroke="#b7cfff" stroke-width="3"/>
  <path d="M80 356c120-170 286-94 382-176 126-108 286-94 424 8" fill="none" stroke="#8db5ff" stroke-width="3"/>
  <g fill="#ff5a24">
    <circle cx="102" cy="294" r="6"/>
    <circle cx="196" cy="228" r="6"/>
    <circle cx="302" cy="246" r="6"/>
    <circle cx="414" cy="182" r="6"/>
    <circle cx="520" cy="142" r="6"/>
    <circle cx="640" cy="156" r="6"/>
    <circle cx="760" cy="190" r="6"/>
    <circle cx="884" cy="250" r="6"/>
  </g>
  <g fill="#5f96ff">
    <circle cx="142" cy="348" r="5"/>
    <circle cx="256" cy="316" r="5"/>
    <circle cx="366" cy="286" r="5"/>
    <circle cx="482" cy="220" r="5"/>
    <circle cx="598" cy="208" r="5"/>
    <circle cx="714" cy="232" r="5"/>
    <circle cx="832" cy="286" r="5"/>
  </g>
</svg>
