<svg xmlns="http://www.w3.org/2000/svg" viewBox="0 0 730 890" role="img" aria-label="">
  <rect width="730" height="890" rx="28" fill="#fffaf8"/>
  <rect x="54" y="70" width="622" height="432" rx="22" fill="#ffe6dd"/>
  <circle cx="250" cy="254" r="110" fill="#c8775b"/>
  <circle cx="382" cy="236" r="128" fill="#f2b19a"/>
  <circle cx="512" cy="284" r="100" fill="#b96551"/>
  <path d="M160 444c110-104 276-94 412 0" fill="none" stroke="#ffffff" stroke-width="28" stroke-linecap="round"/>
  <rect x="86" y="560" width="558" height="84" rx="18" fill="#ffffff" stroke="#f8d8cc" stroke-width="3"/>
  <rect x="122" y="586" width="142" height="16" rx="8" fill="#183777"/>
  <rect x="122" y="618" width="442" height="12" rx="6" fill="#e7bba8"/>
  <path d="M120 760h490M142 800h446" stroke="#d8b8aa" stroke-width="14" stroke-linecap="round"/>
  <path d="M174 704l48 78 48-78M330 704l48 78 48-78M486 704l48 78 48-78" fill="none" stroke="#d6a06e" stroke-width="10" stroke-linecap="round" stroke-linejoin="round"/>
</svg>
