<svg xmlns="http://www.w3.org/2000/svg" viewBox="0 0 730 890" role="img" aria-label="">
  <rect width="730" height="890" rx="28" fill="#f8fbff"/>
  <rect x="54" y="70" width="622" height="432" rx="22" fill="#ffffff" stroke="#d8e6ff" stroke-width="4"/>
  <rect x="54" y="70" width="622" height="68" rx="22" fill="#f3f7ff" stroke="#d8e6ff" stroke-width="4"/>
  <rect x="104" y="184" width="216" height="138" rx="18" fill="#15302f"/>
  <rect x="360" y="184" width="216" height="138" rx="18" fill="#eef5ff"/>
  <path d="M384 280l44-58 52 40 72-80" fill="none" stroke="#ff5a24" stroke-width="10" stroke-linecap="round" stroke-linejoin="round"/>
  <rect x="104" y="376" width="472" height="50" rx="14" fill="#eef5ff"/>
  <g fill="#24a36d">
    <circle cx="150" cy="596" r="24"/>
    <circle cx="286" cy="596" r="24"/>
    <circle cx="422" cy="596" r="24"/>
    <circle cx="558" cy="596" r="24"/>
  </g>
  <rect x="112" y="678" width="506" height="18" rx="9" fill="#d8e6ff"/>
  <rect x="112" y="730" width="326" height="18" rx="9" fill="#d8e6ff"/>
  <rect x="112" y="782" width="430" height="18" rx="9" fill="#d8e6ff"/>
</svg>
