<svg xmlns="http://www.w3.org/2000/svg" viewBox="0 0 730 890" role="img" aria-label="">
  <rect width="730" height="890" rx="28" fill="#f8fbff"/>
  <rect x="54" y="70" width="622" height="430" rx="22" fill="#14302f"/>
  <path d="M54 360c120-76 230-88 330-35 88 46 176 34 292-36v211H54z" fill="#eef5ff" opacity=".94"/>
  <circle cx="146" cy="398" r="34" fill="#ffffff"/>
  <path d="M146 376v44M124 398h44" stroke="#ff5a24" stroke-width="9" stroke-linecap="round"/>
  <rect x="88" y="558" width="554" height="84" rx="18" fill="#ffffff" stroke="#d8e6ff" stroke-width="3"/>
  <rect x="116" y="584" width="96" height="16" rx="8" fill="#183777"/>
  <rect x="116" y="616" width="404" height="12" rx="6" fill="#b7cfff"/>
  <g fill="#23a06b">
    <circle cx="150" cy="718" r="24"/>
    <circle cx="286" cy="718" r="24"/>
    <circle cx="422" cy="718" r="24"/>
    <circle cx="558" cy="718" r="24"/>
  </g>
  <rect x="112" y="778" width="506" height="18" rx="9" fill="#d8e6ff"/>
  <rect x="112" y="822" width="326" height="18" rx="9" fill="#d8e6ff"/>
</svg>
