<svg xmlns="http://www.w3.org/2000/svg" viewBox="0 0 520 520" role="img" aria-label="">
  <rect width="520" height="520" fill="none"/>
  <circle cx="258" cy="210" r="104" fill="#f6fbff" stroke="#d8e6ff" stroke-width="8"/>
  <rect x="158" y="156" width="200" height="118" rx="44" fill="#0f2559"/>
  <circle cx="222" cy="215" r="18" fill="#80e8ff"/>
  <circle cx="294" cy="215" r="18" fill="#80e8ff"/>
  <path d="M226 250c20 18 48 18 68 0" fill="none" stroke="#80e8ff" stroke-width="10" stroke-linecap="round"/>
  <rect x="112" y="193" width="36" height="64" rx="18" fill="#d8e6ff"/>
  <rect x="372" y="193" width="36" height="64" rx="18" fill="#d8e6ff"/>
  <path d="M258 314v32" stroke="#b7cfff" stroke-width="12" stroke-linecap="round"/>
  <rect x="168" y="344" width="180" height="118" rx="48" fill="#f6fbff" stroke="#d8e6ff" stroke-width="8"/>
  <circle cx="258" cy="403" r="34" fill="#fff" stroke="#ff5a24" stroke-width="8"/>
  <path d="M258 385v36M240 403h36" stroke="#ff5a24" stroke-width="8" stroke-linecap="round"/>
  <path d="M168 378c-38 6-64 24-86 55" stroke="#d8e6ff" stroke-width="24" stroke-linecap="round"/>
  <path d="M346 378c37 6 64 24 86 55" stroke="#d8e6ff" stroke-width="24" stroke-linecap="round"/>
  <path d="M92 436l-28 26" stroke="#ff5a24" stroke-width="18" stroke-linecap="round"/>
  <path d="M428 436l28 26" stroke="#183777" stroke-width="18" stroke-linecap="round"/>
  <path d="M360 126l42-42 10 54 52 10-42 42-10-54-52-10z" fill="#5f96ff"/>
</svg>
