<svg xmlns="http://www.w3.org/2000/svg" viewBox="0 0 780 460" role="img" aria-label="">
  <rect width="780" height="460" rx="32" fill="#f9fcff"/>
  <path d="M64 364h652" stroke="#d8e6ff" stroke-width="2"/>
  <circle cx="372" cy="168" r="82" fill="#f6fbff" stroke="#d8e6ff" stroke-width="7"/>
  <rect x="294" y="124" width="156" height="90" rx="34" fill="#0f2559"/>
  <circle cx="348" cy="169" r="15" fill="#80e8ff"/>
  <circle cx="402" cy="169" r="15" fill="#80e8ff"/>
  <path d="M349 197c16 13 37 13 53 0" fill="none" stroke="#80e8ff" stroke-width="8" stroke-linecap="round"/>
  <rect x="260" y="154" width="28" height="50" rx="14" fill="#d8e6ff"/>
  <rect x="456" y="154" width="28" height="50" rx="14" fill="#d8e6ff"/>
  <rect x="316" y="252" width="120" height="78" rx="30" fill="#ffffff" stroke="#d8e6ff" stroke-width="6"/>
  <circle cx="376" cy="291" r="23" fill="#fff" stroke="#ff5a24" stroke-width="6"/>
  <path d="M220 310c-42 10-76 28-102 56" stroke="#d8e6ff" stroke-width="18" stroke-linecap="round"/>
  <path d="M528 310c42 10 76 28 102 56" stroke="#d8e6ff" stroke-width="18" stroke-linecap="round"/>
  <rect x="114" y="322" width="552" height="74" rx="24" fill="#fff" stroke="#edf3ff" stroke-width="2"/>
  <circle cx="632" cy="359" r="19" fill="#fff3ed"/>
  <path d="M632 351v16M624 359h16" stroke="#ff5a24" stroke-width="4" stroke-linecap="round"/>
</svg>
