<svg width="64" height="50" viewBox="0 0 64 50" fill="none" xmlns="http://www.w3.org/2000/svg">
<path d="M45.0453 0C45.8903 0.377491 46.4885 0.870787 47.1873 1.11496C56.4417 4.34868 60.7873 11.888 58.9837 20.7873C58.4688 23.3277 57.6358 23.8537 54.8998 23.7873C52.0207 23.7175 49.1631 23.8551 46.7322 25.4252C42.7232 28.0146 41.5019 32.8152 43.4087 37.4814C44.9733 41.3103 47.7137 43.9696 52.1972 44.255C54.2687 44.3868 56.5804 43.8339 58.4876 43.0036C61.2409 41.8049 61.2206 44.0914 62.1009 45.1162C63.1392 46.3249 62.5127 47.3415 61.1353 47.978C59.825 48.5835 58.4963 49.1545 57.1863 49.8887C54.4846 50.0369 51.7723 50.0369 48.8721 49.89C48.0114 49.4295 47.3146 49.1532 46.67 48.7953C44.8611 47.7908 43.1061 46.6985 41.2654 45.749C40.223 45.2113 39.0596 44.5372 37.9411 44.5217C30.2127 44.4143 22.4773 44.3133 14.753 44.5092C8.05492 44.6791 3.88952 41.5592 1.00342 36.3532C0.785768 35.9606 0.339825 35.6775 0 35.3435C0 32.423 0 29.5025 0.155268 26.4098C2.02459 24.2047 3.77752 22.1985 5.42353 20.1191C5.80296 19.6397 5.97653 18.9086 5.97352 18.2945C5.9272 8.84237 16.9069 2.85901 25.1183 6.07387C25.6885 6.29711 26.8271 6.17287 27.193 5.78987C29.4069 3.47219 31.9711 1.72601 35.1782 0.806457C35.4655 0.724079 35.6321 0.277458 35.8548 0C38.8516 0 41.8485 0 45.0453 0ZM16.7076 30.8939C13.2595 30.1125 10.3674 28.4858 8.14876 25.7375C5.72644 28.365 5.34968 31.0361 6.72171 33.9748C8.18931 37.1182 10.7228 38.8737 14.4249 38.9053C21.2493 38.9634 28.0747 38.9297 34.8997 38.9201C35.3661 38.9195 35.8323 38.8009 36.3245 38.7336C36.292 38.2238 36.3227 37.8174 36.2335 37.4352C34.016 27.9397 40.9985 18.9967 51.5074 17.9728C53.4369 17.7848 53.5061 16.9161 53.317 15.6356C52.6942 11.4165 48.9101 7.54962 44.4974 6.3885C39.1019 4.9688 33.2492 6.67568 30.4172 11.4624C29.2608 13.4168 27.5746 14.0106 25.9095 13.3109C25.213 13.0182 24.6398 12.4806 23.9842 12.093C20.0574 9.77129 14.2381 11.6814 12.7573 15.7695C11.088 20.3782 14.2156 24.7476 19.6783 25.4382C21.8898 25.7178 22.7251 26.6054 22.5879 28.5581C22.4581 30.4056 21.249 31.0337 19.4214 30.966C18.6405 30.937 17.858 30.944 16.7076 30.8939Z" fill="white"/>
<path d="M45.0977 33.3095C46.7306 31.6564 48.1391 29.979 49.8644 28.6601C50.4742 28.194 51.857 28.6031 52.8869 28.6126C52.8039 29.5517 53.0148 30.6446 52.5635 31.3908C51.9987 32.3248 50.8899 32.9739 49.6391 34.0788C50.6371 34.8746 51.6161 35.5079 52.3911 36.3114C53.3179 37.2723 54.0178 38.4547 52.7388 39.5948C51.5775 40.63 50.3474 40.1089 49.3514 39.2764C48.0864 38.2189 46.8113 37.1347 45.7755 35.8925C45.2502 35.2626 45.2407 34.2604 45.0977 33.3095Z" fill="#E75A2C"/>
<path d="M58.4437 34.1523C57.6632 33.2446 56.6418 32.5877 56.1754 31.6831C55.7619 30.8811 55.614 29.6291 56.0258 28.9126C56.2799 28.4706 58.1402 28.2481 58.693 28.6411C60.4673 29.9026 62.0464 31.4314 63.5476 32.9852C64.5083 33.9796 63.7623 34.9466 62.9533 35.7272C61.6725 36.963 60.3194 38.1344 59.0446 39.3754C58.0932 40.3017 56.8639 40.5594 56.1711 39.5345C55.6907 38.8238 55.8017 37.4739 56.1922 36.6265C56.6112 35.7171 57.6665 35.0616 58.4437 34.1523Z" fill="#E8592B"/>
</svg>
