<svg width="112" height="56" viewBox="0 0 112 56" fill="none" xmlns="http://www.w3.org/2000/svg">
<g clip-path="url(#clip0_1031_5726)">
<path d="M18.3824 55.9799C24.2259 55.9799 29.0143 54.1538 32.1592 51.0901C34.5128 48.7365 35.9128 45.5915 35.9128 41.9394C35.9128 38.6321 34.6954 35.6698 32.423 33.3973C30.1505 31.1249 26.9244 29.4814 22.8259 28.6901L16.1099 27.3915C13.3302 26.864 11.7476 25.4843 11.7476 23.5567C11.7476 21.0408 14.1824 19.2959 18.1186 19.2959C20.5534 19.2959 22.6433 20.0872 24.0433 21.4669C24.9157 22.4205 25.5244 23.6582 25.707 25.0379L35.3853 22.8669C35.1215 20.0872 33.823 17.6321 31.8143 15.6234C28.6693 12.4785 23.7998 10.4901 18.0375 10.4901C12.7215 10.4901 8.27804 12.235 5.21428 15.0147C2.59688 17.4495 1.11573 20.777 1.11573 24.4292C1.11573 27.6553 2.1708 30.3538 4.26065 32.4437C6.35051 34.5336 9.41428 36.0959 13.4114 37.0698L20.0462 38.6321C23.3534 39.4234 24.8346 40.6408 24.8346 42.8118C24.8346 45.5104 22.3998 47.093 18.3824 47.093C15.5012 47.093 13.1476 46.1393 11.6664 44.5567C10.6114 43.5017 10.0027 42.122 9.92152 40.5393L-0.0205078 42.7104C0.24326 45.6727 1.64326 48.2901 3.73312 50.3799C7.06065 53.8901 12.3766 55.9799 18.3824 55.9799ZM91.9534 55.9799C98.4056 55.9799 103.377 53.6263 106.765 50.3191C109.464 47.7017 111.127 44.6582 112 41.5133L101.794 38.1046C101.368 39.6669 100.495 41.3307 99.0954 42.6292C97.4317 44.1915 95.1795 45.3278 91.9534 45.3278C88.9911 45.3278 86.1911 44.1915 84.1824 42.1828C82.1737 40.093 80.9563 37.0292 80.9563 33.1944C80.9563 29.2785 82.1737 26.3162 84.1824 24.2263C86.1911 22.2176 88.8896 21.1828 91.852 21.1828C94.9969 21.1828 97.1679 22.2379 98.7302 23.8002C100.029 25.1191 100.82 26.7625 101.348 28.4263L111.716 24.9364C110.924 21.893 109.281 18.8292 106.826 16.3133C103.336 12.9046 98.2838 10.4698 91.5679 10.4698C85.3795 10.4698 79.7998 12.8234 75.7824 16.8408C71.8259 20.9393 69.3911 26.6002 69.3911 33.235C69.3911 39.8698 71.9273 45.5306 76.0056 49.6292C80.023 53.6263 85.6838 55.9799 91.9534 55.9799ZM56.7505 55.9799C61.2751 55.9799 64.5012 54.5799 65.9012 53.3625V43.948C64.8462 44.7393 62.7563 45.693 60.0578 45.693C58.1302 45.693 56.7505 45.2466 55.6954 44.293C54.823 43.4205 54.3969 41.9393 54.3969 39.9307V0.0205078H42.8925V11.7886H65.9012V22.948H42.8722V42.7306C42.8722 46.748 44.0896 49.9741 46.2809 52.2263C48.7157 54.6814 52.2867 55.9799 56.7505 55.9799Z" fill="#0E1730" fill-opacity="0.7"/>
</g>
<defs>
<clipPath id="clip0_1031_5726">
<rect width="112" height="56" fill="white"/>
</clipPath>
</defs>
</svg>
