<svg width="1603" height="523" viewBox="0 0 1603 523" fill="none" xmlns="http://www.w3.org/2000/svg">
<g filter="url(#filter0_f_679_9208)">
<g filter="url(#filter1_f_679_9208)">
<path d="M0 80C725.6 302.034 1371 172.514 1603 80V443C999.8 155.109 283 323.045 0 443V80Z" fill="#FCDDD3"/>
</g>
<g filter="url(#filter2_f_679_9208)">
<path d="M0 189C725.6 270.963 1371 223.151 1603 189V323C999.8 216.726 283 278.719 0 323V189Z" fill="#FEEEE9"/>
</g>
<g filter="url(#filter3_f_679_9208)">
<path d="M0 217C725.6 262.263 1371 235.86 1603 217V291C999.8 232.311 283 266.546 0 291V217Z" fill="white"/>
</g>
</g>
<defs>
<filter id="filter0_f_679_9208" x="-80" y="0" width="1763" height="523" filterUnits="userSpaceOnUse" color-interpolation-filters="sRGB">
<feFlood flood-opacity="0" result="BackgroundImageFix"/>
<feBlend mode="normal" in="SourceGraphic" in2="BackgroundImageFix" result="shape"/>
<feGaussianBlur stdDeviation="40" result="effect1_foregroundBlur_679_9208"/>
</filter>
<filter id="filter1_f_679_9208" x="-28" y="52" width="1659" height="419" filterUnits="userSpaceOnUse" color-interpolation-filters="sRGB">
<feFlood flood-opacity="0" result="BackgroundImageFix"/>
<feBlend mode="normal" in="SourceGraphic" in2="BackgroundImageFix" result="shape"/>
<feGaussianBlur stdDeviation="14" result="effect1_foregroundBlur_679_9208"/>
</filter>
<filter id="filter2_f_679_9208" x="-28" y="161" width="1659" height="190" filterUnits="userSpaceOnUse" color-interpolation-filters="sRGB">
<feFlood flood-opacity="0" result="BackgroundImageFix"/>
<feBlend mode="normal" in="SourceGraphic" in2="BackgroundImageFix" result="shape"/>
<feGaussianBlur stdDeviation="14" result="effect1_foregroundBlur_679_9208"/>
</filter>
<filter id="filter3_f_679_9208" x="-28" y="189" width="1659" height="130" filterUnits="userSpaceOnUse" color-interpolation-filters="sRGB">
<feFlood flood-opacity="0" result="BackgroundImageFix"/>
<feBlend mode="normal" in="SourceGraphic" in2="BackgroundImageFix" result="shape"/>
<feGaussianBlur stdDeviation="14" result="effect1_foregroundBlur_679_9208"/>
</filter>
</defs>
</svg>
