<svg width="1763" height="523" viewBox="0 0 1763 523" fill="none" xmlns="http://www.w3.org/2000/svg">
<g filter="url(#filter0_f_679_9208)">
<g filter="url(#filter1_f_679_9208)">
<path d="M80 80C805.6 302.034 1451 172.514 1683 80V443C1079.8 155.109 363 323.045 80 443V80Z" fill="#FCDDD3"/>
</g>
<g filter="url(#filter2_f_679_9208)">
<path d="M80 189C805.6 270.963 1451 223.151 1683 189V323C1079.8 216.726 363 278.719 80 323V189Z" fill="#FEEEE9"/>
</g>
<g filter="url(#filter3_f_679_9208)">
<path d="M80 217C805.6 262.263 1451 235.86 1683 217V291C1079.8 232.311 363 266.546 80 291V217Z" fill="white"/>
</g>
</g>
<defs>
<filter id="filter0_f_679_9208" x="0" y="0" width="1763" height="523" filterUnits="userSpaceOnUse" color-interpolation-filters="sRGB">
<feFlood flood-opacity="0" result="BackgroundImageFix"/>
<feBlend mode="normal" in="SourceGraphic" in2="BackgroundImageFix" result="shape"/>
<feGaussianBlur stdDeviation="40" result="effect1_foregroundBlur_679_9208"/>
</filter>
<filter id="filter1_f_679_9208" x="52" y="52" width="1659" height="419" filterUnits="userSpaceOnUse" color-interpolation-filters="sRGB">
<feFlood flood-opacity="0" result="BackgroundImageFix"/>
<feBlend mode="normal" in="SourceGraphic" in2="BackgroundImageFix" result="shape"/>
<feGaussianBlur stdDeviation="14" result="effect1_foregroundBlur_679_9208"/>
</filter>
<filter id="filter2_f_679_9208" x="52" y="161" width="1659" height="190" filterUnits="userSpaceOnUse" color-interpolation-filters="sRGB">
<feFlood flood-opacity="0" result="BackgroundImageFix"/>
<feBlend mode="normal" in="SourceGraphic" in2="BackgroundImageFix" result="shape"/>
<feGaussianBlur stdDeviation="14" result="effect1_foregroundBlur_679_9208"/>
</filter>
<filter id="filter3_f_679_9208" x="52" y="189" width="1659" height="130" filterUnits="userSpaceOnUse" color-interpolation-filters="sRGB">
<feFlood flood-opacity="0" result="BackgroundImageFix"/>
<feBlend mode="normal" in="SourceGraphic" in2="BackgroundImageFix" result="shape"/>
<feGaussianBlur stdDeviation="14" result="effect1_foregroundBlur_679_9208"/>
</filter>
</defs>
</svg>
