<svg viewBox="0 0 127.25 31.12" className="h-7 w-auto" xmlns="http://www.w3.org/2000/svg">
    <g>
        <g>
            <path fill="#fff" d="M51.25,2.37c.19.1.34.36.19.55-.09.08-1.56,2.33-1.65,2.24-.09,0-.19-.02-.27-.07-.29-.22-.59-.38-.93-.5-1.61-.58-3.51.3-4.08,1.92-1.21,3.18,2.17,6.1,5.02,4.04.16-.12.37-.1.47.08,0,0,1.48,2.12,1.48,2.12.38.59-1.52,1.21-1.93,1.38-1.74.55-3.72.33-5.3-.59-3.66-2.03-4.37-7.46-1.33-10.34,2.13-2.21,5.81-2.56,8.34-.83Z"/>
            <path fill="#fff" d="M51.25,19.06c.19.1.34.36.19.55-.09.08-1.56,2.33-1.65,2.24-.09,0-.19-.02-.27-.07-.29-.22-.59-.38-.93-.5-1.61-.58-3.51.3-4.08,1.92-1.21,3.18,2.17,6.1,5.02,4.04.16-.12.37-.1.47.08,0,0,1.48,2.12,1.48,2.12.38.59-1.52,1.21-1.93,1.38-1.74.55-3.72.33-5.3-.59-3.66-2.03-4.37-7.46-1.33-10.34,2.13-2.21,5.81-2.56,8.34-.83Z"/>
            <path fill="#fff" d="M52.94,8.77c-.09-5.01,6.17-7.53,9.66-4.01,1.81,1.76,2.18,4.75.88,6.9-2.9,4.93-10.59,2.87-10.54-2.89ZM56.09,8.77c-.06,1.4,1.05,2.78,2.51,2.7,3.24.06,3.19-5.5-.01-5.47-1.48-.07-2.56,1.37-2.5,2.76h0Z"/>
            <path fill="#fff" d="M73.77,13.16c-1.25,1.37-3.29,1.58-4.93.82-2.8-1.18-3.86-4.72-2.8-7.44.73-2.04,2.79-3.48,4.96-3.42,1.03-.04,2.02.38,2.69,1.15V.68c-.03-.37.3-.71.67-.66.38.08,2.14-.17,2.42.18.14.12.24.28.23.48v12.89c0,.45-.23.66-.69.66-.19,0-1.84.03-1.98-.04-.33-.19-.4-.7-.56-1.02ZM68.73,8.77c-.05,1.93,1.72,3.24,3.54,2.51,2.21-.86,2.21-4.12.03-5.02-1.79-.8-3.62.62-3.57,2.52h0Z"/>
            <path fill="#fff" d="M88.45,12.93c-2.69,2.66-7.63,1.52-9.05-1.93-1.36-2.92.3-6.82,3.46-7.66,2.27-.69,4.87.36,6.07,2.4.64,1.04.99,2.6.6,3.74-.29.34-.81.28-1.23.3,0,0-6.19,0-6.19,0,.15,1.44,1.75,2.17,3.05,1.87.42-.08.82-.21,1.2-.42.31-.13.51-.5.85-.53.45.02,1.09,1.07,1.4,1.34.26.28.16.68-.16.88ZM84.31,5.75c-.94.01-1.7.77-2.1,1.57h4.41c-.44-.89-1.25-1.66-2.31-1.57Z"/>
            <path fill="#fff" d="M53.64,17.57c-.03-.35.24-.72.61-.66,0,0,2.11,0,2.11,0,.32.02.55.35.55.65,0,0,0,12.88,0,12.88,0,.19-.05.37-.19.5-.26.34-2.1.1-2.47.17-.38.06-.65-.3-.61-.66,0,0,0-12.87,0-12.87Z"/>
            <path fill="#fff" d="M58.66,25.46c-.07-3.05,2.61-5.75,5.67-5.65,4.34-.08,7.07,4.84,4.88,8.54-2.9,4.93-10.58,2.86-10.55-2.89ZM61.8,25.46c-.06,1.4,1.05,2.78,2.51,2.7,3.23.05,3.19-5.49-.01-5.47-1.48-.07-2.56,1.37-2.5,2.76Z"/>
            <path fill="#fff" d="M81.85,30.8c-.28.27-1.42.11-1.77.15-.7,0-.72-1.02-.85-1.51-1.02,1.64-3.51,2.1-5.2,1.31-1.63-.79-2.36-2.7-2.34-4.43.05-.24-.14-6.13.14-6.14.12-.12.29-.19.46-.17.41.08,2.17-.15,2.5.13.42.8-.13,6.01.28,6.82.58,1.51,2.73,1.44,3.5.14.41-.36.13-5.88.21-6.45,0-.19.06-.4.23-.53.28-.26,2.05-.07,2.4-.13.38-.06.75.28.69.66v9.65c0,.21-.1.41-.27.52l.04-.02Z"/>
            <path fill="#fff" d="M91.93,29.87c-1.25,1.37-3.29,1.58-4.93.82-2.8-1.18-3.86-4.72-2.8-7.44.97-2.95,5.35-4.76,7.65-2.26.07-.31-.17-3.94.17-4.08.13-.14.32-.21.51-.19.14,0,2.11-.03,2.18.05.26.09.48.32.47.6v12.89c0,.45-.23.66-.69.66-.19,0-1.81.03-1.95-.04-.33-.19-.4-.7-.58-1.02ZM86.89,25.48c-.05,1.93,1.72,3.24,3.54,2.51,2.22-.86,2.2-4.12.03-5.03-1.8-.81-3.62.62-3.57,2.53h0Z"/>
            <path fill="#fff" d="M106.61,29.65c-2.69,2.66-7.63,1.52-9.05-1.93-1.36-2.92.3-6.82,3.46-7.66,2.27-.69,4.87.36,6.07,2.4.64,1.04.99,2.6.6,3.74-.38.63-6.68.16-7.42.3.15,1.44,1.75,2.17,3.05,1.87.42-.08.82-.21,1.2-.42.31-.13.51-.5.85-.53.45.02,1.11,1.08,1.42,1.35.26.29.16.68-.18.87ZM102.47,22.47c-.95.01-1.7.77-2.1,1.57h4.41c-.44-.89-1.26-1.62-2.31-1.57h0Z"/>
            <path fill="#fff" d="M109.65,20.81c-.03-.93,1.44-.58,1.98-.64.66.04.65.91.89,1.37.48-.53,1.01-1.17,1.7-1.41.99-.31,2.12-.07,2.98.48.32.28,1.02.47,1.08.98.02.34-.8,1.46-.93,1.77-.19.34-.64.42-.96.24-.43-.44-1.01-.72-1.62-.71-.85-.04-1.4.63-1.79,1.32-.06.15.16,6.89-.16,6.74-.29.33-2.07.11-2.47.17-.45,0-.67-.22-.67-.66v-9.63h-.03Z"/>
            <path fill="#fff" d="M120.75,27.46c.68.67,1.68,1.01,2.62.74.98-.28.61-1.28-.25-1.43-2.09-.52-4.11-1.4-4.06-3.89-.04-2.88,3.69-3.79,5.9-2.79.54.27,1.66.96,1.8,1.57-.09.4-.59.59-.84.87-1.58,1.65-.88-.08-2.78-.11-.55-.06-1.26.4-.74.94.37.29.87.3,1.3.44.9.31,1.82.61,2.55,1.26,1.09.98,1.27,2.7.66,3.99-1.3,2.47-5.15,2.6-7.23,1.11-.49-.38-1.41-1.12-.8-1.75,0,0,1.11-1.11,1.11-1.11.23-.27.6-.04.77.17Z"/>
        </g>
        <g>
            <path fill="#f15722" d="M29.96,24.94c-.29,0-.57-.11-.77-.32l-2.54-2.55c-.42-.42-.42-1.11,0-1.54h0l2.55-2.55c.38-.46,1.07-.52,1.53-.14.46.38.52,1.07.14,1.53.06-.05-1.9,1.9-1.93,1.93l1.78,1.78c.42.42.42,1.11,0,1.54-.2.2-.47.32-.77.32h0Z"/>
            <path fill="#f15722" d="M33.59,24.94c-.6,0-1.08-.49-1.08-1.08,0-.29.11-.56.32-.77l1.78-1.78-1.78-1.79c-.99-1.03.51-2.53,1.54-1.54,0,0,2.55,2.55,2.55,2.55.42.42.42,1.11,0,1.54h0l-2.55,2.55c-.2.2-.47.32-.77.32Z"/>
        </g>
        <path fill="#fff" d="M35.2,26.66l-.48.24c-3.03,1.5-5.79,1.25-7.79-.7-2.11-2.08-2.83-5.72-1.61-8.3,1.11-2.39,3.61-3.5,6.97-3.17.58.12,1-.07,1.24-.24.62-.44.83-1.27.94-2,1.08-5.83-2.51-10.07-6.55-11.69-3.9-1.55-9.17-1.06-12.44,3.42-2.53-1.45-5.63-1.28-8.23.47-2.66,1.78-3.99,4.66-3.54,7.61C.23,14.43-.52,18.4.31,21.47c.86,3.21,3.67,6.4,8,6.27h15.19c1.87,2.16,4.63,3.38,7.46,3.38.71,0,1.43-.07,2.14-.24.02,0,2.9-.66,3.35-1.65.06-.12.08-.25.08-.37l-1.34-2.19ZM21.09,22.29c.05.62.25,1.43.47,2.09h-13.27c-2.6.1-4.16-1.82-4.7-3.47-.5-1.51-.44-3.7,1.19-5.19,1.47,2.23,3.96,3.58,6.64,3.58.47.02.94-.16,1.28-.5.34-.35.52-.81.48-1.3-.06-.83-.73-1.5-1.6-1.56-2.56-.04-4.61-2.16-4.57-4.75-.03-2.14,1.44-3.54,2.82-4.14,1.4-.6,3.43-.7,4.99.81.33.31.77.47,1.21.45.44-.02.86-.21,1.16-.54l.12-.17c1.82-3.98,5.75-4.8,8.84-3.85,2.9.9,5.53,3.54,5.12,7.49-2.69-.1-5.34.96-7.32,2.98-2.16,2.2-3.19,5.14-2.84,8.05Z"/>
    </g>
</svg>