<svg width="160" height="39" viewBox="0 0 160 39" fill="none" xmlns="http://www.w3.org/2000/svg">
<g clip-path="url(#clip0_413_23855)">
<path d="M93.1487 0.0664062C93.1612 0.0722599 93.1737 0.0781132 93.1869 0.083967L93.2088 0.0931945C94.244 0.52578 95.6838 -0.236066 96.5276 0.370386L96.5572 0.391848C96.894 0.633523 96.9041 2.03141 96.9065 2.4312L96.9111 11.5589C96.9111 12.2945 97.0463 17.1889 96.6604 17.7293C96.4088 18.081 94.0174 17.9628 93.2901 17.9438C92.844 17.5386 92.8643 17.571 92.6713 17.0124C92.4955 16.9953 92.2369 17.1658 92.0838 17.2643C90.1932 18.4804 88.2674 18.484 86.1588 17.6405C85.4143 17.3381 84.4315 16.4716 83.8791 15.858C81.7322 13.4707 81.7986 9.35036 83.5565 6.77873C83.8994 6.2768 84.6557 5.64033 85.0901 5.22032C86.3643 3.99026 88.2057 3.91261 89.8752 4.01205C91.1815 4.08316 91.7338 4.58608 92.5658 5.508C92.5557 3.9286 92.5221 2.31376 92.4729 0.734492C92.4651 0.491563 92.9565 0.190919 93.1487 0.0664062ZM90.0971 14.1992C90.6611 14.1669 91.3658 13.7215 91.7346 13.3173C93.651 11.2167 92.1783 7.5883 89.183 7.7993L89.1221 7.80385C88.2377 8.1651 87.0955 8.65984 86.7283 9.59762C86.4018 10.4299 86.4401 11.6927 86.794 12.5032C87.0932 13.2053 87.6643 13.7604 88.3807 14.0445C89.0315 14.2975 89.419 14.2421 90.0971 14.1992Z" fill="#253B7A"/>
<path d="M115.761 20.7559C116.505 20.7172 118.907 20.5754 119.369 21.0527C119.479 21.289 119.535 21.598 119.534 21.8579C119.509 27.0438 119.538 32.2303 119.518 37.4161C119.516 37.6841 119.466 38.0798 119.374 38.325C118.523 38.9429 116.754 38.6118 115.821 38.2732C115.557 38.1773 115.468 37.5702 115.416 37.3139C113.856 38.9757 111.114 39.0573 109.107 38.2314C109.047 38.208 108.987 38.1833 108.927 38.157C103.373 35.6935 103.842 26.9271 109.474 24.8875C111.227 24.253 113.182 24.1647 114.713 25.3714C114.914 25.5296 114.972 25.688 115.222 25.8C115.398 25.3625 114.523 21.4635 115.482 20.8947C115.545 20.8574 115.688 20.7891 115.761 20.7559ZM112.841 34.7659C114.04 34.5669 115.019 33.713 115.366 32.5644C115.681 31.5188 115.424 30.3863 114.687 29.5728C113.95 28.7593 112.838 28.3813 111.749 28.5743C110.025 28.8799 108.874 30.5026 109.175 32.2057C109.475 33.9089 111.113 35.0529 112.841 34.7659Z" fill="#253B7A"/>
<path d="M72.2666 4.00723C76.2352 3.29504 80.0374 5.89157 80.7601 9.80682C81.4819 13.7221 78.8499 17.4736 74.8814 18.186C70.9126 18.8985 67.1098 16.302 66.3878 12.3865C65.6657 8.47104 68.2978 4.71946 72.2666 4.00723ZM72.5116 14.1825C72.9991 14.2074 73.6529 14.2594 74.1212 14.2053C74.568 14.1849 75.2564 13.8004 75.5477 13.4571C76.7843 11.9999 76.6853 9.72135 75.2724 8.41038C74.6538 7.8364 73.9733 7.73034 73.1668 7.78291C73.1088 7.78669 73.051 7.79154 72.9933 7.79732C71.0097 8.67151 69.9612 10.3769 70.8469 12.4772C71.2923 13.5331 71.7737 13.5683 72.5116 14.1825Z" fill="#253B7A"/>
<path d="M80.3868 24.4622C80.5321 24.4288 80.6884 24.4259 80.8376 24.4227C81.2774 24.413 81.7071 24.5326 82.1345 24.6218C83.6884 24.9462 84.5087 25.3332 85.6712 26.4359C87.1415 27.8299 88.0407 29.7072 88.0798 31.7262C88.1165 33.5811 87.2876 35.5273 85.9868 36.8576C84.7118 38.1625 83.2001 38.653 81.3993 38.6868C79.5415 38.7119 77.8064 38.4697 76.2649 37.3553C74.6136 36.1614 73.8216 34.597 73.5149 32.6311C73.2238 30.7645 73.8436 28.9221 74.9645 27.4196C76.5056 25.3538 77.899 24.839 80.3868 24.4622ZM81.4102 34.7792C82.254 34.5196 82.7985 34.2143 83.218 33.4167C83.686 32.5135 83.7673 31.4627 83.443 30.4999C83.1985 29.75 82.7368 29.075 82.0079 28.7136C81.3766 28.4 80.7634 28.4329 80.0806 28.454C79.179 28.7773 78.5243 29.2936 78.1113 30.1633C77.7084 31.0171 77.668 31.9941 77.9988 32.8774C78.279 33.636 78.7837 34.3027 79.5376 34.6497C80.1321 34.9231 80.7899 34.9957 81.4102 34.7792Z" fill="#253B7A"/>
<path d="M128.524 24.464C128.619 24.4558 128.714 24.4514 128.81 24.4504C130.325 24.4369 132.196 25.2081 133.267 26.2587C134.682 27.6481 135.587 29.4314 135.588 31.4226C135.588 31.8502 135.564 32.3986 135.232 32.7175C134.946 32.991 134.393 33.0548 134.01 33.0987C133.093 33.2037 132.112 33.1482 131.186 33.1484L126.054 33.1306C126.107 33.2917 126.161 33.4564 126.234 33.6101C126.762 34.7269 127.89 34.8737 128.932 35.2554C129.515 35.1672 130.144 35.0308 130.692 34.8177C131.178 34.629 131.743 34.0419 132.253 34.0417C132.857 34.0415 133.484 34.8498 133.863 35.243C133.889 35.2613 133.914 35.2794 133.939 35.2995C134.164 35.486 134.325 35.8097 134.348 36.0983C134.378 36.4512 134.194 36.7855 133.968 37.0449C133.093 38.0468 131.297 38.5864 130.001 38.673C127.852 38.8166 125.782 38.4045 124.128 36.9755C122.701 35.7556 121.83 34.0217 121.71 32.1626C121.575 30.1565 122.327 28.1021 123.669 26.5931C124.832 25.2857 126.795 24.5732 128.524 24.464ZM126.211 29.7507C127.286 29.7402 128.359 29.7364 129.433 29.7393C129.892 29.7434 130.803 29.8685 131.205 29.7141C131.043 29.1625 130.747 28.7473 130.229 28.4689C129.487 28.0717 128.711 28.1203 127.897 28.1531C127.227 28.6384 126.715 29.0968 126.211 29.7507Z" fill="#253B7A"/>
<path d="M104.704 4.03601C104.869 4.00495 105.969 3.9799 106.191 3.98638C107.969 4.02321 109.456 4.64093 110.701 5.89421C111.915 7.1153 112.655 8.63169 112.8 10.3536C112.876 11.2539 112.673 11.7849 112.034 12.3894C109.726 12.5389 105.558 12.4233 103.198 12.4014C103.345 12.6751 103.526 13.0563 103.706 13.2995C105.326 15.4826 107.815 14.4302 109.537 13.2733C109.972 13.588 110.137 13.727 110.512 14.109C110.965 14.6937 112.105 15.4017 111.297 16.2598C107.805 19.9002 100.918 18.2027 99.3553 13.4685C98.06 9.54265 100.178 4.50904 104.704 4.03601ZM103.362 9.22448C104.418 8.99857 105.205 9.02748 106.277 9.02362C106.913 9.02647 107.792 9.00713 108.405 9.06917C108.012 7.94172 106.713 7.37449 105.57 7.48671C104.448 7.99467 104.06 8.11606 103.362 9.22448Z" fill="#253B7A"/>
<path d="M90.517 24.7512C91.3138 24.6824 93.2677 24.4965 93.9248 24.9715C94.0748 25.0797 94.1459 25.2764 94.1755 25.4523C94.5232 27.4817 93.8552 30.318 94.2131 32.5062C94.3716 33.4749 94.7326 34.0727 95.524 34.6343C95.874 34.6598 96.238 34.6718 96.5888 34.6571C100.743 34.4824 97.8287 26.309 99.1755 24.8739C99.4115 24.7359 99.6693 24.7157 99.938 24.7119C100.58 24.703 102.648 24.5434 103.042 24.9549C103.467 25.3985 103.248 30.1308 103.245 31.0809C103.241 32.4613 103.247 33.8418 103.263 35.2222C103.269 36.0261 103.344 36.9026 103.215 37.6971C103.138 38.1677 102.808 38.3631 102.445 38.619C101.784 38.6536 100.722 38.8381 100.147 38.486C99.6248 38.1657 99.5045 37.4846 99.3716 36.9349C98.9795 37.4723 98.5513 37.8931 97.9513 38.2035C96.7107 38.8452 94.6154 38.8802 93.2966 38.4733C92.1498 38.1195 91.2216 37.2885 90.6756 36.2439C90.2966 35.519 90.0888 34.7175 89.9599 33.9156C89.6591 32.0467 89.5076 26.7672 90.0873 25.056C90.1474 24.8784 90.3521 24.8313 90.517 24.7512Z" fill="#253B7A"/>
<path d="M59.2462 1.6407C59.2554 1.63863 59.2645 1.63656 59.2736 1.63449C61.1854 1.55449 66.6757 2.31237 63.9089 5.30226C63.2772 5.98484 63.2222 6.5424 62.3085 6.69453C60.4349 5.71239 58.6246 5.39232 56.9826 7.04003C54.2923 9.73962 56.4888 14.8966 60.6144 13.8114C61.5732 13.5592 61.8008 13.2479 62.8464 13.2398C63.1797 13.5162 64.4608 15.3499 64.6901 15.7739C65.2982 17.3074 62.3336 17.9594 61.2619 18.1445C58.9542 18.5361 56.5838 17.9963 54.6836 16.6466C53.0038 15.4559 51.8667 13.6607 51.518 11.6494C51.1958 9.78024 51.3736 7.12489 52.5525 5.53496C53.6162 4.10025 55.2333 2.59348 56.9925 2.04082C57.5294 1.87216 58.6455 1.73988 59.2462 1.6407Z" fill="#253B7A"/>
<path d="M59.2666 22.2965L59.3012 22.2934C61.1209 22.1386 63.5553 22.47 64.9914 23.6625C65.0477 23.9105 65.1953 24.3496 65.1426 24.5909C65.0468 25.0292 63.5777 26.9556 63.203 27.1841C62.9286 27.3514 60.7029 26.4606 60.1298 26.3525C59.4401 26.6247 58.7605 26.6978 58.1083 27.0953C57.1751 27.664 56.5434 28.6101 56.2978 29.6564C56.0421 30.746 56.3866 31.9602 56.9852 32.8936C57.3193 33.4144 57.7682 33.8042 58.2997 34.1187C60.7224 35.5524 62.0942 33.4593 63.1842 33.7164C63.4349 33.7755 64.4206 35.487 64.6024 35.7858C64.8104 36.1915 65.4677 36.8352 65.0852 37.2756C64.4845 37.9674 63.263 38.4824 62.3546 38.5801C59.909 38.8432 57.308 38.8353 55.2388 37.33C53.2748 35.9085 52.2291 34.0486 51.8473 31.706C51.3692 28.773 52.7069 25.7602 55.0697 23.9724C56.5973 22.8164 57.3455 22.6047 59.2666 22.2965Z" fill="#253B7A"/>
<path d="M153.581 24.4602C155.324 24.3791 157.224 24.6847 158.58 25.8799C158.922 26.1819 159.183 26.5581 159.2 27.0244C159.21 27.3172 158.966 27.6172 158.777 27.8202C158.316 28.3144 157.466 29.0481 156.763 29.0637C156.373 29.0723 155.796 28.4855 155.515 28.2265C155.056 28.1628 154.231 28.0264 153.844 28.3111C153.735 28.3914 153.651 28.4928 153.646 28.6341C153.635 28.902 153.827 29.0711 154.05 29.1895C154.371 29.3599 154.774 29.3731 155.122 29.4684C156.307 29.792 157.689 30.245 158.603 31.0948C159.443 31.876 159.799 32.9161 159.829 34.03C159.862 35.266 159.638 36.3959 158.74 37.3185C157.563 38.5288 155.842 38.8274 154.209 38.8543C152.686 38.7952 150.948 38.411 149.739 37.4421C149.314 37.1022 148.938 36.6682 148.883 36.1114C148.845 35.7264 149.027 35.368 149.271 35.08C149.503 34.8089 150.449 33.8033 150.719 33.7055C151.114 33.5613 152.533 34.7014 153.092 34.8654C153.786 35.0689 154.456 35.0074 155.164 34.9472C155.238 34.7175 155.408 34.3154 155.338 34.0773C155.18 33.5424 153.569 33.3088 153.082 33.148C152.65 33.0059 152.232 32.8266 151.832 32.6121C150.768 32.0396 149.855 31.1912 149.508 30.0119C149.223 29.0399 149.234 27.5865 149.734 26.6941C150.578 25.1868 152.062 24.8929 153.581 24.4602Z" fill="#253B7A"/>
<path d="M144.05 24.4603C145.711 24.3726 146.61 25.0053 148.043 25.6317C148.18 25.8905 148.639 26.2537 148.66 26.5324C148.713 27.2467 147.935 28.3546 147.471 28.8761C146.346 30.1394 145.273 28.3183 143.982 28.4148C143.16 28.4761 142.544 29.1444 142.041 29.7231C141.944 31.4466 142.014 33.2182 142.027 34.946C142.032 35.6383 142.075 36.3552 142.018 37.0437C141.969 37.6398 141.874 38.0908 141.399 38.4899C141.279 38.5424 141.152 38.5854 141.022 38.6069C140.196 38.7447 138.54 38.8419 137.83 38.3526C137.697 38.0426 137.682 37.6343 137.666 37.2999C137.56 35.0955 137.654 32.8423 137.654 30.6329C137.655 29.4378 137.49 26.0302 137.75 25.0551C137.836 24.9573 137.928 24.8949 138.05 24.8499C138.682 24.617 140.065 24.5911 140.686 24.8702C141.086 25.2693 141.134 25.898 141.238 26.4255C142.119 25.1911 142.589 24.871 144.05 24.4603Z" fill="#253B7A"/>
<path d="M67.7322 20.7533C68.4976 20.7285 70.8758 20.5919 71.3651 21.0086C71.4402 21.2354 71.4926 21.7434 71.4897 22.061C71.4407 27.4364 71.6059 32.8779 71.4145 38.2395C71.4109 38.3403 71.0053 38.5449 70.8941 38.6044C69.9936 38.7002 68.8455 38.6626 67.9403 38.6089L67.2266 38.1314C67.4065 37.2536 67.3447 34.8198 67.3442 33.8421L67.3481 25.2232C67.3509 23.9514 67.293 22.6543 67.3443 21.3858C67.3581 21.0435 67.4677 20.9756 67.7322 20.7533Z" fill="#253B7A"/>
<path d="M41.5419 21.9722C41.7019 21.9569 41.8622 21.9466 42.0228 21.9413C42.3643 21.9278 42.8494 21.9156 43.0783 22.1875C43.7287 22.9603 46.9967 25.7939 47.0078 26.6106C47.0192 27.4472 44.0074 30.1322 43.3337 30.7906C42.9196 31.1264 42.728 31.2297 42.1883 31.2141C40.6619 31.1701 40.7636 30.2581 40.7935 29.1159C41.2601 28.277 42.373 27.3749 43.1121 26.7813C43.1494 26.7513 43.1746 26.6632 43.1848 26.6139C43.053 26.181 41.2738 24.6311 40.8059 24.1539C40.7724 23.5775 40.7852 23.258 40.8291 22.6805C41.1064 22.3346 41.1904 22.2409 41.5419 21.9722Z" fill="#F26021"/>
<path d="M37.5145 21.9206C37.6223 21.9164 37.7301 21.9151 37.838 21.9166C39.2413 21.9405 39.2443 22.7738 39.2152 23.9148C38.6332 24.7728 37.364 25.7941 36.5408 26.5152C37.1293 27.3693 37.9639 27.8803 38.6622 28.6184C39.8661 29.8911 38.9537 31.3007 37.2731 31.207C37.1726 31.1781 36.8232 31.0402 36.7636 30.9719C35.6127 29.6502 34.2901 28.499 33.0605 27.2556C32.8032 26.9955 32.8986 26.0933 33.1918 25.7992C34.4388 24.5491 35.7615 23.3983 36.8957 22.0387C36.9613 21.96 37.3996 21.9304 37.5145 21.9206Z" fill="#F26021"/>
<path d="M4.428 15.269C3.79652 7.93362 10.998 2.21038 18.1745 4.62733C18.7046 4.80586 19.447 5.40234 19.755 4.84424C23.8913 -1.08607 33.7173 -1.18762 38.9557 3.25617C41.1665 5.1316 43.472 8.34234 43.5859 11.2943C43.6584 13.1754 44.207 18.6837 41.1864 18.5628C37.8419 18.429 35.067 18.5566 32.7493 21.2864C28.9113 26.1635 32.763 34.9952 39.4101 34.5822C40.75 34.4989 43.2342 33.6211 44.3287 32.9875C44.728 33.9258 45.7513 34.9181 46.0337 35.9554C46.0563 36.0383 45.9412 36.5498 45.9156 36.6839C44.4766 38.2239 41.4866 38.727 39.4693 38.8346C35.9805 39.0209 31.578 37.4714 29.3796 34.6616L15.2673 34.6759C11.098 34.6785 6.63528 35.3752 3.45886 32.1406C1.22041 29.8612 0.856883 28.7797 0 25.8069V22.4522C0.548894 20.0195 0.791797 18.7044 2.72984 16.8385C3.35955 16.2322 3.67615 15.848 4.428 15.269ZM19.2019 10.4641C17.8915 9.57262 17.1407 8.7745 15.4266 8.65404C13.2308 8.49973 11.2004 9.34216 9.90484 11.1685C7.79123 14.148 9.68539 19.0377 13.407 19.644C15.6047 20.002 17.0502 20.159 16.5652 22.9472C16.4599 23.492 15.95 23.8537 15.4994 24.1212C12.3923 24.2839 10.4663 24.0469 7.96039 21.9345C7.34798 21.4183 6.3913 20.5622 5.96398 19.9247C4.47908 21.9977 3.73776 24.433 5.07605 26.8193C7.70136 31.4594 11.0048 30.1847 15.7568 30.3193C19.4925 30.4251 23.2838 30.2566 27.0243 30.3202C26.206 29.1894 26.2997 27.4917 26.3011 26.1754C26.3083 19.3053 32.399 13.8175 39.2654 13.9391C39.225 8.44339 35.3476 4.58395 29.7432 4.63238C29.4943 4.63387 29.2455 4.64169 28.997 4.65583C25.5966 4.85904 23.3477 7.27481 21.7059 9.88176C21.1841 10.7101 20.0859 10.5182 19.2019 10.4641Z" fill="#253B7A"/>
</g>
<defs>
<clipPath id="clip0_413_23855">
<rect width="160" height="39" fill="white"/>
</clipPath>
</defs>
</svg>
