<svg width="134" height="64" viewBox="0 0 134 64" fill="none" xmlns="http://www.w3.org/2000/svg">
<g clip-path="url(#clip0_1031_5751)">
<path d="M4.25234 53.9745L3.11306 51.6656H3.07237V59.6454H1.07861V48.5669H3.39788L6.73437 54.2378L7.87366 56.5466H7.91434V48.5669H9.9081V59.6454H7.58883L4.25234 53.9745Z" fill="#0E1730" fill-opacity="0.7"/>
<path d="M23.559 59.6454L22.6639 56.8302H18.717L17.8422 59.6454H15.7061L19.4291 48.5669H22.0535L25.7562 59.6454H23.559ZM20.7108 50.4707H20.6294L19.2053 55.0277H22.1349L20.7108 50.4707Z" fill="#0E1730" fill-opacity="0.7"/>
<path d="M38.5737 59.6454L37.6785 56.8302H33.7317L32.8569 59.6454H30.7207L34.4437 48.5669H37.0682L40.7709 59.6454H38.5737ZM35.7458 50.4707H35.6644L34.2403 55.0277H37.1699L35.7458 50.4707Z" fill="#0E1730" fill-opacity="0.7"/>
<path d="M54.9508 51.6861H54.8897L54.0353 53.4481L51.7567 57.6405L49.4781 53.4481L48.6236 51.6861H48.5626V59.6254H46.5688V48.5469H48.9491L51.7974 53.9545H51.8584L54.6863 48.5469H56.9649V59.6254H54.9711V51.6861H54.9508Z" fill="#0E1730" fill-opacity="0.7"/>
<path d="M70.5756 59.6454L69.6805 56.8302H65.7336L64.8588 59.6454H62.7227L66.4457 48.5669H69.0701L72.7728 59.6454H70.5756ZM67.7477 50.4707H67.6664L66.2422 55.0277H69.1718L67.7477 50.4707Z" fill="#0E1730" fill-opacity="0.7"/>
<path d="M99.0576 28.7997V11.1997L90.6553 17.3364C87.7257 19.4833 85.9761 22.8858 85.9761 26.5314V57.1947L94.3783 51.0579C97.3079 48.9111 99.0576 45.5086 99.0576 41.863V34.3288L93.5646 34.2883L99.0576 28.82V28.7997Z" fill="#0E1730" fill-opacity="0.7"/>
<path d="M124.732 23.1494C121.803 25.2962 120.053 28.6988 120.053 32.3443V33.9646L125.363 39.2507H120.053V57.1747L128.455 51.038C131.385 48.8912 133.135 45.4886 133.135 41.8431V17.0127L124.732 23.1494Z" fill="#0E1730" fill-opacity="0.7"/>
<path d="M115.944 33.9036V0.0200195L107.542 6.15673C104.612 8.30356 102.862 11.7061 102.862 15.3517V28.7998L108.355 34.2681H102.862V63.9998L111.265 57.8631C114.194 55.7162 115.944 52.3137 115.944 48.6681V39.2504H110.573L115.944 33.9036Z" fill="#0E1730" fill-opacity="0.7"/>
<path d="M68.9477 18.5312H69.8021C70.5956 18.5312 71.2669 18.2882 71.7755 17.8021C72.2842 17.316 72.5486 16.5464 72.5486 15.4933C72.5486 14.4401 72.2842 13.6097 71.7755 13.1236C71.2669 12.6376 70.5956 12.3945 69.8021 12.3945H68.9477C68.1542 12.3945 67.4829 12.6376 66.9743 13.1236C66.4657 13.6097 66.2012 14.3996 66.2012 15.4933C66.2012 16.5869 66.4657 17.316 66.9743 17.8021C67.4829 18.2882 68.1542 18.5312 68.9477 18.5312Z" fill="#0E1730" fill-opacity="0.7"/>
<path d="M73.647 30.9063C73.5453 29.8329 73.4029 28.719 73.2401 27.5848L72.5484 23.1089L67.6454 23.8987L68.4389 28.3747C68.6626 29.7316 68.8254 30.8253 68.9068 31.6354C68.9882 32.4456 69.0288 33.1139 69.0288 33.6607C69.0288 34.9164 68.5813 35.7873 67.7065 36.2734C66.8316 36.7595 65.2041 37.0025 62.8848 37.0025H60.2807C59.1821 37.0025 58.348 36.8 57.7987 36.3747C57.2494 35.9494 56.7408 35.119 56.2729 33.8633L52.4278 23.5949H46.6296L43.639 25.3975C38.9394 28.1519 36.5795 31.4329 36.5795 35.2607C36.5795 39.0886 36.5795 35.7671 36.5998 36.0101C36.5998 36.2532 36.6405 36.4759 36.6812 36.6987C36.1115 36.8202 35.5012 36.9215 34.8705 36.9418C34.2398 36.9823 33.4464 36.9823 32.4699 36.9823H9.33826C7.83277 36.9823 6.77486 36.7392 6.16453 36.2329C5.55419 35.7266 5.24903 34.7747 5.24903 33.3367V6.09619H-0.101562V34.0456C-0.101562 37.4278 0.671525 39.8582 2.2177 41.3164C3.76388 42.7747 6.20521 43.5038 9.50101 43.5038H31.1068C34.0771 43.5038 35.9895 41.924 36.8643 38.7645H37.2712C37.8612 40.1823 38.8987 41.3367 40.3432 42.2076C41.7876 43.0785 43.6797 43.5038 46.0193 43.5038H52.265V39.6152L52.5702 39.5747C53.4043 40.9721 54.4012 41.9848 55.5405 42.5924C56.6798 43.2 58.2666 43.5038 60.2807 43.5038H62.8848C66.6892 43.5038 69.4561 42.7139 71.1854 41.1139C72.9146 39.5139 73.7894 37.0228 73.7894 33.6405C73.7894 30.2582 73.7487 31.9595 73.647 30.8861V30.9063ZM44.5952 37.0025C43.4152 37.0025 42.4997 36.8202 41.8283 36.4557C41.1366 36.0911 40.7908 35.4835 40.7908 34.6127C40.7908 33.7418 41.157 33.1949 41.869 32.5671C42.5811 31.9392 43.6186 31.3316 44.941 30.7645L48.4403 29.2253L51.3902 37.0025H44.5952Z" fill="#0E1730" fill-opacity="0.7"/>
</g>
<defs>
<clipPath id="clip0_1031_5751">
<rect width="133.053" height="64" fill="white"/>
</clipPath>
</defs>
</svg>
