<svg width="136" height="64" viewBox="0 0 136 64" fill="none" xmlns="http://www.w3.org/2000/svg">
  <g id="Frame 2147224638">
    <path id="Vector" d="M10.6196 13.9747C10.8585 13.8328 11.0974 13.6934 11.3577 13.6332C11.8164 13.7535 12.2154 14.054 12.6334 14.2752C15.825 16.1433 19.0357 18.009 22.2272 19.8771C22.4876 20.0189 22.7456 20.2594 22.705 20.5791C22.705 24.3346 22.705 28.0683 22.7241 31.8238C22.705 32.1435 22.7647 32.5859 22.4446 32.7662C22.0648 33.0475 21.6467 32.7254 21.2884 32.5643C20.6099 32.182 19.8933 31.8622 19.2148 31.4391C18.9544 31.3189 18.8971 31.0376 18.8971 30.7972C18.878 28.0058 18.9162 25.2145 18.878 22.4256C18.6582 22.125 18.2593 22.0048 17.9607 21.8029C15.7462 20.5382 13.5723 19.2135 11.3577 17.9489C8.98319 19.3145 6.61102 20.7186 4.23646 22.1034C4.0764 22.2236 3.7969 22.3246 3.83752 22.5843C3.83752 25.2554 3.83751 27.9241 3.85662 30.6168C5.29235 31.48 6.74957 32.3022 8.1853 33.1461C8.44569 33.3072 8.80402 33.4875 8.76341 33.8482C8.78252 34.8315 8.78252 35.8148 8.76341 36.8006C8.80402 37.3415 8.10408 37.6445 7.70752 37.3031C5.31385 35.9182 2.92018 34.5117 0.526509 33.1076C0.227897 32.9466 -0.0516033 32.6869 0.0081191 32.3046V21.2235C0.0272302 20.7811 -0.111326 20.1584 0.387952 19.9179C3.78018 17.9104 7.21063 15.9413 10.6005 13.9338L10.6196 13.9747ZM24.5827 27.0249C24.6424 26.5633 25.2611 26.383 25.6194 26.6643C28.0131 28.0491 30.4068 29.4556 32.8005 30.8597C33.0991 31.0208 33.3786 31.2804 33.3189 31.6627C33.3189 35.5768 33.3595 39.4933 33.3189 43.4074C33.3786 43.7681 33.0585 44.0109 32.7814 44.1696C29.37 46.1579 25.9611 48.1462 22.5688 50.1537C22.2702 50.3341 21.9095 50.4735 21.6109 50.2547C18.2593 48.3073 14.9291 46.3406 11.5775 44.4124C11.2192 44.172 10.6196 43.9917 10.6602 43.4483V31.8622C10.5814 31.3405 11.1977 30.939 11.6373 31.2395C12.4949 31.6819 13.3334 32.1027 14.1695 32.5859C14.5875 32.8071 14.4299 33.3288 14.4681 33.7111V41.662C16.9812 43.1285 19.4752 44.6144 22.0074 46.0593C24.5014 44.5927 26.974 43.1285 29.4871 41.7028C29.5277 38.9524 29.4871 36.1803 29.4871 33.4298C27.951 32.5066 26.3767 31.6435 24.8407 30.6986C24.4823 30.5183 24.5612 30.0567 24.5421 29.7153C24.5612 28.8329 24.5014 27.9481 24.5827 27.085V27.0249ZM19.4155 34.091C19.7738 34.0309 20.0939 34.2929 20.4117 34.4324C21.0901 34.8147 21.8068 35.1344 22.4661 35.5576C22.7456 35.7187 22.6668 36.0793 22.705 36.3414C22.705 37.2838 22.7241 38.2479 22.6859 39.1928C22.6859 39.6352 22.1269 39.8948 21.7494 39.6736C20.8918 39.2529 20.0533 38.8105 19.2172 38.3273C18.8589 38.1469 18.8995 37.7046 18.8995 37.3632C18.8995 36.4808 18.8804 35.5768 18.8995 34.692C18.8995 34.3915 19.1193 34.1294 19.4179 34.0693V34.0886L19.4155 34.091Z" fill="url(#paint0_radial_719_10544)"/>
    <g id="Group">
      <path id="Vector_2" d="M66.5904 0.060112C68.444 -0.0601003 70.2951 0.0408822 72.1463 0.019244C70.3333 2.34896 68.4225 4.61616 66.569 6.92664C66.0513 7.56857 65.4931 8.19128 65.0351 8.89332C67.1272 8.95342 69.1978 8.89331 71.2875 8.91255C72.5828 8.93178 73.8758 8.81157 75.152 9.09287C77.5613 9.57372 79.7918 11.1196 80.9678 13.3291C81.8433 14.9352 82.1033 16.8442 81.8052 18.6497C81.6859 19.3518 81.4259 20.0154 81.2469 20.6982H85.4287C86.4044 20.6982 87.4612 20.5563 88.2579 19.8951C89.193 19.1522 89.5318 17.8876 89.5723 16.7239C89.632 14.1129 89.5533 11.5043 89.6129 8.89332H94.8515V17.0437C94.8705 18.2675 94.7727 19.4936 94.3338 20.6381C93.735 22.184 92.5614 23.4895 91.1062 24.2709C89.3743 25.2133 87.3824 25.5163 85.4502 25.4946H48.5847C46.693 27.7234 44.8991 30.0314 43.0289 32.2818C42.8285 32.5439 42.4921 32.4429 42.213 32.4621H37.015C38.828 30.0915 40.8199 27.8652 42.5923 25.4754C40.1424 25.235 37.7521 24.23 36.0203 22.4436C34.2264 20.6357 33.2316 18.0872 33.3127 15.5363C33.3127 13.0262 34.4077 10.5378 36.2206 8.80917C38.2531 6.86173 41.1014 5.83752 43.8876 5.95773C46.6357 6.03707 49.3647 7.244 51.2183 9.29002C53.0718 11.2976 53.9067 14.1081 53.5895 16.8177C53.4893 18.1833 52.9525 19.448 52.3538 20.6717H73.1673C73.9235 20.6717 74.6797 20.4914 75.2784 20.0081C77.0508 18.6834 77.0318 15.5699 75.1997 14.3053C74.663 13.9038 74.0046 13.7018 73.3271 13.7018H58.6491C58.6491 12.4155 58.5895 11.1317 58.6682 9.8478C59.0069 9.28521 59.4649 8.82359 59.8633 8.32111C62.1152 5.57065 64.3242 2.76009 66.6167 0.028863L66.5976 0.0480937L66.5904 0.060112ZM42.2703 10.8023C40.8557 11.1629 39.6224 12.228 39.1047 13.6129C38.2889 15.7214 38.7254 18.4526 40.5789 19.8567C42.3323 21.2608 45.0804 21.1429 46.693 19.5754C48.9234 17.4885 48.7445 13.2907 46.1944 11.5043C45.078 10.6797 43.6061 10.4392 42.2703 10.8023Z" fill="#0E1730" fill-opacity="0.7"/>
      <path id="Vector_3" d="M123.771 4.37558C125.145 3.97407 126.698 4.93817 126.998 6.34225C127.356 7.74633 126.381 9.29467 124.966 9.55432C123.592 9.87409 122.099 8.89075 121.839 7.48667C121.54 6.14029 122.437 4.69534 123.771 4.39481V4.37558Z" fill="#0E1730" fill-opacity="0.7"/>
      <path id="Vector_4" d="M101.943 8.85479C103.994 6.86648 106.902 5.82303 109.751 5.98412C112.618 6.0851 115.428 7.40983 117.279 9.63857C119.848 12.6511 120.128 17.3081 118.117 20.7005H126.561C127.518 20.7005 128.513 20.5803 129.29 19.9985C130.306 19.2556 130.683 17.95 130.724 16.7263C130.764 14.1153 130.724 11.5259 130.743 8.91489H135.982C136.022 11.5259 135.982 14.1153 135.982 16.7263C136.06 18.6737 135.762 20.7221 134.548 22.2873C132.895 24.5353 130.027 25.42 127.358 25.4994C123.016 25.5403 118.653 25.4994 114.312 25.5403C112.42 27.8483 110.566 30.1588 108.694 32.4669C106.723 32.527 104.729 32.4669 102.759 32.4669C104.631 30.1179 106.542 27.8291 108.396 25.4802C105.726 25.259 103.119 24.0544 101.366 21.9868C99.8317 20.2197 99.0158 17.8899 99.0946 15.541C99.0946 13.031 100.17 10.581 101.962 8.85479H101.94H101.943ZM108.295 10.7205C106.881 11.0018 105.626 11.9659 105.008 13.2906C104.013 15.4592 104.409 18.4309 106.423 19.8759C108.195 21.2607 110.943 21.0996 112.518 19.4936C114.708 17.3658 114.488 13.1896 111.94 11.461C110.905 10.6988 109.55 10.4584 108.295 10.7181V10.7205Z" fill="#0E1730" fill-opacity="0.7"/>
      <path id="Vector_5" d="M82.6825 28.5309C84.0757 28.1895 85.6095 29.1945 85.829 30.6178C86.1272 32.0027 85.1324 33.4885 83.7369 33.7289C82.3629 34.0294 80.8695 33.0052 80.6501 31.6012C80.371 30.2355 81.3276 28.7906 82.6825 28.5285V28.5309Z" fill="#0E1730" fill-opacity="0.7"/>
      <path id="Vector_6" d="M35.4783 40.196C37.37 38.4289 40.0393 38.1284 42.5298 38.1693C44.901 38.2101 47.4296 38.5515 49.183 40.2561C50.5761 41.5809 51.2751 43.5283 51.2941 45.4565V57.0618C49.5813 57.1219 47.8471 57.081 46.1343 57.0618C46.0937 53.5877 46.1343 50.0943 46.1343 46.6226C46.1343 45.3171 45.6763 43.8312 44.4811 43.1484C43.2264 42.4464 41.6138 42.4464 40.2994 43.0475C38.985 43.6894 38.4673 45.257 38.4673 46.6226V57.0234C36.7545 57.1243 35.0203 57.0642 33.3075 57.0642C33.2669 53.2487 33.3075 49.4356 33.3075 45.62C33.2884 43.6125 34.004 41.564 35.4783 40.1792V40.1984V40.196Z" fill="#0E1730" fill-opacity="0.7"/>
      <path id="Vector_7" d="M81.7669 38.6689C84.515 37.8442 87.6018 37.9452 90.1734 39.2724C92.5446 40.436 94.2764 42.4652 94.8346 45.0546C95.3523 47.5045 95.1925 50.1756 93.9973 52.4044C92.7235 54.8952 90.2927 56.72 87.6042 57.3427C85.2545 57.9053 82.764 57.5639 80.6123 56.4988C80.5717 58.9896 80.6123 61.478 80.6123 63.9688C78.8995 64.0097 77.1867 64.0097 75.493 63.9688V48.3075C75.493 46.6414 75.6719 44.9536 76.2492 43.3884C77.1247 40.9193 79.336 39.3926 81.786 38.6713H81.7669V38.6689ZM84.6533 42.6455C83.2387 42.8066 81.9649 43.7106 81.2683 44.9536C80.0326 47.2425 80.431 50.5747 82.6614 52.1014C84.3933 53.3661 86.9839 53.104 88.4558 51.5388C90.2497 49.6707 90.3284 46.4587 88.8136 44.391C87.857 43.1264 86.2039 42.4243 84.6509 42.6431L84.6533 42.6455Z" fill="#0E1730" fill-opacity="0.7"/>
      <path id="Vector_8" d="M100.987 40.4968C103.198 38.6287 106.185 37.9267 109.074 38.2272C111.106 38.4484 113.155 38.7297 114.889 39.8741C114.152 41.1796 113.415 42.4635 112.678 43.769C111.244 43.1054 109.689 42.5236 108.098 42.6846C106.404 42.8457 104.87 44.031 104.255 45.6154C103.737 46.9618 103.737 48.4861 104.236 49.8325C104.854 51.4986 106.488 52.7248 108.239 52.8234C109.773 52.9243 111.266 52.4218 112.621 51.7198C113.458 52.9844 114.155 54.3308 114.892 55.6556C113.16 56.7591 111.128 57.3409 109.076 57.5429C105.512 57.8627 101.805 56.3576 99.5745 53.5062C98.1599 51.7198 97.4824 49.3901 97.6423 47.1229C97.7615 44.5744 99.0569 42.1245 100.989 40.4968H100.987Z" fill="#0E1730" fill-opacity="0.7"/>
      <path id="Vector_9" d="M123.949 38.2873C126.399 37.905 128.988 38.0661 131.12 39.3307C133.391 40.617 135.123 43.1246 135.719 45.6755C136.278 48.0654 135.98 50.6956 134.744 52.8234C133.389 55.2324 130.979 56.6581 128.332 57.3001C125.583 57.9636 122.575 57.5621 120.166 56.0763C117.876 54.7107 116.142 52.3617 115.646 49.7123C115.247 47.5845 115.486 45.3149 116.483 43.3867C117.917 40.516 120.824 38.7874 123.952 38.3065V38.2873H123.949ZM124.608 42.7255C123.193 43.0669 121.938 44.0911 121.361 45.4351C120.445 47.623 120.884 50.5345 122.895 51.9795C124.689 53.3643 127.475 53.1648 129.069 51.5371C131.22 49.4093 131.02 45.2716 128.491 43.4853C127.375 42.6822 125.941 42.4009 124.608 42.7231V42.7255Z" fill="#0E1730" fill-opacity="0.7"/>
      <path id="Vector_10" d="M54.3815 38.6885C56.0942 38.6693 57.8285 38.6885 59.5413 38.6885C59.5818 42.2035 59.5413 45.4757 59.5604 48.9883C59.5795 50.2938 60.0589 51.7387 61.2732 52.3807C62.5685 53.0635 64.2216 53.0635 65.5361 52.3807C66.7717 51.6979 67.2298 50.1712 67.2298 48.8272V38.7077C68.9616 38.6669 70.6959 38.6669 72.4278 38.7077C72.4087 42.5617 72.4278 46.1561 72.4278 50.0125C72.4278 52.0801 71.6119 54.1887 70.0184 55.5351C67.8667 57.343 64.8991 57.7638 62.1916 57.5618C59.7226 57.3599 57.1129 56.3765 55.6792 54.2296C54.6033 52.7245 54.3648 50.7963 54.4244 48.9883V38.7077L54.3838 38.6885H54.3815Z" fill="#0E1730" fill-opacity="0.7"/>
    </g>
  </g>
  <defs>
    <radialGradient id="paint0_radial_719_10544" cx="0" cy="0" r="1" gradientUnits="userSpaceOnUse" gradientTransform="translate(16.6683 31.9993) scale(17.4771 17.5895)">
      <stop stop-color="#E84C1E"/>
      <stop offset="1" stop-color="#E84C1E"/>
    </radialGradient>
  </defs>
</svg>
