<svg width="167" height="64" viewBox="0 0 167 64" fill="none" xmlns="http://www.w3.org/2000/svg">
<g clip-path="url(#clip0_356_3620)">
<path d="M18.0536 21.207L9.04932 26.4058V36.8033L18.0536 42.0046L27.0555 36.8058V26.4058L18.0536 21.207Z" fill="white"/>
<mask id="mask0_356_3620" style="mask-type:luminance" maskUnits="userSpaceOnUse" x="40" y="16" width="6" height="8">
<path d="M45.9153 16.79V23.0276L40.5098 19.9088L45.9153 16.79Z" fill="white"/>
</mask>
<g mask="url(#mask0_356_3620)">
<path d="M41.7038 14.5493L48.5025 18.1653L44.7241 25.2669L37.9253 21.6509L41.7038 14.5493Z" fill="white"/>
</g>
<mask id="mask1_356_3620" style="mask-type:luminance" maskUnits="userSpaceOnUse" x="40" y="38" width="6" height="8">
<path d="M45.6448 38.8867V45.1243L40.2393 42.0055L45.6448 38.8867Z" fill="white"/>
</mask>
<g mask="url(#mask1_356_3620)">
<path d="M41.4308 36.6465L48.2296 40.2625L44.4511 47.364L37.6548 43.748L41.4308 36.6465Z" fill="white"/>
</g>
<mask id="mask2_356_3620" style="mask-type:luminance" maskUnits="userSpaceOnUse" x="37" y="33" width="7" height="7">
<path d="M43.2698 36.8019L37.8667 39.9231V33.6831L43.2698 36.8019Z" fill="white"/>
</mask>
<g mask="url(#mask2_356_3620)">
<path d="M39.0582 31.4434L45.857 35.0594L42.0786 42.1634L35.2798 38.5474L39.0582 31.4434Z" fill="white"/>
</g>
<mask id="mask3_356_3620" style="mask-type:luminance" maskUnits="userSpaceOnUse" x="41" y="28" width="6" height="7">
<path d="M46.6443 28.1606V34.3982L41.2412 31.2794L46.6443 28.1606Z" fill="white"/>
</mask>
<g mask="url(#mask3_356_3620)">
<path d="M42.4332 25.9209L49.232 29.5369L45.4536 36.6409L38.6548 33.0224L42.4332 25.9209Z" fill="white"/>
</g>
<mask id="mask4_356_3620" style="mask-type:luminance" maskUnits="userSpaceOnUse" x="28" y="45" width="7" height="7">
<path d="M34.2629 45.0547V51.2922L28.8623 48.1759L34.2629 45.0547Z" fill="white"/>
</mask>
<g mask="url(#mask4_356_3620)">
<path d="M30.0539 42.8145L36.8502 46.4305L33.0717 53.5345L26.2754 49.916L30.0539 42.8145Z" fill="white"/>
</g>
<mask id="mask5_356_3620" style="mask-type:luminance" maskUnits="userSpaceOnUse" x="27" y="32" width="9" height="9">
<path d="M35.1615 40.9635L27.9565 36.806L35.1615 32.646V40.9635Z" fill="white"/>
</mask>
<g mask="url(#mask5_356_3620)">
<path d="M29.5466 29.6577L38.6124 34.4799L33.5737 43.9519L24.5078 39.1297L29.5466 29.6577Z" fill="white"/>
</g>
<mask id="mask6_356_3620" style="mask-type:luminance" maskUnits="userSpaceOnUse" x="27" y="37" width="9" height="10">
<path d="M35.1634 42.0047L27.9585 46.1647V37.8472L35.1634 42.0047Z" fill="white"/>
</mask>
<g mask="url(#mask6_356_3620)">
<path d="M29.549 34.8589L38.6124 39.681L33.5736 49.153L24.5103 44.3309L29.549 34.8589Z" fill="white"/>
</g>
<mask id="mask7_356_3620" style="mask-type:luminance" maskUnits="userSpaceOnUse" x="27" y="27" width="9" height="9">
<path d="M35.1615 31.6068L27.9565 35.7643V27.4468L35.1615 31.6068Z" fill="white"/>
</mask>
<g mask="url(#mask7_356_3620)">
<path d="M29.547 24.4614L38.6104 29.2811L33.5717 38.7507L24.5107 33.931L29.547 24.4614Z" fill="white"/>
</g>
<mask id="mask8_356_3620" style="mask-type:luminance" maskUnits="userSpaceOnUse" x="30" y="52" width="6" height="7">
<path d="M35.7175 55.649L30.3169 58.7703V52.5303L35.7175 55.649Z" fill="white"/>
</mask>
<g mask="url(#mask8_356_3620)">
<path d="M31.5079 50.2925L38.3043 53.906L34.5258 61.01L27.7295 57.394L31.5079 50.2925Z" fill="white"/>
</g>
<mask id="mask9_356_3620" style="mask-type:luminance" maskUnits="userSpaceOnUse" x="18" y="26" width="10" height="11">
<path d="M27.056 36.8072L18.0542 31.6085L27.056 26.4072V36.8072Z" fill="white"/>
</mask>
<g mask="url(#mask9_356_3620)">
<path d="M20.0378 22.6724L31.3683 28.7007L25.0717 40.5407L13.7412 34.5124L20.0378 22.6724Z" fill="white"/>
</g>
<mask id="mask10_356_3620" style="mask-type:luminance" maskUnits="userSpaceOnUse" x="18" y="44" width="9" height="9">
<path d="M26.1566 48.3807L18.9541 52.5407V44.2231L26.1566 48.3807Z" fill="white"/>
</mask>
<g mask="url(#mask10_356_3620)">
<path d="M20.5422 41.2368L29.6056 46.0565L24.5692 55.526L15.5059 50.7063L20.5422 41.2368Z" fill="white"/>
</g>
<mask id="mask11_356_3620" style="mask-type:luminance" maskUnits="userSpaceOnUse" x="19" y="55" width="7" height="7">
<path d="M19.856 61.6907L25.2566 58.5719L19.856 55.4507V61.6907Z" fill="white"/>
</mask>
<g mask="url(#mask11_356_3620)">
<path d="M21.0475 53.2109L27.8438 56.8269L24.0654 63.9309L17.269 60.3149L21.0475 53.2109Z" fill="white"/>
</g>
<mask id="mask12_356_3620" style="mask-type:luminance" maskUnits="userSpaceOnUse" x="39" y="45" width="6" height="8">
<path d="M44.781 48.9288L39.3779 52.0501V45.8101L44.781 48.9288Z" fill="white"/>
</mask>
<g mask="url(#mask12_356_3620)">
<path d="M41.17 43.2671L47.7177 47.88L42.9891 54.5951L36.439 49.9797L41.17 43.2671Z" fill="white"/>
</g>
<mask id="mask13_356_3620" style="mask-type:luminance" maskUnits="userSpaceOnUse" x="37" y="23" width="7" height="7">
<path d="M43.2698 26.4044L37.8667 29.5256V23.2856L43.2698 26.4044Z" fill="white"/>
</mask>
<g mask="url(#mask13_356_3620)">
<path d="M39.6588 20.7432L46.2065 25.3561L41.4779 32.0687L34.9302 27.4558L39.6588 20.7432Z" fill="white"/>
</g>
<mask id="mask14_356_3620" style="mask-type:luminance" maskUnits="userSpaceOnUse" x="27" y="22" width="9" height="9">
<path d="M35.1615 22.248V30.5656L27.9565 26.4056L35.1615 22.248Z" fill="white"/>
</mask>
<g mask="url(#mask14_356_3620)">
<path d="M30.3465 18.8564L39.0776 25.0054L32.7736 33.958L24.0425 27.8066L30.3465 18.8564Z" fill="white"/>
</g>
<mask id="mask15_356_3620" style="mask-type:luminance" maskUnits="userSpaceOnUse" x="19" y="49" width="7" height="8">
<path d="M25.259 49.8086V56.0486L19.856 52.9274L25.259 49.8086Z" fill="white"/>
</mask>
<g mask="url(#mask15_356_3620)">
<path d="M21.6481 47.2656L28.1958 51.8785L23.4671 58.5912L16.917 53.9782L21.6481 47.2656Z" fill="white"/>
</g>
<mask id="mask16_356_3620" style="mask-type:luminance" maskUnits="userSpaceOnUse" x="18" y="39" width="9" height="9">
<path d="M26.1541 47.3419L18.9541 43.1844L26.1541 39.0244V47.3419Z" fill="white"/>
</mask>
<g mask="url(#mask16_356_3620)">
<path d="M21.3421 35.6318L30.0732 41.7808L23.7667 50.7334L15.0356 44.582L21.3421 35.6318Z" fill="white"/>
</g>
<mask id="mask17_356_3620" style="mask-type:luminance" maskUnits="userSpaceOnUse" x="18" y="31" width="10" height="12">
<path d="M18.0537 31.6069L27.0556 36.8057L18.0537 42.0045V31.6069Z" fill="white"/>
</mask>
<g mask="url(#mask17_356_3620)">
<path d="M21.0396 27.3657L31.9516 35.0556L24.0697 46.2433L13.1577 38.5559L21.0396 27.3657Z" fill="white"/>
</g>
<mask id="mask18_356_3620" style="mask-type:luminance" maskUnits="userSpaceOnUse" x="38" y="10" width="7" height="7">
<path d="M44.24 13.7369L38.8394 16.8557V10.6182L44.24 13.7369Z" fill="white"/>
</mask>
<g mask="url(#mask18_356_3620)">
<path d="M38.4502 16.8309L38.8588 10.2808L44.6287 10.6426L44.22 17.1903L38.4502 16.8309Z" fill="white"/>
</g>
<mask id="mask19_356_3620" style="mask-type:luminance" maskUnits="userSpaceOnUse" x="29" y="1" width="7" height="7">
<path d="M35.3879 4.63585L29.9849 7.75463L29.9873 1.51709L35.3879 4.63585Z" fill="white"/>
</mask>
<g mask="url(#mask19_356_3620)">
<path d="M29.5962 7.73033L30.0073 1.18018L35.7771 1.53956L35.3685 8.09217L29.5962 7.73033Z" fill="white"/>
</g>
<mask id="mask20_356_3620" style="mask-type:luminance" maskUnits="userSpaceOnUse" x="27" y="17" width="9" height="9">
<path d="M35.1639 21.2069L27.9565 25.3644V17.0469L35.1639 21.2069Z" fill="white"/>
</mask>
<g mask="url(#mask20_356_3620)">
<path d="M27.4399 25.3322L27.9864 16.5962L35.6812 17.0787L35.1372 25.8146L27.4399 25.3322Z" fill="white"/>
</g>
<mask id="mask21_356_3620" style="mask-type:luminance" maskUnits="userSpaceOnUse" x="19" y="5" width="7" height="7">
<path d="M25.2561 11.779L19.8555 8.66027L25.2561 5.5415V11.779Z" fill="white"/>
</mask>
<g mask="url(#mask21_356_3620)">
<path d="M19.4668 11.7572L19.8754 5.20459L25.6453 5.56643L25.2342 12.1166L19.4668 11.7572Z" fill="white"/>
</g>
<mask id="mask22_356_3620" style="mask-type:luminance" maskUnits="userSpaceOnUse" x="18" y="15" width="9" height="10">
<path d="M26.1566 15.8696V24.1872L18.9541 20.0296L26.1566 15.8696Z" fill="white"/>
</mask>
<g mask="url(#mask22_356_3620)">
<path d="M18.4351 24.1554L18.9815 15.4219L26.6738 15.9019L26.1298 24.6379L18.4351 24.1554Z" fill="white"/>
</g>
<mask id="mask23_356_3620" style="mask-type:luminance" maskUnits="userSpaceOnUse" x="9" y="21" width="10" height="11">
<path d="M18.0531 21.2075V31.6075L9.04883 26.4063L18.0531 21.2075Z" fill="white"/>
</mask>
<g mask="url(#mask23_356_3620)">
<path d="M8.40137 31.5649L9.08321 20.6455L18.7004 21.2461L18.0161 32.1655L8.40137 31.5649Z" fill="white"/>
</g>
<mask id="mask24_356_3620" style="mask-type:luminance" maskUnits="userSpaceOnUse" x="9" y="10" width="9" height="9">
<path d="M17.1527 18.987L9.94775 14.8294L17.1527 10.6694V18.987Z" fill="white"/>
</mask>
<g mask="url(#mask24_356_3620)">
<path d="M9.43066 18.9542L9.97713 10.2207L17.6719 10.7032L17.1254 19.4367L9.43066 18.9542Z" fill="white"/>
</g>
<mask id="mask25_356_3620" style="mask-type:luminance" maskUnits="userSpaceOnUse" x="10" y="0" width="7" height="7">
<path d="M16.2517 0.341309L10.8462 3.46007L16.2517 6.57885V0.341309Z" fill="white"/>
</mask>
<g mask="url(#mask25_356_3620)">
<path d="M10.457 6.55602L10.8681 0.00585938L16.638 0.365249L16.2293 6.9154L10.457 6.55602Z" fill="white"/>
</g>
<mask id="mask26_356_3620" style="mask-type:luminance" maskUnits="userSpaceOnUse" x="0" y="17" width="9" height="9">
<path d="M8.14584 25.3644L0.940918 21.2044L8.14584 17.0469V25.3644Z" fill="white"/>
</mask>
<g mask="url(#mask26_356_3620)">
<path d="M0.424316 25.3327L0.970778 16.5991L8.66309 17.0791L8.11662 25.8151L0.424316 25.3327Z" fill="white"/>
</g>
<mask id="mask27_356_3620" style="mask-type:luminance" maskUnits="userSpaceOnUse" x="-1" y="5" width="7" height="7">
<path d="M5.24878 5.08496V11.325L-0.154297 8.20619L5.24878 5.08496Z" fill="white"/>
</mask>
<g mask="url(#mask27_356_3620)">
<path d="M-0.542969 11.3007L-0.134352 4.74805L5.63549 5.10989L5.22688 11.6625L-0.542969 11.3007Z" fill="white"/>
</g>
<mask id="mask28_356_3620" style="mask-type:luminance" maskUnits="userSpaceOnUse" x="28" y="11" width="7" height="8">
<path d="M34.2625 18.1556L28.8569 15.0343L34.2625 11.9131V18.1556Z" fill="white"/>
</mask>
<g mask="url(#mask28_356_3620)">
<path d="M34.2625 11.9136H28.8569V18.156H34.2625V11.9136Z" fill="white"/>
</g>
<mask id="mask29_356_3620" style="mask-type:luminance" maskUnits="userSpaceOnUse" x="19" y="0" width="7" height="7">
<path d="M19.856 0.341309V6.57885L25.2566 3.46007L19.856 0.341309Z" fill="white"/>
</mask>
<g mask="url(#mask29_356_3620)">
<path d="M25.2561 0.341309H19.8555V6.57885H25.2561V0.341309Z" fill="white"/>
</g>
<mask id="mask30_356_3620" style="mask-type:luminance" maskUnits="userSpaceOnUse" x="18" y="10" width="9" height="9">
<path d="M26.1566 14.8275L18.9541 18.985V10.6699L26.1566 14.8275Z" fill="white"/>
</mask>
<g mask="url(#mask30_356_3620)">
<path d="M26.1571 10.6704H18.9546V18.988H26.1571V10.6704Z" fill="white"/>
</g>
<mask id="mask31_356_3620" style="mask-type:luminance" maskUnits="userSpaceOnUse" x="18" y="21" width="10" height="11">
<path d="M27.056 26.4068L18.0542 31.608V21.208L27.056 26.4068Z" fill="white"/>
</mask>
<g mask="url(#mask31_356_3620)">
<path d="M27.058 21.208H18.0537V31.6056H27.058V21.208Z" fill="white"/>
</g>
<mask id="mask32_356_3620" style="mask-type:luminance" maskUnits="userSpaceOnUse" x="10" y="7" width="7" height="7">
<path d="M16.2542 10.4191L10.8486 13.5378V7.30029L16.2542 10.4191Z" fill="white"/>
</mask>
<g mask="url(#mask32_356_3620)">
<path d="M16.2542 7.30029H10.8486V13.5403H16.2542V7.30029Z" fill="white"/>
</g>
<mask id="mask33_356_3620" style="mask-type:luminance" maskUnits="userSpaceOnUse" x="9" y="15" width="9" height="10">
<path d="M17.1527 20.0296L9.94775 24.1872V15.8696L17.1527 20.0296Z" fill="white"/>
</mask>
<g mask="url(#mask33_356_3620)">
<path d="M17.1502 15.8696H9.94775V24.1896H17.1502V15.8696Z" fill="white"/>
</g>
<mask id="mask34_356_3620" style="mask-type:luminance" maskUnits="userSpaceOnUse" x="1" y="11" width="7" height="8">
<path d="M7.24487 15.0353L1.8418 18.154V11.9165L7.24487 15.0353Z" fill="white"/>
</mask>
<g mask="url(#mask34_356_3620)">
<path d="M7.24487 11.9165H1.8418V18.154H7.24487V11.9165Z" fill="white"/>
</g>
<mask id="mask35_356_3620" style="mask-type:luminance" maskUnits="userSpaceOnUse" x="10" y="55" width="7" height="7">
<path d="M10.8462 58.5719L16.2517 61.6907V55.4507L10.8462 58.5719Z" fill="white"/>
</mask>
<g mask="url(#mask35_356_3620)">
<path d="M18.8658 60.2733L12.0744 63.9558L8.23193 56.869L15.0233 53.1865L18.8658 60.2733Z" fill="white"/>
</g>
<mask id="mask36_356_3620" style="mask-type:luminance" maskUnits="userSpaceOnUse" x="9" y="31" width="10" height="12">
<path d="M18.0536 31.6069V42.0045L9.04932 36.8032L18.0536 31.6069Z" fill="white"/>
</mask>
<g mask="url(#mask36_356_3620)">
<path d="M22.41 39.644L11.0919 45.7781L4.69189 33.9676L16.0076 27.8335L22.41 39.644Z" fill="white"/>
</g>
<mask id="mask37_356_3620" style="mask-type:luminance" maskUnits="userSpaceOnUse" x="1" y="52" width="7" height="8">
<path d="M7.24487 52.8525V59.0925L1.8418 55.9738L7.24487 52.8525Z" fill="white"/>
</mask>
<g mask="url(#mask37_356_3620)">
<path d="M9.85892 57.6742L3.06754 61.3542L-0.772461 54.2699L6.01646 50.5874L9.85892 57.6742Z" fill="white"/>
</g>
<mask id="mask38_356_3620" style="mask-type:luminance" maskUnits="userSpaceOnUse" x="0" y="32" width="9" height="9">
<path d="M8.14338 36.806L0.940918 40.9635V32.646L8.14338 36.806Z" fill="white"/>
</mask>
<g mask="url(#mask38_356_3620)">
<path d="M11.6291 39.0753L2.57803 43.9812L-2.54443 34.5338L6.5091 29.6279L11.6291 39.0753Z" fill="white"/>
</g>
<mask id="mask39_356_3620" style="mask-type:luminance" maskUnits="userSpaceOnUse" x="0" y="22" width="9" height="9">
<path d="M8.14338 26.4056L0.940918 30.5656V22.248L8.14338 26.4056Z" fill="white"/>
</mask>
<g mask="url(#mask39_356_3620)">
<path d="M11.6291 28.6754L2.57801 33.5837L-2.54199 24.1363L6.50909 19.2305L11.6291 28.6754Z" fill="white"/>
</g>
<mask id="mask40_356_3620" style="mask-type:luminance" maskUnits="userSpaceOnUse" x="9" y="44" width="9" height="9">
<path d="M17.1502 52.5407L9.94531 48.3807L17.1502 44.2207V52.5407Z" fill="white"/>
</mask>
<g mask="url(#mask40_356_3620)">
<path d="M20.7665 50.4358L11.7696 55.6715L6.32959 46.3251L15.329 41.0894L20.7665 50.4358Z" fill="white"/>
</g>
<mask id="mask41_356_3620" style="mask-type:luminance" maskUnits="userSpaceOnUse" x="9" y="26" width="10" height="11">
<path d="M18.0531 31.6075L9.04883 36.8038V26.4062L18.0531 31.6075Z" fill="white"/>
</mask>
<g mask="url(#mask41_356_3620)">
<path d="M22.5724 34.1717L11.3256 40.7169L4.52686 29.0345L15.7736 22.4893L22.5724 34.1717Z" fill="white"/>
</g>
<mask id="mask42_356_3620" style="mask-type:luminance" maskUnits="userSpaceOnUse" x="10" y="50" width="7" height="7">
<path d="M16.2517 53.3732L10.8462 56.4944V50.2544L16.2517 53.3732Z" fill="white"/>
</mask>
<g mask="url(#mask42_356_3620)">
<path d="M18.9641 54.9148L12.2145 58.8434L8.1333 51.8329L14.8828 47.9043L18.9641 54.9148Z" fill="white"/>
</g>
<mask id="mask43_356_3620" style="mask-type:luminance" maskUnits="userSpaceOnUse" x="9" y="39" width="9" height="9">
<path d="M17.1502 43.1829L9.94775 47.3429V39.0229L17.1502 43.1829Z" fill="white"/>
</mask>
<g mask="url(#mask43_356_3620)">
<path d="M20.766 45.2381L11.7691 50.4738L6.3291 41.1273L15.326 35.8916L20.766 45.2381Z" fill="white"/>
</g>
<mask id="mask44_356_3620" style="mask-type:luminance" maskUnits="userSpaceOnUse" x="1" y="45" width="7" height="7">
<path d="M7.24487 48.1744L1.8418 51.2907V45.0557L7.24487 48.1744Z" fill="white"/>
</mask>
<g mask="url(#mask44_356_3620)">
<path d="M9.95524 49.716L3.20817 53.6422L-0.870605 46.6342L5.87647 42.708L9.95524 49.716Z" fill="white"/>
</g>
<mask id="mask45_356_3620" style="mask-type:luminance" maskUnits="userSpaceOnUse" x="0" y="37" width="9" height="10">
<path d="M8.14338 37.8472V46.1623L0.940918 42.0047L8.14338 37.8472Z" fill="white"/>
</mask>
<g mask="url(#mask45_356_3620)">
<path d="M11.7596 44.0603L2.76271 49.2935L-2.67236 39.9495L6.3221 34.7163L11.7596 44.0603Z" fill="white"/>
</g>
<mask id="mask46_356_3620" style="mask-type:luminance" maskUnits="userSpaceOnUse" x="0" y="27" width="9" height="9">
<path d="M8.14338 27.4443V35.7594L0.940918 31.6068L8.14338 27.4443Z" fill="white"/>
</mask>
<g mask="url(#mask46_356_3620)">
<path d="M11.7596 33.658L2.76271 38.8912L-2.67236 29.5472L6.3221 24.314L11.7596 33.658Z" fill="white"/>
</g>
<path d="M62.7227 55.3754C62.5184 55.2277 62.2821 55.1096 62.0187 55.0234C61.7553 54.9372 61.487 54.8609 61.2088 54.7969C60.9307 54.7329 60.6624 54.6739 60.399 54.6197C60.1356 54.5656 59.8993 54.4966 59.6901 54.4129C59.4808 54.3292 59.3159 54.2209 59.1904 54.088C59.0648 53.9575 59.0008 53.7852 59.0008 53.5736C59.0008 53.3496 59.0451 53.1625 59.1313 53.0123C59.2174 52.8597 59.3331 52.7416 59.4784 52.6505C59.6236 52.5619 59.7885 52.4954 59.9756 52.4585C60.1602 52.4191 60.3498 52.3994 60.5442 52.3994C61.0193 52.3994 61.4107 52.5102 61.7159 52.7317C62.0211 52.9532 62.1984 53.3102 62.2501 53.8049H63.1165C63.1042 53.4259 63.0304 53.1009 62.895 52.8277C62.7596 52.5545 62.5824 52.328 62.3559 52.1483C62.1295 51.9686 61.8685 51.8382 61.5658 51.752C61.263 51.6683 60.9356 51.6265 60.5811 51.6265C60.2685 51.6265 59.9608 51.6683 59.663 51.7471C59.3651 51.8283 59.0968 51.9489 58.863 52.1114C58.6291 52.2763 58.4396 52.4831 58.3018 52.7391C58.159 52.9926 58.0876 53.2929 58.0876 53.64C58.0876 53.9526 58.1516 54.2136 58.2771 54.4203C58.4027 54.6246 58.5701 54.7945 58.7768 54.9323C58.9861 55.0677 59.2224 55.1735 59.4858 55.2548C59.7491 55.336 60.0199 55.4049 60.2956 55.4615C60.5713 55.5206 60.8421 55.5797 61.1055 55.6412C61.3688 55.7028 61.6027 55.7791 61.8095 55.8726C62.0138 55.9662 62.1811 56.0868 62.3067 56.2345C62.4322 56.3822 62.4938 56.5766 62.4938 56.8129C62.4938 57.064 62.4421 57.2708 62.3411 57.4283C62.2378 57.5883 62.1024 57.7163 61.935 57.8098C61.7676 57.9034 61.5805 57.9699 61.3738 58.0068C61.1645 58.0462 60.9578 58.0659 60.751 58.0659C60.4876 58.0659 60.2365 58.0339 59.9953 57.9699C59.7541 57.9059 59.5424 57.8074 59.3602 57.672C59.1781 57.5366 59.0304 57.3643 58.9171 57.1575C58.8039 56.9483 58.7498 56.6997 58.7498 56.4117H57.8833C57.8833 56.8302 57.9596 57.192 58.1098 57.4948C58.2599 57.8 58.4642 58.0511 58.7251 58.2505C58.9861 58.4499 59.2864 58.5975 59.631 58.6935C59.9756 58.7895 60.3399 58.8388 60.7239 58.8388C61.039 58.8388 61.3541 58.7994 61.6716 58.7231C61.9891 58.6468 62.2771 58.5262 62.5331 58.3612C62.7891 58.1988 62.9984 57.9871 63.1633 57.7262C63.3258 57.4677 63.4095 57.1526 63.4095 56.7859C63.4095 56.4535 63.3479 56.1729 63.2199 55.944C63.0944 55.7102 62.9295 55.5231 62.7227 55.3754Z" fill="white"/>
<path d="M68.3157 57.9277C68.2935 57.8391 68.2837 57.6963 68.2837 57.5043V54.9418C68.2837 54.6538 68.2295 54.42 68.1188 54.2403C68.0104 54.0606 67.8652 53.9203 67.6855 53.8194C67.5058 53.7209 67.304 53.6545 67.0824 53.6225C66.8609 53.5905 66.6394 53.5757 66.4129 53.5757C66.1372 53.5757 65.8738 53.6052 65.6228 53.6618C65.3717 53.7209 65.1501 53.8145 64.9581 53.9449C64.7661 54.0778 64.6111 54.2477 64.4954 54.4618C64.3797 54.6735 64.3157 54.9344 64.3034 55.2421H65.1206C65.1403 54.8754 65.2658 54.6268 65.4947 54.4963C65.7261 54.3634 66.0141 54.2994 66.3637 54.2994C66.4917 54.2994 66.6197 54.3092 66.7526 54.3289C66.8855 54.3486 67.0037 54.388 67.1095 54.4446C67.2154 54.5037 67.3015 54.5849 67.3704 54.6957C67.4369 54.804 67.4714 54.9492 67.4714 55.1289C67.4714 55.284 67.4271 55.3997 67.336 55.4809C67.2449 55.5621 67.1243 55.6237 66.9692 55.6631C66.8141 55.7049 66.6369 55.7369 66.4351 55.7591C66.2332 55.7812 66.0191 55.8157 65.7951 55.86C65.5834 55.8994 65.3766 55.9486 65.1723 56.0077C64.9704 56.0692 64.7907 56.1529 64.6332 56.2637C64.4757 56.372 64.3477 56.5172 64.2517 56.6969C64.1557 56.8766 64.1064 57.108 64.1064 57.3911C64.1064 57.6421 64.1508 57.8538 64.2369 58.0311C64.3231 58.2083 64.4388 58.3535 64.5889 58.4643C64.7366 58.5751 64.9114 58.6588 65.1132 58.7104C65.3151 58.7621 65.5292 58.7892 65.7557 58.7892C66.1027 58.7892 66.4252 58.7277 66.7231 58.6071C67.0209 58.484 67.2843 58.2895 67.5083 58.0188C67.5083 58.2871 67.5698 58.484 67.6954 58.6071C67.8209 58.7277 67.9883 58.7892 68.2 58.7892C68.4437 58.7892 68.6406 58.7449 68.7883 58.6538V58.0188C68.6997 58.0508 68.6135 58.0655 68.5372 58.0655C68.4117 58.0631 68.3378 58.0163 68.3157 57.9277ZM67.464 56.9357C67.464 57.0514 67.4344 57.1744 67.3778 57.3049C67.3187 57.4378 67.2301 57.5584 67.1071 57.6717C66.9864 57.7849 66.8289 57.876 66.6344 57.9498C66.4424 58.0237 66.2111 58.0606 65.9428 58.0606C65.8148 58.0606 65.6917 58.0483 65.576 58.0212C65.4603 57.9966 65.3594 57.9548 65.2707 57.8957C65.1846 57.8366 65.1132 57.7628 65.0591 57.6692C65.0049 57.5781 64.9778 57.4625 64.9778 57.3271C64.9778 57.172 65.0049 57.044 65.0591 56.9406C65.1132 56.8372 65.1846 56.7535 65.2757 56.6846C65.3643 56.6181 65.4726 56.564 65.5932 56.5271C65.7138 56.4877 65.8418 56.4557 65.9772 56.4311C66.1126 56.404 66.2504 56.3843 66.3957 56.3671C66.5409 56.3523 66.6763 56.3326 66.8043 56.308C66.9323 56.2858 67.0554 56.2588 67.1711 56.2268C67.2867 56.1948 67.3828 56.1504 67.4591 56.0914V56.9357H67.464Z" fill="white"/>
<path d="M72.8571 56.503C72.8571 56.727 72.8276 56.9363 72.766 57.1258C72.7045 57.3153 72.6134 57.4803 72.4903 57.6206C72.3672 57.7633 72.2171 57.8716 72.0325 57.9479C71.8503 58.0242 71.6312 58.0636 71.3826 58.0636C71.07 58.0636 70.8214 57.9726 70.6417 57.7929C70.462 57.6132 70.3709 57.3695 70.3709 57.0593V53.6895H69.5537V56.9633C69.5537 57.2341 69.5808 57.4778 69.6349 57.6993C69.6891 57.9209 69.7826 58.1129 69.9205 58.2729C70.0559 58.4329 70.2306 58.5584 70.4497 58.647C70.6663 58.7381 70.942 58.7824 71.2669 58.7824C71.6263 58.7824 71.9439 58.7086 72.2171 58.5609C72.4903 58.4132 72.7119 58.1842 72.8866 57.8766H72.9039V58.6667H73.6743V53.687H72.8546V56.503H72.8571Z" fill="white"/>
<path d="M78.5382 54.354H78.5185C78.4299 54.2063 78.3192 54.0832 78.1862 53.9847C78.0533 53.8838 77.9155 53.805 77.7678 53.7435C77.6201 53.682 77.4724 53.6401 77.3247 53.613C77.177 53.5884 77.0392 53.5737 76.9112 53.5737C76.5321 53.5737 76.1998 53.6426 75.9142 53.7804C75.6287 53.9183 75.3899 54.1078 75.2029 54.3441C75.0133 54.5829 74.8705 54.8561 74.7795 55.1663C74.6859 55.4789 74.6392 55.8112 74.6392 56.1632C74.6392 56.5152 74.6884 56.85 74.7819 57.165C74.8804 57.4776 75.0207 57.7558 75.2102 57.997C75.3998 58.2383 75.6361 58.4303 75.9216 58.5706C76.2072 58.7109 76.5444 58.7823 76.9284 58.7823C77.2755 58.7823 77.593 58.7207 77.881 58.5927C78.1715 58.4672 78.3807 58.2678 78.5161 57.9897H78.5358V58.6641H79.353V51.7915H78.5358V54.354H78.5382ZM78.4841 56.8697C78.4299 57.0937 78.3413 57.2955 78.2182 57.4727C78.0976 57.65 77.9401 57.7927 77.7456 57.901C77.5512 58.0093 77.3198 58.066 77.0416 58.066C76.7782 58.066 76.5493 58.0143 76.3524 57.9109C76.1555 57.8075 75.9979 57.6697 75.8724 57.4949C75.7469 57.3226 75.6533 57.1256 75.5942 56.9016C75.5327 56.6801 75.5032 56.4561 75.5032 56.2223C75.5032 55.9786 75.5278 55.7423 75.5795 55.5109C75.6312 55.2795 75.7149 55.0727 75.8306 54.8955C75.9462 54.7158 76.0989 54.5706 76.2884 54.4623C76.4779 54.354 76.7142 54.2973 76.9973 54.2973C77.2804 54.2973 77.5192 54.3515 77.7185 54.4573C77.9179 54.5632 78.0804 54.7035 78.2035 54.8758C78.329 55.0506 78.4201 55.2524 78.4792 55.4789C78.5382 55.7078 78.5653 55.9417 78.5653 56.1878C78.5678 56.4167 78.5407 56.6457 78.4841 56.8697Z" fill="white"/>
<path d="M81.4872 53.689H80.6675V58.6687H81.4872V53.689Z" fill="white"/>
<path d="M87.9289 51.7939H85.5708V58.6715H87.9289C88.5 58.6715 88.9948 58.5903 89.4133 58.4303C89.8317 58.2703 90.1739 58.0364 90.4422 57.7312C90.7129 57.426 90.9099 57.0493 91.0403 56.6038C91.1683 56.1583 91.2323 55.6438 91.2323 55.0678C91.2323 53.965 90.9468 53.1429 90.3757 52.6013C89.8022 52.0623 88.9874 51.7939 87.9289 51.7939ZM90.1886 56.2764C90.1025 56.5743 89.9917 56.8253 89.8563 57.0223C89.7209 57.2217 89.5683 57.3792 89.3985 57.4949C89.2286 57.6106 89.0563 57.6992 88.884 57.7607C88.7093 57.8223 88.5468 57.8616 88.3917 57.8764C88.2366 57.8912 88.1086 57.901 88.0077 57.901H86.484V52.5644H88.0249C88.4483 52.5644 88.8053 52.626 89.0933 52.7466C89.3813 52.8697 89.6176 53.042 89.8022 53.266C89.9843 53.4924 90.1148 53.7656 90.196 54.0881C90.2773 54.413 90.3166 54.7798 90.3166 55.1909C90.3191 55.6167 90.2723 55.9786 90.1886 56.2764Z" fill="white"/>
<path d="M96.1482 57.9277C96.126 57.8391 96.1162 57.6963 96.1162 57.5043V54.9418C96.1162 54.6538 96.062 54.42 95.9537 54.2403C95.8454 54.0606 95.7002 53.9203 95.518 53.8194C95.3383 53.7209 95.1365 53.6545 94.9149 53.6225C94.6934 53.5905 94.4719 53.5757 94.2454 53.5757C93.9697 53.5757 93.7063 53.6052 93.4552 53.6618C93.2042 53.7209 92.9826 53.8145 92.7906 53.9449C92.5986 54.0778 92.4435 54.2477 92.3279 54.4618C92.2122 54.6735 92.1482 54.9344 92.1359 55.2421H92.9531C92.9728 54.8754 93.0983 54.6268 93.3272 54.4963C93.5586 54.3634 93.8466 54.2994 94.1962 54.2994C94.3242 54.2994 94.4546 54.3092 94.5851 54.3289C94.718 54.3486 94.8362 54.388 94.942 54.4446C95.0479 54.5037 95.134 54.5849 95.2029 54.6957C95.2694 54.804 95.3039 54.9492 95.3039 55.1289C95.3039 55.284 95.2596 55.3997 95.1685 55.4809C95.0799 55.5621 94.9568 55.6237 94.8017 55.6631C94.6466 55.7049 94.4694 55.7369 94.2675 55.7591C94.0657 55.7812 93.8516 55.8157 93.6276 55.86C93.4159 55.8994 93.2091 55.9486 93.0048 56.0077C92.8029 56.0692 92.6232 56.1529 92.4657 56.2637C92.3082 56.372 92.1802 56.5172 92.0842 56.6969C91.9882 56.8766 91.9414 57.108 91.9414 57.3911C91.9414 57.6421 91.9832 57.8538 92.0694 58.0311C92.1555 58.2083 92.2737 58.3535 92.4214 58.4643C92.5691 58.5751 92.7439 58.6588 92.9482 58.7104C93.15 58.7621 93.3642 58.7892 93.5882 58.7892C93.9353 58.7892 94.2577 58.7277 94.5556 58.6071C94.8534 58.484 95.1143 58.2895 95.3408 58.0188C95.3408 58.2871 95.4023 58.484 95.5279 58.6071C95.6534 58.7277 95.8208 58.7892 96.0325 58.7892C96.2786 58.7892 96.4731 58.7449 96.6208 58.6538V58.0188C96.5322 58.0508 96.446 58.0655 96.3697 58.0655C96.2466 58.0631 96.1703 58.0163 96.1482 57.9277ZM95.2965 56.9357C95.2965 57.0514 95.2669 57.1744 95.2103 57.3049C95.1512 57.4378 95.0626 57.5584 94.9396 57.6717C94.8189 57.7849 94.6614 57.876 94.4669 57.9498C94.2749 58.0237 94.0435 58.0606 93.7752 58.0606C93.6472 58.0606 93.5242 58.0483 93.4085 58.0212C93.2928 57.9966 93.1919 57.9548 93.1032 57.8957C93.0171 57.8366 92.9457 57.7628 92.8916 57.6692C92.8374 57.5781 92.8079 57.4625 92.8079 57.3271C92.8079 57.172 92.8349 57.044 92.8916 56.9406C92.9457 56.8372 93.0171 56.7535 93.1082 56.6846C93.1968 56.6181 93.3051 56.564 93.4257 56.5271C93.5463 56.4877 93.6743 56.4557 93.8097 56.4311C93.9451 56.404 94.0854 56.3843 94.2282 56.3671C94.3734 56.3523 94.5088 56.3326 94.6368 56.308C94.7648 56.2858 94.8879 56.2588 95.0036 56.2268C95.1193 56.1948 95.2152 56.1504 95.2916 56.0914V56.9357H95.2965Z" fill="white"/>
<path d="M98.5234 52.1978H97.7037V53.6894H96.8569V54.4131H97.7037V57.5811C97.7037 57.8125 97.7283 57.9996 97.7726 58.1399C97.8169 58.2802 97.8859 58.391 97.9794 58.4673C98.0705 58.5461 98.1935 58.5978 98.3462 58.6273C98.4963 58.6568 98.6785 58.6716 98.8902 58.6716H99.5154V57.9479H99.1412C99.0132 57.9479 98.9074 57.943 98.8286 57.9331C98.7474 57.9233 98.6859 57.9036 98.6415 57.8716C98.5972 57.8396 98.5652 57.7953 98.5505 57.7362C98.5357 57.6771 98.5259 57.6008 98.5259 57.5048V54.4131H99.5179V53.6894H98.5259V52.1978H98.5234Z" fill="white"/>
<path d="M104.355 57.9277C104.333 57.8391 104.323 57.6963 104.323 57.5043V54.9418C104.323 54.6538 104.269 54.42 104.158 54.2403C104.05 54.0606 103.905 53.9203 103.725 53.8194C103.545 53.7209 103.343 53.6545 103.122 53.6225C102.9 53.5905 102.679 53.5757 102.452 53.5757C102.177 53.5757 101.913 53.6052 101.662 53.6618C101.411 53.7209 101.19 53.8145 100.998 53.9449C100.806 54.0778 100.651 54.2477 100.535 54.4618C100.419 54.6735 100.355 54.9344 100.343 55.2421H101.16C101.18 54.8754 101.305 54.6268 101.537 54.4963C101.768 54.3634 102.056 54.2994 102.406 54.2994C102.534 54.2994 102.664 54.3092 102.795 54.3289C102.927 54.3486 103.046 54.388 103.151 54.4446C103.257 54.5037 103.343 54.5849 103.412 54.6957C103.479 54.804 103.513 54.9492 103.513 55.1289C103.513 55.284 103.469 55.3997 103.378 55.4809C103.289 55.5621 103.166 55.6237 103.011 55.6631C102.856 55.7049 102.679 55.7369 102.477 55.7591C102.275 55.7812 102.061 55.8157 101.837 55.86C101.625 55.8994 101.419 55.9486 101.214 56.0077C101.012 56.0692 100.833 56.1529 100.675 56.2637C100.518 56.372 100.39 56.5172 100.294 56.6969C100.198 56.8766 100.151 57.108 100.151 57.3911C100.151 57.6421 100.193 57.8538 100.279 58.0311C100.365 58.2083 100.483 58.3535 100.631 58.4643C100.779 58.5751 100.953 58.6588 101.158 58.7104C101.36 58.7621 101.574 58.7892 101.798 58.7892C102.145 58.7892 102.467 58.7277 102.765 58.6071C103.063 58.484 103.324 58.2895 103.55 58.0188C103.55 58.2871 103.612 58.484 103.737 58.6071C103.863 58.7277 104.03 58.7892 104.242 58.7892C104.488 58.7892 104.683 58.7449 104.83 58.6538V58.0188C104.742 58.0508 104.655 58.0655 104.579 58.0655C104.454 58.0631 104.377 58.0163 104.355 57.9277ZM103.503 56.9357C103.503 57.0514 103.474 57.1744 103.417 57.3049C103.358 57.4378 103.27 57.5584 103.147 57.6717C103.026 57.7849 102.868 57.876 102.674 57.9498C102.482 58.0237 102.251 58.0606 101.982 58.0606C101.854 58.0606 101.731 58.0483 101.615 58.0212C101.5 57.9966 101.399 57.9548 101.31 57.8957C101.224 57.8366 101.153 57.7628 101.099 57.6692C101.044 57.5781 101.015 57.4625 101.015 57.3271C101.015 57.172 101.042 57.044 101.099 56.9406C101.153 56.8372 101.224 56.7535 101.315 56.6846C101.404 56.6181 101.512 56.564 101.633 56.5271C101.753 56.4877 101.881 56.4557 102.017 56.4311C102.152 56.404 102.292 56.3843 102.435 56.3671C102.58 56.3523 102.716 56.3326 102.844 56.308C102.972 56.2858 103.095 56.2588 103.211 56.2268C103.326 56.1948 103.422 56.1504 103.499 56.0914V56.9357H103.503Z" fill="white"/>
<path d="M112.71 56.7097C112.761 56.5915 112.806 56.4709 112.84 56.3478C112.875 56.2247 112.904 56.0918 112.926 55.9466C112.948 55.8038 112.968 55.6291 112.988 55.4223H112.207C112.188 55.7891 112.114 56.1435 111.986 56.4906L110.743 54.9792C110.91 54.8807 111.07 54.7749 111.225 54.6543C111.38 54.5361 111.518 54.4032 111.641 54.2555C111.762 54.1078 111.858 53.9454 111.929 53.7706C111.998 53.5934 112.035 53.4038 112.035 53.1971C112.035 52.9657 111.988 52.7614 111.895 52.5841C111.804 52.4069 111.678 52.2592 111.526 52.1411C111.371 52.0229 111.193 51.9343 110.991 51.8752C110.79 51.8161 110.583 51.7891 110.369 51.7891C110.118 51.7891 109.896 51.8284 109.704 51.9047C109.512 51.9811 109.35 52.0869 109.219 52.2174C109.086 52.3503 108.988 52.5004 108.921 52.6703C108.852 52.8426 108.82 53.0198 108.82 53.2044C108.82 53.3792 108.843 53.5343 108.882 53.6771C108.924 53.8198 108.983 53.9503 109.057 54.0734C109.131 54.1964 109.212 54.3171 109.303 54.4401C109.394 54.5632 109.485 54.6912 109.583 54.8241C109.364 54.9398 109.158 55.0629 108.961 55.1958C108.764 55.3287 108.594 55.474 108.449 55.6389C108.303 55.8038 108.19 55.9885 108.102 56.1928C108.015 56.3971 107.974 56.6358 107.974 56.9041C107.974 57.0444 107.998 57.2217 108.045 57.4334C108.094 57.6451 108.193 57.8518 108.35 58.0488C108.503 58.2481 108.722 58.418 109.005 58.5632C109.288 58.7084 109.66 58.7798 110.123 58.7798C110.307 58.7798 110.497 58.7577 110.686 58.7158C110.876 58.674 111.055 58.6124 111.225 58.5337C111.395 58.4524 111.553 58.354 111.698 58.2309C111.843 58.1103 111.966 57.9675 112.067 57.8075L112.801 58.6641H113.869L112.53 57.1134C112.599 56.9657 112.658 56.8278 112.71 56.7097ZM109.879 52.6949C110.046 52.5743 110.228 52.5177 110.42 52.5177C110.667 52.5177 110.861 52.5891 111.004 52.7343C111.147 52.8771 111.218 53.0494 111.218 53.2488C111.218 53.3964 111.188 53.5318 111.129 53.6475C111.073 53.7681 110.996 53.874 110.908 53.9724C110.819 54.0684 110.718 54.1546 110.607 54.2309C110.499 54.3072 110.393 54.3786 110.297 54.4426C110.219 54.3466 110.142 54.2481 110.063 54.1546C109.985 54.0561 109.916 53.9601 109.849 53.8617C109.785 53.7608 109.731 53.6598 109.689 53.5564C109.647 53.4531 109.625 53.3521 109.625 53.2488C109.628 52.9977 109.711 52.8131 109.879 52.6949ZM110.991 57.842C110.743 57.9897 110.462 58.0635 110.15 58.0635C109.982 58.0635 109.82 58.034 109.665 57.9774C109.507 57.9183 109.367 57.8395 109.246 57.7411C109.123 57.6426 109.025 57.5195 108.953 57.3768C108.879 57.2315 108.843 57.0715 108.843 56.8992C108.843 56.6924 108.875 56.5152 108.939 56.3651C109.003 56.2124 109.091 56.0771 109.199 55.9564C109.308 55.8358 109.436 55.7251 109.581 55.6291C109.726 55.5331 109.876 55.4395 110.039 55.3509L111.619 57.2488C111.447 57.4949 111.238 57.6943 110.991 57.842Z" fill="white"/>
<path d="M119.019 51.7939L116.331 58.6715H117.276L118.046 56.6013H120.953L121.707 58.6715H122.716L120.028 51.7939H119.019ZM118.334 55.8284L119.501 52.621H119.518L120.665 55.8284H118.334Z" fill="white"/>
<path d="M124.342 51.7915H123.429V58.669H124.342V51.7915Z" fill="white"/>
<path d="M130.433 51.7939L127.745 58.6715H128.687L129.458 56.6013H132.367L133.118 58.6715H134.13L131.442 51.7939H130.433ZM129.748 55.8284L130.915 52.621H130.932L132.079 55.8284H129.748Z" fill="white"/>
<path d="M137.972 56.503C137.972 56.727 137.942 56.9363 137.881 57.1258C137.819 57.3153 137.728 57.4803 137.608 57.6206C137.484 57.7633 137.334 57.8716 137.15 57.9479C136.968 58.0242 136.748 58.0636 136.5 58.0636C136.185 58.0636 135.939 57.9726 135.759 57.7929C135.579 57.6132 135.488 57.3695 135.488 57.0593V53.6895H134.671V56.9633C134.671 57.2341 134.698 57.4778 134.752 57.6993C134.806 57.9209 134.9 58.1129 135.038 58.2729C135.173 58.4329 135.348 58.5584 135.567 58.647C135.784 58.7381 136.059 58.7824 136.384 58.7824C136.744 58.7824 137.059 58.7086 137.334 58.5609C137.608 58.4132 137.829 58.1842 138.004 57.8766H138.024V58.6667H138.794V53.687H137.974V56.503H137.972Z" fill="white"/>
<path d="M141.16 52.1978H140.34V53.6894H139.494V54.4131H140.34V57.5811C140.34 57.8125 140.365 57.9996 140.409 58.1399C140.454 58.2802 140.523 58.391 140.616 58.4673C140.707 58.5461 140.83 58.5978 140.983 58.6273C141.133 58.6568 141.315 58.6716 141.527 58.6716H142.152V57.9479H141.778C141.65 57.9479 141.544 57.943 141.465 57.9331C141.384 57.9233 141.323 57.9036 141.276 57.8716C141.231 57.8396 141.202 57.7953 141.185 57.7362C141.17 57.6771 141.16 57.6008 141.16 57.5048V54.4131H142.152V53.6894H141.16V52.1978Z" fill="white"/>
<path d="M146.814 54.0856C146.679 53.9256 146.504 53.8001 146.285 53.709C146.066 53.618 145.792 53.5736 145.467 53.5736C145.32 53.5736 145.167 53.5909 145.01 53.6229C144.852 53.6549 144.702 53.7041 144.562 53.7706C144.421 53.837 144.291 53.9256 144.173 54.0364C144.055 54.1447 143.961 54.2752 143.899 54.4229H143.88V51.7939H143.058V58.669H143.877V55.8579C143.877 55.6339 143.907 55.4272 143.968 55.2377C144.03 55.0481 144.121 54.8832 144.244 54.7404C144.365 54.6001 144.517 54.4893 144.702 54.413C144.884 54.3343 145.103 54.2973 145.352 54.2973C145.664 54.2973 145.913 54.386 146.093 54.5681C146.272 54.7478 146.363 54.9915 146.363 55.2992V58.669H147.181V55.3952C147.181 55.1244 147.154 54.8783 147.099 54.6567C147.043 54.4376 146.949 54.2456 146.814 54.0856Z" fill="white"/>
<path d="M152.362 54.3314C152.158 54.0975 151.904 53.9129 151.602 53.7775C151.299 53.6421 150.952 53.5757 150.56 53.5757C150.162 53.5757 149.814 53.6421 149.517 53.7775C149.219 53.9129 148.965 54.0951 148.758 54.3314C148.554 54.5652 148.399 54.8409 148.298 55.1609C148.195 55.4785 148.143 55.8206 148.143 56.1874C148.143 56.5517 148.195 56.8938 148.298 57.2089C148.399 57.5215 148.554 57.7972 148.758 58.0311C148.965 58.2649 149.216 58.4495 149.517 58.5849C149.814 58.7203 150.164 58.7868 150.56 58.7868C150.952 58.7868 151.299 58.7178 151.602 58.5849C151.904 58.452 152.155 58.2674 152.362 58.0311C152.569 57.7948 152.722 57.5215 152.825 57.2089C152.928 56.8938 152.98 56.5541 152.98 56.1874C152.98 55.8206 152.928 55.4785 152.825 55.1609C152.722 54.8409 152.566 54.5652 152.362 54.3314ZM151.99 56.9874C151.909 57.2212 151.798 57.4181 151.658 57.5757C151.515 57.7332 151.35 57.8538 151.161 57.9375C150.971 58.0212 150.772 58.0631 150.558 58.0631C150.346 58.0631 150.147 58.0212 149.955 57.9375C149.765 57.8538 149.6 57.7332 149.46 57.5757C149.317 57.4181 149.206 57.2237 149.128 56.9874C149.046 56.7535 149.007 56.4852 149.007 56.1849C149.007 55.8821 149.046 55.6138 149.128 55.38C149.209 55.1461 149.32 54.9468 149.46 54.7868C149.6 54.6268 149.765 54.5037 149.955 54.42C150.144 54.3363 150.344 54.2944 150.558 54.2944C150.77 54.2944 150.969 54.3363 151.161 54.42C151.35 54.5037 151.515 54.6268 151.658 54.7868C151.798 54.9468 151.909 55.1461 151.99 55.38C152.072 55.6138 152.111 55.8821 152.111 56.1849C152.111 56.4877 152.072 56.7535 151.99 56.9874Z" fill="white"/>
<path d="M154.703 54.7406H154.684V53.692H153.913V58.6717H154.733V56.4587C154.733 56.1437 154.765 55.8606 154.829 55.6095C154.893 55.3584 154.996 55.1468 155.136 54.9744C155.279 54.7997 155.464 54.6692 155.695 54.5781C155.927 54.4895 156.207 54.4427 156.535 54.4427V53.5763C156.092 53.564 155.725 53.6551 155.437 53.8471C155.144 54.0366 154.9 54.3369 154.703 54.7406Z" fill="white"/>
<path d="M158.016 53.689H157.197V58.6687H158.016V53.689Z" fill="white"/>
<path d="M160.424 52.1978H159.604V53.6894H158.757V54.4131H159.604V57.5811C159.604 57.8125 159.629 57.9996 159.671 58.1399C159.715 58.2802 159.786 58.391 159.877 58.4673C159.971 58.5461 160.094 58.5978 160.244 58.6273C160.394 58.6568 160.576 58.6716 160.788 58.6716H161.413V57.9479H161.039C160.911 57.9479 160.805 57.943 160.727 57.9331C160.645 57.9233 160.584 57.9036 160.537 57.8716C160.493 57.8396 160.463 57.7953 160.446 57.7362C160.431 57.6771 160.421 57.6008 160.421 57.5048V54.4131H161.413V53.6894H160.421V52.1978H160.424Z" fill="white"/>
<path d="M165.575 53.689L164.18 57.7628H164.16L162.705 53.689H161.78L163.754 58.6391L163.417 59.4883C163.34 59.636 163.249 59.7493 163.148 59.8256C163.045 59.9019 162.91 59.9413 162.745 59.9413C162.661 59.9413 162.58 59.929 162.499 59.9019C162.417 59.8773 162.339 59.8502 162.262 59.8256V60.5788C162.351 60.6083 162.444 60.633 162.54 60.6453C162.636 60.6576 162.732 60.665 162.828 60.665C163.008 60.665 163.168 60.6403 163.311 60.5936C163.451 60.5468 163.577 60.468 163.687 60.3622C163.796 60.2563 163.899 60.121 163.99 59.9536C164.084 59.7862 164.18 59.5819 164.276 59.3382L166.442 53.6939H165.575V53.689Z" fill="white"/>
<path d="M81.4847 51.7939H80.665V52.7933L81.4847 52.3207V51.7939Z" fill="white"/>
<path d="M158.016 51.7939H157.197V52.7933L158.016 52.3207V51.7939Z" fill="white"/>
<path d="M57.9429 35.0804C58.0955 35.1912 58.2924 35.2749 58.541 35.3266C58.7872 35.3783 59.0974 35.4029 59.4691 35.4029H65.3054V31.6958H64.5152V34.6029H59.8629C59.5552 34.6029 59.3017 34.593 59.1023 34.5733C58.9029 34.5561 58.7478 34.5143 58.6297 34.4527C58.514 34.3912 58.4327 34.3001 58.3835 34.1819C58.3367 34.0638 58.3121 33.9038 58.3121 33.7044V32.5007H57.522V33.9924C57.522 34.2509 57.554 34.4675 57.618 34.6423C57.6844 34.8244 57.7927 34.9672 57.9429 35.0804Z" fill="white"/>
<path d="M67.0329 35.1243C67.1511 35.2277 67.2963 35.2991 67.4661 35.3409C67.636 35.3827 67.8255 35.4024 68.0298 35.4024H71.9781V31.6929H71.188V34.6024H68.1258C67.8378 34.6024 67.6508 34.5483 67.5671 34.4351C67.4834 34.3243 67.4415 34.1323 67.4415 33.8615V28.5249H66.6514V34.0732C66.6514 34.3292 66.6858 34.5434 66.7523 34.7132C66.8212 34.8831 66.9147 35.0209 67.0329 35.1243Z" fill="white"/>
<path d="M73.6988 35.1244C73.817 35.2278 73.9622 35.2992 74.1321 35.341C74.3019 35.3829 74.4915 35.4026 74.6958 35.4026H77.1622C77.5216 35.4026 77.8244 35.3632 78.073 35.2869C78.3191 35.2081 78.5013 35.0407 78.617 34.7749C78.6687 34.9546 78.7721 35.1047 78.9247 35.2229C79.0798 35.341 79.2767 35.4001 79.5278 35.4001H80.3204C80.6798 35.4001 80.985 35.3607 81.2312 35.2844C81.4798 35.2056 81.6595 35.0383 81.7751 34.7724C81.8268 34.9521 81.9302 35.1023 82.0853 35.2204C82.2379 35.3386 82.4398 35.3976 82.6908 35.3976H83.3751C83.7739 35.3976 84.0988 35.3583 84.3524 35.2819C84.6059 35.2032 84.7905 35.0358 84.9062 34.7699C84.9579 34.9496 85.0588 35.0998 85.209 35.2179C85.3616 35.3361 85.561 35.3952 85.8121 35.3952H88.1062V28.5176H87.3161V34.5952H85.8121C85.5241 34.5952 85.3124 34.4992 85.1819 34.3096C85.049 34.1201 84.985 33.8616 84.985 33.5343V28.5152H84.1948V33.8887C84.1948 34.0487 84.1776 34.1767 84.1431 34.2702C84.1087 34.3638 84.0595 34.4327 83.9979 34.4819C83.9364 34.5312 83.8601 34.5607 83.7715 34.573C83.6828 34.5853 83.5795 34.5927 83.4638 34.5927H82.6933C82.5259 34.5927 82.3881 34.5656 82.2798 34.5139C82.1715 34.4623 82.0828 34.3933 82.0188 34.3022C81.9548 34.2112 81.9105 34.1004 81.8908 33.9699C81.8662 33.837 81.8564 33.6918 81.8564 33.5318V31.6807H81.0662V33.8863C81.0662 34.0463 81.049 34.1743 81.0145 34.2678C80.9801 34.3613 80.9259 34.4303 80.8521 34.4795C80.7782 34.5287 80.6872 34.5583 80.5764 34.5706C80.4681 34.5829 80.3376 34.5903 80.1801 34.5903H79.5327C79.3678 34.5903 79.2299 34.5632 79.1216 34.5115C79.0133 34.4598 78.9247 34.3909 78.8631 34.2998C78.7991 34.2087 78.7548 34.0979 78.7327 33.9675C78.7105 33.8346 78.7007 33.6893 78.7007 33.5293V31.6783H77.9105V33.8838C77.9105 34.0438 77.8933 34.1718 77.8588 34.2653C77.8244 34.3589 77.7678 34.4278 77.6939 34.477C77.6201 34.5263 77.529 34.5558 77.4207 34.5681C77.3124 34.5804 77.1795 34.5878 77.0268 34.5878H74.8016C74.5136 34.5878 74.3265 34.5336 74.2428 34.4204C74.1591 34.3096 74.1173 34.1176 74.1173 33.8469V28.5103H73.3271V34.0586C73.3271 34.3146 73.3616 34.5287 73.4281 34.6986C73.4871 34.8832 73.5807 35.021 73.6988 35.1244Z" fill="white"/>
<path d="M92.1436 34.2926C92.3257 34.4108 92.5202 34.492 92.722 34.5363C92.9239 34.5806 93.1036 34.6028 93.2562 34.6028C93.4236 34.6028 93.5959 34.588 93.7706 34.556C93.9479 34.524 94.1054 34.4822 94.2482 34.4305C94.2728 34.6249 94.3294 34.7825 94.4106 34.908C94.4943 35.0311 94.5953 35.1296 94.7159 35.2034C94.834 35.2772 94.9694 35.3289 95.1196 35.3609C95.2697 35.3905 95.4297 35.4053 95.5971 35.4053H99.6414V31.6982H98.8512V34.6053L95.6931 34.5954C95.4051 34.5954 95.218 34.5388 95.1343 34.428C95.0531 34.3172 95.0113 34.1252 95.0113 33.8594V31.1099H93.4802C93.2488 31.1099 93.0174 31.1419 92.7811 31.2059C92.5473 31.2699 92.3331 31.3732 92.1411 31.5209C91.9466 31.6686 91.7916 31.8582 91.6685 32.092C91.5454 32.3259 91.4863 32.6139 91.4863 32.9585C91.4863 33.3031 91.5503 33.5837 91.6783 33.7979C91.8039 34.0071 91.9589 34.1745 92.1436 34.2926ZM92.5817 32.1412C92.8008 31.9837 93.0642 31.9074 93.3719 31.9074H94.2186V33.6132C94.0906 33.6625 93.9454 33.7043 93.7805 33.7363C93.618 33.7683 93.4654 33.7856 93.3226 33.7856C92.9509 33.7856 92.6777 33.7019 92.5079 33.5369C92.338 33.3696 92.2519 33.1529 92.2519 32.8846C92.2543 32.5449 92.3626 32.2988 92.5817 32.1412Z" fill="white"/>
<path d="M103.831 35.1049C104.042 34.9055 104.148 34.652 104.148 34.3443C104.148 34.204 104.119 34.0563 104.057 33.9061C103.996 33.756 103.904 33.5738 103.781 33.3621C103.661 33.1504 103.503 32.8944 103.316 32.5917C103.127 32.2889 102.903 31.9197 102.647 31.4741L101.906 31.9369C102.233 32.4169 102.491 32.8009 102.681 33.084C102.871 33.367 103.016 33.5861 103.117 33.7387C103.215 33.8938 103.279 34.007 103.304 34.076C103.328 34.1474 103.343 34.2138 103.343 34.2778C103.343 34.3615 103.314 34.4378 103.257 34.5043C103.198 34.5707 103.06 34.6052 102.841 34.6052H100.606V35.4052H102.908C103.309 35.4027 103.619 35.3043 103.831 35.1049Z" fill="white"/>
<path d="M124.163 34.6025H122.647C122.48 34.6025 122.344 34.5779 122.236 34.5238C122.128 34.4721 122.039 34.4031 121.975 34.3121C121.911 34.221 121.869 34.1102 121.847 33.9797C121.825 33.8468 121.812 33.7016 121.812 33.5416V31.693H121.022V33.8985C121.022 34.0585 121.005 34.1865 120.968 34.2801C120.934 34.3736 120.884 34.4425 120.82 34.4918C120.756 34.541 120.68 34.5705 120.589 34.5828C120.498 34.5951 120.4 34.6025 120.291 34.6025C120.099 34.6025 119.944 34.5779 119.824 34.5238C119.705 34.4721 119.612 34.4031 119.545 34.3121C119.479 34.221 119.435 34.1102 119.41 33.9797C119.388 33.8468 119.376 33.7016 119.376 33.5416V32.173H118.585V33.8961C118.585 34.0561 118.568 34.1841 118.531 34.2776C118.497 34.3711 118.443 34.4401 118.374 34.4893C118.302 34.5385 118.216 34.5681 118.113 34.5804C118.009 34.5927 117.889 34.6001 117.748 34.6001C117.524 34.6001 117.345 34.5754 117.214 34.5213C117.081 34.4696 116.98 34.4007 116.909 34.3096C116.84 34.2185 116.793 34.1078 116.774 33.9773C116.754 33.8444 116.744 33.6991 116.744 33.5391V32.1705H115.954V33.8936C115.954 34.0536 115.937 34.1816 115.897 34.2751C115.858 34.3687 115.796 34.4376 115.708 34.4868C115.622 34.5361 115.504 34.5656 115.356 34.5779C115.208 34.5902 115.028 34.5976 114.817 34.5976H113.14C112.941 34.5976 112.781 34.5853 112.66 34.5582C113 34.3219 113.271 34.0462 113.473 33.7385C113.675 33.4308 113.778 33.0985 113.778 32.7465C113.778 32.5988 113.744 32.4536 113.677 32.3084C113.611 32.1656 113.507 32.0351 113.369 31.9244C113.232 31.8136 113.057 31.7225 112.85 31.6536C112.641 31.5871 112.395 31.5527 112.114 31.5527C111.772 31.5527 111.457 31.6142 111.164 31.7348C110.873 31.8579 110.625 32.0204 110.418 32.2271C110.379 32.2665 110.342 32.3158 110.307 32.3773C110.273 32.4388 110.236 32.5053 110.201 32.5791C110.167 32.653 110.132 32.7293 110.103 32.8056C110.073 32.8819 110.051 32.9558 110.032 33.0271L111.235 34.3933C111.019 34.4647 110.79 34.5164 110.551 34.5484C110.315 34.5804 110.073 34.5976 109.83 34.5976H108.712V34.1447C108.712 33.7656 108.68 33.4234 108.614 33.1158C108.55 32.8081 108.446 32.5447 108.301 32.3256C108.156 32.1065 107.969 31.9391 107.737 31.821C107.506 31.7028 107.223 31.6437 106.888 31.6437C106.585 31.6437 106.32 31.7028 106.086 31.821C105.852 31.9416 105.652 32.0967 105.488 32.2887C105.325 32.4807 105.2 32.7047 105.111 32.9533C105.025 33.2044 104.983 33.4604 104.983 33.7238C104.983 34.0364 105.03 34.2998 105.123 34.5139C105.214 34.7256 105.345 34.8979 105.507 35.0284C105.672 35.1613 105.864 35.2548 106.086 35.3139C106.307 35.373 106.548 35.4001 106.812 35.4001H107.9C107.895 35.6561 107.838 35.8653 107.732 36.0253C107.627 36.1853 107.481 36.3108 107.299 36.397C107.117 36.4831 106.9 36.5422 106.649 36.5693C106.398 36.5988 106.123 36.6136 105.82 36.6136H105.522V37.4161H105.926C106.329 37.4161 106.699 37.3841 107.028 37.3201C107.358 37.2561 107.641 37.1478 107.88 36.9927C108.116 36.8376 108.304 36.6333 108.441 36.3748C108.579 36.1188 108.66 35.7939 108.688 35.4025H109.862C110.201 35.4025 110.536 35.3681 110.864 35.3016C111.191 35.2351 111.506 35.1391 111.809 35.0161C111.993 35.1785 112.173 35.2819 112.343 35.3287C112.513 35.3755 112.692 35.4001 112.877 35.4001H114.795C115.078 35.4001 115.321 35.3927 115.521 35.3755C115.723 35.3607 115.892 35.3287 116.033 35.2794C116.171 35.2302 116.284 35.1662 116.37 35.085C116.456 35.0038 116.528 34.8979 116.587 34.7625C116.626 34.8388 116.673 34.9151 116.729 34.9939C116.788 35.0702 116.865 35.1391 116.961 35.2007C117.057 35.2622 117.18 35.309 117.33 35.3459C117.483 35.3804 117.67 35.3976 117.896 35.3976C118.228 35.3976 118.516 35.3582 118.758 35.2819C118.999 35.2031 119.176 35.0358 119.292 34.7699C119.324 34.8413 119.366 34.9127 119.42 34.9865C119.474 35.0604 119.55 35.1268 119.646 35.1884C119.745 35.2499 119.863 35.2991 120.008 35.3361C120.151 35.3754 120.331 35.3951 120.542 35.3951C120.621 35.3951 120.712 35.3878 120.82 35.3705C120.929 35.3558 121.042 35.3238 121.158 35.2794C121.273 35.2351 121.384 35.1736 121.485 35.0924C121.588 35.0111 121.667 34.9028 121.726 34.7674C121.778 34.9471 121.881 35.0973 122.034 35.2154C122.189 35.3336 122.388 35.3927 122.642 35.3927H124.944V28.5151H124.153V34.6025H124.163ZM107.905 34.6025H106.873C106.507 34.6025 106.228 34.5238 106.039 34.3711C105.849 34.2161 105.756 33.9748 105.756 33.6474C105.756 33.4998 105.778 33.3521 105.822 33.2044C105.867 33.0567 105.933 32.9238 106.019 32.8031C106.105 32.685 106.216 32.589 106.352 32.5151C106.487 32.4413 106.647 32.4044 106.834 32.4044C107.225 32.4044 107.501 32.5447 107.661 32.8277C107.821 33.1108 107.902 33.4899 107.902 33.965V34.6025H107.905ZM111.959 34.1127L110.785 32.8696C110.92 32.7022 111.1 32.5668 111.329 32.4659C111.558 32.3625 111.799 32.3108 112.055 32.3108C112.375 32.3108 112.611 32.3699 112.761 32.4881C112.914 32.6062 112.988 32.7391 112.988 32.8868C112.988 33.1256 112.892 33.3496 112.702 33.5613C112.515 33.7754 112.267 33.9576 111.959 34.1127Z" fill="white"/>
<path d="M127.089 28.5273H126.299V35.4049H127.089V28.5273Z" fill="white"/>
<path d="M139.282 30.0663H138.617C138.391 30.0663 138.226 30.0047 138.115 29.8841C138.007 29.7635 137.953 29.6109 137.953 29.4312C137.953 29.2884 137.999 29.1604 138.093 29.0398C138.184 28.9216 138.334 28.8626 138.541 28.8626C138.728 28.8626 138.893 28.8921 139.041 28.9487V28.4293C139.001 28.417 138.935 28.3998 138.834 28.3826C138.733 28.3629 138.617 28.353 138.482 28.353C138.346 28.353 138.218 28.3752 138.098 28.4195C137.975 28.4638 137.866 28.5303 137.77 28.6164C137.674 28.7026 137.598 28.8109 137.539 28.9438C137.48 29.0767 137.453 29.2318 137.453 29.4115C137.453 29.6675 137.527 29.8866 137.674 30.0663H137.182V30.5783H139.282V30.0663Z" fill="white"/>
<path d="M149.972 28.5249H149.182V34.6024H146.292V34.563C146.472 34.4154 146.632 34.2234 146.77 33.9895C146.907 33.7557 146.976 33.4603 146.976 33.1083C146.976 32.9532 146.952 32.7858 146.9 32.6086C146.848 32.4289 146.762 32.2615 146.644 32.1064C146.526 31.9538 146.368 31.8234 146.176 31.7224C145.984 31.6191 145.748 31.5674 145.465 31.5674C144.906 31.5674 144.47 31.7815 144.155 32.2123C143.84 32.6431 143.683 33.251 143.683 34.0412V34.6H142.654C142.486 34.6 142.349 34.5754 142.24 34.5237C142.132 34.472 142.043 34.4006 141.979 34.312C141.915 34.2234 141.871 34.1126 141.849 33.9797C141.827 33.8467 141.817 33.7015 141.817 33.5415V31.6929H141.027V33.8984C141.027 34.0584 141.01 34.1864 140.975 34.2775C140.941 34.3711 140.884 34.4424 140.813 34.4892C140.739 34.5384 140.648 34.568 140.537 34.5803C140.429 34.5926 140.298 34.5975 140.141 34.5975H139.496C139.328 34.5975 139.19 34.5729 139.08 34.5212C138.971 34.4695 138.883 34.3981 138.821 34.3095C138.757 34.2209 138.713 34.1101 138.691 33.9772C138.669 33.8443 138.659 33.6991 138.659 33.5391V31.6904H137.869V33.896C137.869 34.056 137.851 34.184 137.814 34.2751C137.78 34.3686 137.726 34.44 137.652 34.4867C137.578 34.536 137.487 34.5655 137.379 34.5778C137.27 34.5901 137.138 34.595 136.982 34.595L134.681 34.5852C134.393 34.5852 134.206 34.5311 134.125 34.4178C134.041 34.3071 133.999 34.1151 133.999 33.8467V31.0972H132.468C132.237 31.0972 132.003 31.1292 131.769 31.1932C131.533 31.2572 131.321 31.3606 131.126 31.5083C130.934 31.6535 130.777 31.8431 130.654 32.0769C130.531 32.3107 130.472 32.5987 130.472 32.9434C130.472 33.288 130.536 33.5686 130.664 33.7827C130.792 33.9969 130.949 34.1618 131.131 34.28C131.314 34.3981 131.506 34.4794 131.71 34.5261C131.912 34.5704 132.091 34.5926 132.244 34.5926C132.411 34.5926 132.584 34.5778 132.761 34.5458C132.938 34.5138 133.096 34.472 133.238 34.4203C133.263 34.6123 133.317 34.7723 133.401 34.8954C133.485 35.0184 133.586 35.1169 133.704 35.1908C133.824 35.2646 133.957 35.3187 134.107 35.3483C134.26 35.3778 134.418 35.3926 134.585 35.3926H137.128C137.487 35.3926 137.79 35.3532 138.038 35.2769C138.285 35.2006 138.467 35.0307 138.582 34.7674C138.634 34.9471 138.738 35.0972 138.89 35.2154C139.045 35.3335 139.245 35.3926 139.496 35.3926H139.498H140.288C140.648 35.3926 140.95 35.3532 141.199 35.2769C141.448 35.2006 141.627 35.0307 141.743 34.7674C141.795 34.9471 141.898 35.0972 142.051 35.2154C142.206 35.3335 142.408 35.3926 142.659 35.3926H143.688V35.4984C143.688 35.8455 143.717 36.1581 143.774 36.4388C143.833 36.7169 143.929 36.9557 144.067 37.1501C144.205 37.3446 144.387 37.4972 144.611 37.6031C144.835 37.7089 145.115 37.7606 145.448 37.7606C145.699 37.7606 145.92 37.7212 146.107 37.6449C146.297 37.5686 146.454 37.4652 146.58 37.3372C146.706 37.2092 146.799 37.0591 146.863 36.8843C146.927 36.7095 146.962 36.5323 146.962 36.3452C146.962 36.2246 146.939 36.0794 146.898 35.912C146.856 35.7446 146.755 35.5846 146.592 35.432V35.3926H149.974V28.5249H149.972ZM133.206 33.6129C133.078 33.6621 132.931 33.704 132.768 33.7384C132.606 33.7704 132.453 33.7852 132.31 33.7852C131.939 33.7852 131.666 33.7015 131.496 33.5366C131.326 33.3692 131.24 33.1526 131.24 32.8843C131.24 32.5446 131.348 32.2984 131.567 32.1409C131.784 31.9834 132.047 31.9071 132.357 31.9071H133.206V33.6129ZM144.473 33.9674C144.473 33.448 144.557 33.0492 144.729 32.7686C144.899 32.4904 145.14 32.3501 145.455 32.3501C145.659 32.3501 145.839 32.4215 145.994 32.5667C146.149 32.7095 146.226 32.936 146.226 33.2461C146.226 33.3741 146.201 33.5169 146.159 33.6744C146.115 33.832 146.038 33.9797 145.938 34.1175C145.837 34.2554 145.699 34.3711 145.529 34.4646C145.357 34.5581 145.15 34.6049 144.906 34.6049H144.473V33.9674ZM146.038 36.8178C145.906 36.9532 145.706 37.0197 145.435 37.0197C145.231 37.0197 145.066 36.9803 144.941 36.9089C144.815 36.8351 144.717 36.7341 144.645 36.6037C144.576 36.4757 144.527 36.3255 144.505 36.1507C144.483 35.976 144.473 35.7864 144.473 35.5821V35.4H145.184C145.421 35.4 145.61 35.4344 145.748 35.5009C145.886 35.5674 145.992 35.6461 146.066 35.7372C146.139 35.8283 146.186 35.9218 146.206 36.0228C146.226 36.1237 146.235 36.2 146.235 36.2591C146.235 36.4978 146.169 36.6849 146.038 36.8178Z" fill="white"/>
<path d="M152.111 28.5273H151.321V35.4049H152.111V28.5273Z" fill="white"/>
<path d="M63.695 47.0356H68.5984V46.2356H67.1929C66.7744 46.2356 66.4643 46.1322 66.2575 45.9229C66.0532 45.7137 65.9498 45.4454 65.9498 45.118C65.9498 44.7709 66.068 44.5002 66.3067 44.3008C66.543 44.1014 66.8655 44.0029 67.2692 44.0029C67.4735 44.0029 67.6483 44.0177 67.7886 44.0473C67.9289 44.0768 68.0618 44.1112 68.1849 44.1482V43.2916C68.1135 43.2596 67.9954 43.23 67.828 43.2054C67.6606 43.1808 67.4661 43.166 67.2397 43.166C66.9886 43.166 66.74 43.2054 66.4938 43.2817C66.2452 43.3605 66.0212 43.4786 65.8194 43.6362C65.6175 43.7986 65.4526 44.0005 65.3295 44.2442C65.204 44.4879 65.14 44.7783 65.14 45.1131C65.14 45.3568 65.1793 45.5734 65.2557 45.7679C65.332 45.9599 65.428 46.1174 65.5437 46.2405H63.3947C62.6637 46.2405 61.8883 46.0879 61.0735 45.7876V46.5679C61.268 46.6245 61.4895 46.6885 61.7381 46.7599C61.9892 46.8288 62.223 46.9076 62.4446 46.9937C62.6661 47.0799 62.8532 47.1808 63.0034 47.2965C63.1535 47.4122 63.2298 47.5426 63.2298 47.6879C63.2298 47.8232 63.1658 47.9414 63.0378 48.0423C62.9098 48.1432 62.735 48.2294 62.5135 48.2959C62.2944 48.3623 62.036 48.414 61.7406 48.4485C61.4452 48.4829 61.135 48.5002 60.8077 48.5002C59.924 48.5002 59.2864 48.3672 58.895 48.1014C58.5037 47.8356 58.3092 47.4171 58.3092 46.8485V45.5143H57.519V46.9986C57.519 47.326 57.5683 47.6288 57.6643 47.9094C57.7603 48.1876 57.9326 48.4313 58.1787 48.6356C58.4249 48.8399 58.7597 49.0023 59.1806 49.1205C59.6015 49.2386 60.1357 49.2977 60.7855 49.2977C61.3689 49.2977 61.8612 49.2559 62.2649 49.1697C62.6661 49.0836 62.991 48.9679 63.2421 48.8226C63.4932 48.6799 63.6729 48.5125 63.7861 48.3254C63.8969 48.1408 63.9535 47.9488 63.9535 47.7568C63.9535 47.6288 63.9264 47.4959 63.8747 47.358C63.828 47.2202 63.7664 47.1119 63.695 47.0356Z" fill="white"/>
<path d="M89.8172 43.2031C89.3741 43.2031 88.963 43.2942 88.5839 43.4763C88.2049 43.6585 87.8676 43.8973 87.5673 44.1853C87.2695 44.4782 87.011 44.8031 86.7969 45.1649C86.5827 45.5268 86.4129 45.8837 86.2922 46.2357C86.1372 46.2357 86.0166 46.2086 85.9255 46.1569C85.8369 46.1053 85.7679 46.0363 85.7187 45.9453C85.6695 45.8566 85.6399 45.7459 85.6276 45.6129C85.6153 45.48 85.6079 45.3348 85.6079 45.1748V43.8086H84.8178V45.5317C84.8178 45.6917 84.8005 45.8197 84.7587 45.9133C84.7193 46.0068 84.6578 46.0757 84.5716 46.1249C84.4855 46.1717 84.3673 46.2037 84.2196 46.216C84.0719 46.2283 83.8922 46.2357 83.6806 46.2357H82.6122V45.4111C82.6122 44.7194 82.4375 44.1803 82.0855 43.7889C81.7359 43.4 81.2485 43.2031 80.6258 43.2031C80.0424 43.2031 79.5304 43.3483 79.0898 43.6412C78.6492 43.9342 78.2676 44.3453 77.9378 44.8794V40.1606H77.1476V46.2382H76.0572C75.8898 46.2382 75.7519 46.2111 75.6436 46.1594C75.5353 46.1077 75.4492 46.0388 75.3852 45.9477C75.3212 45.8591 75.2768 45.7483 75.2547 45.6154C75.2301 45.4825 75.2202 45.3373 75.2202 45.1773V43.3286H74.4301V45.5342C74.4301 45.6942 74.4128 45.8222 74.3784 45.9157C74.3439 46.0093 74.2873 46.0782 74.2135 46.1274C74.1396 46.1742 74.0485 46.2062 73.9402 46.2185C73.8319 46.2308 73.699 46.2382 73.5439 46.2382H71.3187C71.0307 46.2382 70.8436 46.1816 70.7599 46.0708C70.6762 45.96 70.6344 45.768 70.6344 45.4973V40.1606H69.8442V45.7089C69.8442 45.9649 69.8787 46.1791 69.9452 46.3489C70.0116 46.5188 70.1052 46.6566 70.2233 46.7576C70.3415 46.8609 70.4867 46.9323 70.6565 46.9742C70.8264 47.016 71.0159 47.0382 71.2202 47.0382H73.6867C74.0461 47.0382 74.3489 46.9988 74.5975 46.9225C74.8436 46.8437 75.0258 46.6763 75.1415 46.4105C75.1932 46.5902 75.2965 46.7403 75.4492 46.8585C75.6042 46.9766 75.8036 47.0357 76.0547 47.0357H83.6535C83.9365 47.0357 84.1827 47.0283 84.3895 47.0111C84.5987 46.9963 84.7759 46.9643 84.9236 46.92C85.0713 46.8757 85.1944 46.8117 85.2904 46.7305C85.3864 46.6493 85.4627 46.5434 85.5218 46.408C85.5612 46.4868 85.603 46.5631 85.6522 46.6394C85.7015 46.7157 85.763 46.7846 85.8467 46.8412C85.9255 46.9003 86.0313 46.9471 86.1593 46.9816C86.2873 47.016 86.4522 47.0357 86.6516 47.0357H91.8528V45.4111C91.8528 44.7071 91.6732 44.1631 91.3187 43.7766C90.9667 43.3951 90.4646 43.2031 89.8172 43.2031ZM81.8221 46.2382H77.9402C78.0362 45.9871 78.1642 45.7311 78.3218 45.4677C78.4793 45.2043 78.6639 44.9656 78.8756 44.7489C79.0873 44.5348 79.3236 44.3551 79.587 44.2148C79.8479 44.0745 80.1359 44.0031 80.4436 44.0031C80.6996 44.0031 80.9162 44.045 81.0935 44.1286C81.2707 44.2123 81.411 44.3256 81.5218 44.4659C81.6301 44.6086 81.7089 44.776 81.7532 44.9705C81.7975 45.1674 81.8196 45.3742 81.8196 45.5932V46.2382H81.8221ZM91.0701 46.2382H87.1415C87.2375 45.9748 87.3655 45.7089 87.5255 45.4431C87.6855 45.1772 87.8775 44.9385 88.099 44.7268C88.3205 44.5151 88.5642 44.3403 88.8326 44.2074C89.0984 44.072 89.3864 44.0056 89.6941 44.0056C89.9452 44.0056 90.1569 44.0449 90.3341 44.1213C90.5113 44.2 90.6541 44.3083 90.7624 44.4486C90.8707 44.5889 90.9519 44.7588 90.9987 44.9533C91.0479 45.1502 91.0701 45.3619 91.0701 45.5957V46.2382Z" fill="white"/>
<path d="M94.9791 41.5662V46.2382H92.813V47.0357H98.2825V40.1606H97.4948V46.2382H95.7693V41.5662H94.9791Z" fill="white"/>
<path d="M100.421 40.1582H99.6313V47.0357H100.421V40.1582Z" fill="white"/>
<path d="M105.312 46.088C105.165 45.9182 105.091 45.7089 105.091 45.4652C105.091 45.3692 105.106 45.2732 105.135 45.1822C105.162 45.0886 105.211 45.0049 105.278 44.9311C105.344 44.8573 105.43 44.7982 105.529 44.7539C105.627 44.7096 105.75 44.6874 105.898 44.6874C106.162 44.6874 106.39 44.7292 106.582 44.8129V44.0597C106.531 44.0425 106.437 44.0253 106.304 44.008C106.169 43.9933 106.009 43.9834 105.822 43.9834C105.642 43.9834 105.467 44.0129 105.298 44.0745C105.128 44.136 104.975 44.2246 104.845 44.3428C104.712 44.4634 104.608 44.6135 104.527 44.7957C104.446 44.9779 104.406 45.192 104.406 45.4357C104.406 45.7877 104.512 46.0905 104.724 46.3416H104.02V47.0357H106.92V46.3416H106.014C105.696 46.3416 105.46 46.2579 105.312 46.088Z" fill="white"/>
<path d="M111.57 42.5286C111.528 42.5803 111.488 42.6394 111.449 42.7059C111.41 42.7748 111.375 42.8486 111.343 42.9274C111.311 43.0086 111.291 43.0874 111.284 43.1637C111.643 43.3385 111.991 43.5329 112.325 43.7471C112.66 43.9612 112.955 44.1803 113.216 44.4019C113.477 44.6234 113.684 44.8425 113.844 45.0566C114.002 45.2732 114.08 45.4628 114.08 45.6302C114.08 45.8689 114.002 46.029 113.844 46.1126C113.687 46.1963 113.49 46.2382 113.251 46.2382H109.369C109.081 46.2382 108.894 46.1816 108.81 46.0708C108.727 45.9576 108.685 45.7656 108.685 45.4973V40.1606H107.895V45.7089C107.895 45.9649 107.929 46.1791 107.995 46.3489C108.062 46.5212 108.155 46.6566 108.276 46.7576C108.394 46.8609 108.537 46.9323 108.709 46.9742C108.882 47.016 109.069 47.0357 109.273 47.0357H113.231C113.566 47.0357 113.839 46.9914 114.051 46.9003C114.263 46.8093 114.425 46.6985 114.543 46.5631C114.659 46.4277 114.738 46.28 114.779 46.12C114.821 45.9576 114.841 45.8123 114.841 45.6769C114.841 45.4849 114.799 45.2806 114.713 45.0665C114.627 44.8523 114.482 44.6283 114.285 44.3969C114.085 44.1656 113.827 43.9243 113.514 43.6757C113.199 43.4246 112.815 43.1686 112.367 42.9053L115.198 41.6523V40.872L111.673 42.4228C111.643 42.4425 111.611 42.477 111.57 42.5286Z" fill="white"/>
<path d="M118.214 46.1348C118.071 46.2013 117.862 46.2357 117.591 46.2357H115.868V47.0357H117.33C117.485 47.0357 117.638 47.0284 117.793 47.016C117.948 47.0037 118.093 46.9717 118.231 46.925C118.369 46.8757 118.492 46.8019 118.607 46.6985C118.718 46.5951 118.812 46.4573 118.881 46.285C119.06 46.5681 119.24 46.7625 119.42 46.8733C119.599 46.9816 119.821 47.0357 120.084 47.0357H122.381V40.1582H121.591V46.2357H120.087C119.998 46.2357 119.912 46.2111 119.833 46.1643C119.752 46.1151 119.668 46.0437 119.582 45.9477C119.496 45.8517 119.402 45.7262 119.306 45.5711C119.21 45.4185 119.097 45.2339 118.969 45.0222L117.815 43.1047L117.074 43.565L118.095 45.0788C118.191 45.2191 118.273 45.352 118.334 45.4751C118.398 45.5957 118.433 45.7188 118.433 45.8394C118.433 45.9699 118.359 46.0683 118.214 46.1348Z" fill="white"/>
<path d="M124.52 40.1582H123.729V47.0357H124.52V40.1582Z" fill="white"/>
<path d="M129.093 47.8701C129.221 47.5648 129.285 47.171 129.285 46.691V45.7851C129.285 45.4184 129.256 45.0836 129.194 44.7784C129.133 44.4731 129.032 44.2098 128.892 43.9882C128.751 43.7667 128.562 43.5919 128.328 43.4688C128.094 43.3433 127.806 43.2793 127.466 43.2793C127.159 43.2793 126.885 43.3384 126.647 43.4541C126.41 43.5698 126.211 43.7248 126.051 43.9168C125.891 44.1088 125.768 44.3279 125.684 44.5765C125.6 44.8251 125.559 45.0762 125.559 45.3322C125.559 45.6547 125.605 45.923 125.699 46.1421C125.792 46.3611 125.918 46.5359 126.076 46.6664C126.233 46.7993 126.42 46.8928 126.634 46.9494C126.848 47.0085 127.08 47.0356 127.331 47.0356C127.607 47.0356 127.84 47.0061 128.025 46.9494C128.21 46.8904 128.362 46.8288 128.478 46.7575V46.9396C128.478 47.235 128.426 47.4688 128.323 47.6436C128.22 47.8184 128.077 47.9488 127.895 48.0399C127.712 48.1285 127.493 48.1876 127.24 48.2122C126.986 48.2368 126.706 48.2516 126.398 48.2516H126.1V49.0516H126.504C126.935 49.0516 127.324 49.0196 127.671 48.9531C128.018 48.8891 128.311 48.7685 128.547 48.5913C128.781 48.4141 128.963 48.1728 129.093 47.8701ZM128.476 45.9575C128.38 46.0362 128.237 46.1051 128.052 46.1691C127.868 46.2331 127.651 46.2651 127.407 46.2651C127.085 46.2651 126.826 46.1864 126.627 46.0288C126.428 45.8713 126.329 45.6104 126.329 45.2436C126.329 45.1082 126.351 44.9704 126.393 44.8301C126.435 44.6898 126.499 44.5593 126.585 44.4436C126.671 44.3279 126.784 44.2319 126.922 44.1556C127.06 44.0768 127.23 44.0399 127.427 44.0399C127.619 44.0399 127.781 44.0818 127.919 44.1605C128.055 44.2418 128.163 44.3501 128.247 44.4879C128.33 44.6258 128.389 44.7907 128.424 44.9851C128.458 45.1771 128.478 45.3839 128.478 45.6005V45.9575H128.476Z" fill="white"/>
<path d="M142.428 36.3574H141.608V37.3568L142.428 36.8842V36.3574Z" fill="white"/>
<path d="M141.174 36.3574H140.354V37.3568L141.174 36.8842V36.3574Z" fill="white"/>
<path d="M133.625 29.123H132.805V30.1249L133.625 29.6498V29.123Z" fill="white"/>
<path d="M132.372 29.123H131.555V30.1249L132.372 29.6498V29.123Z" fill="white"/>
<path d="M94.6366 29.123H93.8169V30.1249L94.6366 29.6498V29.123Z" fill="white"/>
<path d="M93.3836 29.123H92.5664V30.1249L93.3836 29.6498V29.123Z" fill="white"/>
<path d="M99.9046 36.3477H99.0874V37.347L99.9046 36.8744V36.3477Z" fill="white"/>
<path d="M98.6542 36.3477H97.8345V37.347L98.6542 36.8744V36.3477Z" fill="white"/>
<path d="M79.3036 36.3477H78.4839V37.347L79.3036 36.8744V36.3477Z" fill="white"/>
<path d="M78.0506 36.3477H77.2334V37.347L78.0506 36.8744V36.3477Z" fill="white"/>
<path d="M81.6913 36.3477H80.874V37.347L81.6913 36.8744V36.3477Z" fill="white"/>
<path d="M117.886 41.1992H117.066V42.2011L117.886 41.7285V41.1992Z" fill="white"/>
<path d="M75.2694 41.1992H74.4497V42.2011L75.2694 41.7285V41.1992Z" fill="white"/>
<path d="M62.5067 30.1348H61.6895V31.1366L62.5067 30.6615V30.1348Z" fill="white"/>
<path d="M61.2557 30.1348H60.436V31.1366L61.2557 30.6615V30.1348Z" fill="white"/>
<path d="M61.7088 49.9131H60.8892V50.9149L61.7088 50.4398V49.9131Z" fill="white"/>
<path d="M60.4559 49.9131H59.6362V50.9149L60.4559 50.4398V49.9131Z" fill="white"/>
<path d="M71.9662 29.5664H71.1465V30.5683L71.9662 30.0956V29.5664Z" fill="white"/>
<path d="M89.1402 1.09863H80.1729V22.7946H89.1402C96.5962 22.7946 101.564 18.4599 101.564 11.9466C101.564 5.43094 96.5962 1.09863 89.1402 1.09863ZM89.1402 17.8839H86.5359V6.00449H89.1402C92.6258 6.00449 94.9888 8.34048 94.9888 11.9466C94.9888 15.5503 92.6258 17.8839 89.1402 17.8839Z" fill="white"/>
<path d="M118.445 1.09863H108.869L102.081 22.7946H108.961L110.196 18.5509L116.232 15.0654H111.112L113.66 6.64448L116.232 15.0654L118.354 22.7946H125.234L118.445 1.09863Z" fill="white"/>
<path d="M152.978 1.09863H143.402L136.613 22.7946H143.493L144.729 18.5509L150.765 15.0654H145.645L148.192 6.64448L150.765 15.0654L152.887 22.7946H159.767L152.978 1.09863Z" fill="white"/>
<path d="M127.631 4.89433V22.7922H134.206V1.09863L127.631 4.89433Z" fill="white"/>
<path d="M68.0816 9.09846C65.6866 8.82523 63.8675 8.58154 63.8675 7.03815C63.8675 5.88615 65.1401 5.03692 66.9887 5.03692C69.1376 5.03692 70.7401 6.24554 70.7155 7.912L75.609 5.08616C74.2946 2.21846 70.9936 0.342773 66.777 0.342773C61.3518 0.342773 57.5019 3.31138 57.5019 7.76677C57.5019 12.8892 61.689 14.0092 66.169 14.5262C68.473 14.8289 70.3832 15.0726 70.3832 16.6455C70.3832 17.9477 69.1106 18.8585 67.2029 18.8585C64.8422 18.8585 63.1167 17.4972 63.0822 15.656V15.6462H57.3838C57.3838 16.7046 57.6004 17.6892 57.9967 18.5902C59.3259 21.5809 62.7007 23.5526 66.9912 23.5526C72.7167 23.5526 76.7462 20.4043 76.7462 15.7963C76.7438 10.6739 72.4139 9.55384 68.0816 9.09846Z" fill="white"/>
</g>
<defs>
<clipPath id="clip0_356_3620">
<rect width="178.954" height="64" fill="white" transform="translate(-12.5117)"/>
</clipPath>
</defs>
</svg>
