<svg width="280" height="220" viewBox="0 0 280 220" fill="none" xmlns="http://www.w3.org/2000/svg">
<path d="M3.60756 112.8C3.21544 101.571 3.01938 95.957 5.57338 91.8298C6.67903 90.0431 8.12578 88.4917 9.83102 87.2641C13.77 84.4284 19.3845 84.2323 30.6133 83.8402C41.8422 83.4481 47.4566 83.252 51.5838 85.806C53.3705 86.9117 54.922 88.3584 56.1496 90.0637C58.9853 94.0027 59.1813 99.6171 59.5734 110.846L63.2948 217.41L7.32887 219.365L3.60756 112.8Z" fill="url(#paint0_linear_187_2327)"/>
<path d="M74.6784 84.9324C74.2862 73.7036 74.0902 68.0891 76.6442 63.9619C77.7498 62.1752 79.1966 60.6237 80.9018 59.3961C84.8408 56.5605 90.4553 56.3644 101.684 55.9723C112.913 55.5802 118.527 55.3841 122.655 57.9381C124.441 59.0438 125.993 60.4905 127.22 62.1957C130.056 66.1348 130.252 71.7492 130.644 82.978L135.251 214.898L79.2851 216.852L74.6784 84.9324Z" fill="url(#paint1_linear_187_2327)"/>
<path d="M144.89 32.45C144.497 21.2211 144.301 15.6067 146.855 11.4795C147.961 9.69276 149.408 8.14132 151.113 6.91372C155.052 4.07804 160.666 3.88198 171.895 3.48985C183.124 3.09773 188.739 2.90167 192.866 5.45568C194.653 6.56133 196.204 8.00808 197.432 9.71332C200.267 13.6523 200.463 19.2668 200.855 30.4956L207.207 212.385L151.241 214.339L144.89 32.45Z" fill="url(#paint2_linear_187_2327)"/>
<path d="M219.476 105.262C219.084 94.0334 218.888 88.419 221.442 84.2917C222.547 82.505 223.994 80.9536 225.699 79.726C229.638 76.8903 235.253 76.6942 246.482 76.3021C257.711 75.91 263.325 75.7139 267.452 78.2679C269.239 79.3736 270.79 80.8203 272.018 82.5256C274.854 86.4646 275.05 92.079 275.442 103.308L279.163 209.872L223.197 211.827L219.476 105.262Z" fill="url(#paint3_linear_187_2327)"/>
<defs>
<linearGradient id="paint0_linear_187_2327" x1="30.6133" y1="83.8402" x2="35.3118" y2="218.387" gradientUnits="userSpaceOnUse">
<stop stop-color="#0D3CB9"/>
<stop offset="0.798077" stop-color="#2563EB" stop-opacity="0"/>
</linearGradient>
<linearGradient id="paint1_linear_187_2327" x1="101.684" y1="55.9723" x2="107.268" y2="215.875" gradientUnits="userSpaceOnUse">
<stop stop-color="#0D3CB9"/>
<stop offset="0.798077" stop-color="#2563EB" stop-opacity="0"/>
</linearGradient>
<linearGradient id="paint2_linear_187_2327" x1="171.895" y1="3.48985" x2="179.224" y2="213.362" gradientUnits="userSpaceOnUse">
<stop stop-color="#0D3CB9"/>
<stop offset="0.798077" stop-color="#2563EB" stop-opacity="0"/>
</linearGradient>
<linearGradient id="paint3_linear_187_2327" x1="246.482" y1="76.3021" x2="251.18" y2="210.849" gradientUnits="userSpaceOnUse">
<stop stop-color="#0D3CB9"/>
<stop offset="0.798077" stop-color="#2563EB" stop-opacity="0"/>
</linearGradient>
</defs>
</svg>
