<svg width="404" height="373" viewBox="0 0 404 373" fill="none" xmlns="http://www.w3.org/2000/svg">
<g opacity="0.7" filter="url(#filter0_f_187_2377)">
<path d="M133.33 156.217C53.2499 122.011 -3.14014 226.404 -21.3251 282.877L-21.3251 332.088L469.669 341.769L475.675 78.7693C365.972 255.597 234.41 199.396 134.444 156.693L133.33 156.217Z" fill="#0D3CB9"/>
</g>
<g opacity="0.1" filter="url(#filter1_f_187_2377)">
<path d="M133.33 221.199C53.2499 193.626 -3.14014 277.776 -21.3251 323.297L-21.3251 362.966L469.669 370.77L475.675 158.77C365.972 301.307 234.41 256.005 134.444 221.583L133.33 221.199Z" fill="#072FA2"/>
</g>
<g opacity="0.2" filter="url(#filter2_f_187_2377)">
<path d="M133.175 281.77C53.1749 260.57 -3.15843 325.27 -21.3251 360.27L-21.3251 390.77L469.175 396.77L475.175 233.77C365.582 343.362 234.152 308.531 134.287 282.064L133.175 281.77Z" fill="#021966"/>
</g>
<defs>
<filter id="filter0_f_187_2377" x="-121.325" y="-21.2307" width="697" height="463" filterUnits="userSpaceOnUse" color-interpolation-filters="sRGB">
<feFlood flood-opacity="0" result="BackgroundImageFix"/>
<feBlend mode="normal" in="SourceGraphic" in2="BackgroundImageFix" result="shape"/>
<feGaussianBlur stdDeviation="50" result="effect1_foregroundBlur_187_2377"/>
</filter>
<filter id="filter1_f_187_2377" x="-121.325" y="58.7695" width="697" height="412" filterUnits="userSpaceOnUse" color-interpolation-filters="sRGB">
<feFlood flood-opacity="0" result="BackgroundImageFix"/>
<feBlend mode="normal" in="SourceGraphic" in2="BackgroundImageFix" result="shape"/>
<feGaussianBlur stdDeviation="50" result="effect1_foregroundBlur_187_2377"/>
</filter>
<filter id="filter2_f_187_2377" x="-121.325" y="133.77" width="696.5" height="363" filterUnits="userSpaceOnUse" color-interpolation-filters="sRGB">
<feFlood flood-opacity="0" result="BackgroundImageFix"/>
<feBlend mode="normal" in="SourceGraphic" in2="BackgroundImageFix" result="shape"/>
<feGaussianBlur stdDeviation="50" result="effect1_foregroundBlur_187_2377"/>
</filter>
</defs>
</svg>
